<?xml version="1.0" encoding="utf-8"?>
<!-- Generator: Adobe Illustrator 27.2.0, SVG Export Plug-In . SVG Version: 6.00 Build 0)  -->
<svg version="1.1" id="Layer_1" xmlns="http://www.w3.org/2000/svg" xmlns:xlink="http://www.w3.org/1999/xlink" x="0px" y="0px"
	 viewBox="0 0 349.6 506" style="enable-background:new 0 0 349.6 506;" xml:space="preserve">
<style type="text/css">
	.st0{clip-path:url(#SVGID_00000088813757537877770210000012983893192312859267_);}
	.st1{clip-path:url(#SVGID_00000088813757537877770210000012983893192312859267_);fill:#F2F1E5;stroke:#F2F1E5;}
	.st2{clip-path:url(#SVGID_00000088813757537877770210000012983893192312859267_);fill:#F2F1E5;}
	.st3{fill:none;stroke:#FFBA0E;}
	.st4{fill:#FFBA0E;}
	.st5{fill:none;stroke:#D4AF37;}
	.st6{fill:#D4AF37;}
	.st7{clip-path:url(#SVGID_00000088813757537877770210000012983893192312859267_);fill:none;stroke:#DFC878;}
	.st8{clip-path:url(#SVGID_00000088813757537877770210000012983893192312859267_);fill:#DFC878;}
	.st9{enable-background:new    ;}
	.st10{fill:#FFFFFF;}
	.st11{fill:none;}
	.st12{fill:none;stroke:#000000;}
	.st13{fill:none;stroke:#F2F1E5;}
	.st14{fill:#F2F1E5;}
	.st15{fill:none;stroke:#DFC878;}
	.st16{fill:#DFC878;}
	.st17{fill:none;stroke:#FFFFFF;}
</style>
<rect x="-51.2" y="-66.6" width="498.6" height="572.8"/>
<rect x="-1018.3" y="-71.2" width="886" height="676.2"/>
<g id="viz">
	<g>
		<defs>
			<rect id="SVGID_1_" x="-947.6" y="-12.3" width="781.3" height="500"/>
		</defs>
		<clipPath id="SVGID_00000143584041883067544750000008573026932145984176_">
			<use xlink:href="#SVGID_1_"  style="overflow:visible;"/>
		</clipPath>
		<g transform="translate(120,40)" style="clip-path:url(#SVGID_00000143584041883067544750000008573026932145984176_);">
			<g>
				<g>
				</g>
			</g>
		</g>
		
			<line style="clip-path:url(#SVGID_00000143584041883067544750000008573026932145984176_);fill:#F2F1E5;stroke:#F2F1E5;" x1="-822.6" y1="142.2" x2="-291.3" y2="429.8"/>
		
			<ellipse style="clip-path:url(#SVGID_00000143584041883067544750000008573026932145984176_);fill:#F2F1E5;" cx="-822.6" cy="142.2" rx="2.6" ry="2.5"/>
		
			<ellipse style="clip-path:url(#SVGID_00000143584041883067544750000008573026932145984176_);fill:#F2F1E5;" cx="-291.3" cy="429.8" rx="2.6" ry="2.5"/>
		<g id="France" style="clip-path:url(#SVGID_00000143584041883067544750000008573026932145984176_);">
			<line class="st3" x1="-822.6" y1="27.7" x2="-291.3" y2="477.7"/>
			<ellipse class="st4" cx="-822.6" cy="27.7" rx="2.6" ry="2.5"/>
			<ellipse class="st4" cx="-291.3" cy="477.7" rx="2.6" ry="2.5"/>
		</g>
		<g id="Germany" style="clip-path:url(#SVGID_00000143584041883067544750000008573026932145984176_);">
			<line class="st5" x1="-822.6" y1="51.7" x2="-291.3" y2="408.5"/>
			<ellipse class="st6" cx="-822.6" cy="51.7" rx="2.6" ry="2.5"/>
			<ellipse class="st6" cx="-291.3" cy="408.5" rx="2.6" ry="2.5"/>
		</g>
		
			<line style="clip-path:url(#SVGID_00000143584041883067544750000008573026932145984176_);fill:none;stroke:#DFC878;" x1="-822.6" y1="83.6" x2="-291.3" y2="421.8"/>
		
			<ellipse style="clip-path:url(#SVGID_00000143584041883067544750000008573026932145984176_);fill:#DFC878;" cx="-822.6" cy="83.6" rx="2.6" ry="2.5"/>
		
			<ellipse style="clip-path:url(#SVGID_00000143584041883067544750000008573026932145984176_);fill:#DFC878;" cx="-291.3" cy="421.8" rx="2.6" ry="2.5"/>
		<g style="clip-path:url(#SVGID_00000143584041883067544750000008573026932145984176_);">
			<g class="st9">
				<path class="st10" d="M-905.8,137.5h2.9c1.8,0,3.2,0.6,3.2,2.3c0,0.9-0.5,1.7-1.2,2v0.1c1,0.2,1.7,0.9,1.7,2.2
					c0,1.8-1.5,2.7-3.5,2.7h-3.1V137.5z M-903.1,141.3c1.3,0,1.8-0.5,1.8-1.3c0-0.9-0.6-1.2-1.8-1.2h-1.2v2.5H-903.1z M-902.9,145.4
					c1.3,0,2.1-0.5,2.1-1.5c0-1-0.7-1.4-2.1-1.4h-1.3v2.9H-902.9z"/>
				<path class="st10" d="M-898.2,143.2c0-2.2,1.5-3.6,3.1-3.6c1.8,0,2.8,1.3,2.8,3.3c0,0.3,0,0.6-0.1,0.8h-4.3
					c0.1,1.2,0.9,1.9,2,1.9c0.6,0,1.1-0.2,1.6-0.5l0.5,1c-0.6,0.4-1.5,0.7-2.3,0.7C-896.7,146.8-898.2,145.5-898.2,143.2z
					 M-893.7,142.5c0-1.1-0.5-1.7-1.4-1.7c-0.8,0-1.5,0.6-1.6,1.7H-893.7z"/>
				<path class="st10" d="M-890.8,144.9v-8.1h1.6v8.2c0,0.4,0.2,0.5,0.3,0.5c0.1,0,0.1,0,0.2,0l0.2,1.2c-0.2,0.1-0.5,0.1-0.8,0.1
					C-890.4,146.8-890.8,146.1-890.8,144.9z"/>
				<path class="st10" d="M-887.5,147.9c0-0.6,0.4-1.1,1-1.5v-0.1c-0.3-0.2-0.6-0.6-0.6-1.1c0-0.5,0.4-1,0.7-1.3v-0.1
					c-0.5-0.3-0.9-1-0.9-1.8c0-1.6,1.3-2.5,2.7-2.5c0.4,0,0.7,0.1,1,0.2h2.4v1.2h-1.2c0.2,0.3,0.4,0.7,0.4,1.2
					c0,1.5-1.1,2.3-2.6,2.3c-0.3,0-0.6-0.1-0.9-0.2c-0.2,0.2-0.3,0.4-0.3,0.7c0,0.4,0.3,0.6,1.1,0.6h1.2c1.6,0,2.5,0.5,2.5,1.7
					c0,1.4-1.4,2.4-3.6,2.4C-886.3,149.7-887.5,149.1-887.5,147.9z M-882.6,147.5c0-0.5-0.4-0.7-1.2-0.7h-0.9c-0.4,0-0.7,0-0.9-0.1
					c-0.4,0.3-0.5,0.6-0.5,0.9c0,0.6,0.7,1,1.7,1C-883.4,148.6-882.6,148.1-882.6,147.5z M-883.4,142.1c0-0.9-0.5-1.4-1.2-1.4
					s-1.2,0.5-1.2,1.4c0,0.9,0.5,1.4,1.2,1.4C-884,143.4-883.4,142.9-883.4,142.1z"/>
				<path class="st10" d="M-880.1,137.6c0-0.5,0.4-0.9,1-0.9s1,0.4,1,0.9c0,0.5-0.4,0.9-1,0.9S-880.1,138.2-880.1,137.6z
					 M-879.9,139.8h1.6v6.9h-1.6V139.8z"/>
				<path class="st10" d="M-876.4,144.1v-4.3h1.6v4.1c0,1.1,0.3,1.6,1.1,1.6c0.6,0,1-0.3,1.5-1v-4.7h1.6v6.9h-1.3l-0.1-1h0
					c-0.6,0.7-1.2,1.2-2.2,1.2C-875.7,146.8-876.4,145.8-876.4,144.1z"/>
				<path class="st10" d="M-868.6,139.8h1.3l0.1,0.9h0c0.6-0.6,1.2-1.1,2.1-1.1c1,0,1.6,0.5,1.9,1.2c0.6-0.7,1.3-1.2,2.2-1.2
					c1.4,0,2.1,1,2.1,2.7v4.3h-1.6v-4.1c0-1.1-0.3-1.6-1-1.6c-0.4,0-0.9,0.3-1.4,0.9v4.8h-1.6v-4.1c0-1.1-0.3-1.6-1-1.6
					c-0.4,0-0.9,0.3-1.4,0.9v4.8h-1.6V139.8z"/>
				<path class="st10" d="M-854.3,145.3h2v-5.8h-1.6v-1c0.9-0.2,1.5-0.4,2-0.7h1.2v7.6h1.7v1.3h-5.3V145.3z"/>
				<path class="st10" d="M-847.7,145.7c2.4-2.4,4-4,4-5.3c0-0.9-0.5-1.5-1.4-1.5c-0.7,0-1.2,0.5-1.7,1l-0.9-0.9
					c0.8-0.9,1.6-1.4,2.8-1.4c1.7,0,2.8,1.1,2.8,2.7c0,1.6-1.4,3.2-3.2,5.1c0.5,0,1-0.1,1.5-0.1h2.1v1.4h-5.9V145.7z"/>
				<path class="st10" d="M-836.4,139.1h-4.1v-1.4h5.9v1c-2.1,2.6-2.4,4.4-2.6,7.9h-1.6C-838.7,143.5-838.1,141.5-836.4,139.1z"/>
			</g>
		</g>
		<g style="clip-path:url(#SVGID_00000143584041883067544750000008573026932145984176_);">
			<g class="st9">
				<path class="st10" d="M-274.6,429.7h3c1.9,0,3.3,0.6,3.3,2.3c0,0.9-0.5,1.7-1.3,2v0.1c1,0.2,1.8,0.9,1.8,2.2
					c0,1.8-1.5,2.7-3.6,2.7h-3.2V429.7z M-271.8,433.4c1.3,0,1.9-0.5,1.9-1.3c0-0.9-0.6-1.2-1.8-1.2h-1.2v2.5H-271.8z M-271.5,437.6
					c1.4,0,2.1-0.5,2.1-1.5c0-1-0.7-1.4-2.1-1.4h-1.4v2.9H-271.5z"/>
				<path class="st10" d="M-266.7,435.4c0-2.2,1.6-3.6,3.2-3.6c1.9,0,2.9,1.3,2.9,3.3c0,0.3,0,0.6-0.1,0.8h-4.4
					c0.1,1.2,0.9,1.9,2.1,1.9c0.6,0,1.1-0.2,1.6-0.5l0.6,1c-0.7,0.4-1.5,0.7-2.4,0.7C-265.2,439-266.7,437.7-266.7,435.4z
					 M-262,434.7c0-1.1-0.5-1.7-1.4-1.7c-0.8,0-1.5,0.6-1.7,1.7H-262z"/>
				<path class="st10" d="M-259,437.1v-8.1h1.6v8.2c0,0.4,0.2,0.5,0.4,0.5c0.1,0,0.1,0,0.3,0l0.2,1.2c-0.2,0.1-0.5,0.1-0.9,0.1
					C-258.6,439-259,438.3-259,437.1z"/>
				<path class="st10" d="M-255.6,440.1c0-0.6,0.4-1.1,1-1.5v-0.1c-0.4-0.2-0.6-0.6-0.6-1.1c0-0.5,0.4-1,0.8-1.3v-0.1
					c-0.5-0.3-0.9-1-0.9-1.8c0-1.6,1.3-2.5,2.8-2.5c0.4,0,0.8,0.1,1,0.2h2.5v1.2h-1.3c0.2,0.3,0.4,0.7,0.4,1.2
					c0,1.5-1.2,2.3-2.7,2.3c-0.3,0-0.6-0.1-0.9-0.2c-0.2,0.2-0.3,0.3-0.3,0.7c0,0.4,0.3,0.6,1.1,0.6h1.2c1.7,0,2.6,0.5,2.6,1.7
					c0,1.4-1.4,2.4-3.7,2.4C-254.4,441.9-255.6,441.3-255.6,440.1z M-250.6,439.7c0-0.5-0.4-0.7-1.2-0.7h-1c-0.4,0-0.7,0-0.9-0.1
					c-0.4,0.3-0.5,0.6-0.5,0.9c0,0.6,0.7,1,1.8,1C-251.3,440.8-250.6,440.3-250.6,439.7z M-251.4,434.2c0-0.9-0.5-1.4-1.2-1.4
					c-0.7,0-1.2,0.5-1.2,1.4c0,0.9,0.5,1.4,1.2,1.4C-252,435.6-251.4,435.1-251.4,434.2z"/>
				<path class="st10" d="M-247.9,429.8c0-0.5,0.4-0.9,1-0.9c0.6,0,1,0.4,1,0.9c0,0.5-0.4,0.9-1,0.9
					C-247.5,430.7-247.9,430.4-247.9,429.8z M-247.7,431.9h1.6v6.9h-1.6V431.9z"/>
				<path class="st10" d="M-244.1,436.3v-4.3h1.6v4.1c0,1.1,0.3,1.6,1.1,1.6c0.6,0,1-0.3,1.6-1v-4.7h1.6v6.9h-1.3l-0.1-1h0
					c-0.6,0.7-1.3,1.2-2.3,1.2C-243.4,439-244.1,438-244.1,436.3z"/>
				<path class="st10" d="M-236.1,431.9h1.3l0.1,0.9h0c0.6-0.6,1.3-1.1,2.1-1.1c1,0,1.6,0.5,1.9,1.2c0.7-0.7,1.4-1.2,2.3-1.2
					c1.5,0,2.2,1,2.2,2.7v4.3h-1.6v-4.1c0-1.1-0.3-1.6-1.1-1.6c-0.4,0-0.9,0.3-1.5,0.9v4.8h-1.6v-4.1c0-1.1-0.3-1.6-1.1-1.6
					c-0.4,0-0.9,0.3-1.5,0.9v4.8h-1.6V431.9z"/>
				<path class="st10" d="M-221.2,437.5h2v-5.8h-1.7v-1c0.9-0.2,1.5-0.4,2.1-0.7h1.2v7.6h1.8v1.3h-5.5V437.5z"/>
				<path class="st10" d="M-214.3,438l0.9-1c0.3,0.4,0.9,0.7,1.4,0.7c1.2,0,2.1-0.9,2.1-3.6c0-2.2-0.7-3.1-1.7-3.1
					c-0.8,0-1.4,0.6-1.4,1.7c0,1.1,0.5,1.6,1.4,1.6c0.5,0,1.2-0.3,1.7-1.1l0.1,1.1c-0.5,0.7-1.4,1.1-2,1.1c-1.6,0-2.6-0.9-2.6-2.8
					c0-1.8,1.3-2.9,2.9-2.9c1.8,0,3.3,1.4,3.3,4.4c0,3.5-1.7,4.9-3.6,4.9C-212.9,439-213.7,438.5-214.3,438z"/>
			</g>
		</g>
		<g style="clip-path:url(#SVGID_00000143584041883067544750000008573026932145984176_);">
			<g class="st9">
				<path class="st10" d="M-896.2,20.8h5.4v1.4h-3.8v2.6h3.3v1.4h-3.3V30h-1.6V20.8z"/>
				<path class="st10" d="M-889.3,23.1h1.3l0.1,1.2h0c0.5-0.9,1.2-1.4,1.9-1.4c0.3,0,0.6,0,0.8,0.1l-0.3,1.4
					c-0.2-0.1-0.4-0.1-0.7-0.1c-0.5,0-1.2,0.4-1.6,1.4V30h-1.6V23.1z"/>
				<path class="st10" d="M-884.6,28.1c0-1.5,1.2-2.2,4-2.5c0-0.7-0.3-1.4-1.2-1.4c-0.7,0-1.3,0.3-1.9,0.7l-0.6-1.1
					c0.7-0.5,1.7-0.9,2.8-0.9c1.7,0,2.5,1.1,2.5,3V30h-1.3l-0.1-0.8h0c-0.6,0.5-1.3,0.9-2.1,0.9C-883.8,30.1-884.6,29.3-884.6,28.1z
					 M-880.6,28.1v-1.5c-1.8,0.2-2.4,0.7-2.4,1.4c0,0.6,0.4,0.9,1,0.9C-881.5,28.9-881.1,28.6-880.6,28.1z"/>
				<path class="st10" d="M-877.1,23.1h1.3l0.1,0.9h0c0.6-0.6,1.3-1.1,2.2-1.1c1.4,0,2.1,1,2.1,2.7V30h-1.6v-4.1
					c0-1.1-0.3-1.6-1.1-1.6c-0.6,0-1,0.3-1.5,0.9V30h-1.6V23.1z"/>
				<path class="st10" d="M-869.8,26.5c0-2.3,1.6-3.6,3.4-3.6c0.9,0,1.5,0.3,2,0.8l-0.8,1c-0.4-0.3-0.7-0.5-1.1-0.5
					c-1.1,0-1.8,0.9-1.8,2.3s0.7,2.3,1.8,2.3c0.5,0,1-0.3,1.4-0.6l0.6,1.1c-0.6,0.6-1.4,0.8-2.2,0.8
					C-868.4,30.1-869.8,28.8-869.8,26.5z"/>
				<path class="st10" d="M-863.5,26.5c0-2.2,1.5-3.6,3.1-3.6c1.8,0,2.8,1.3,2.8,3.3c0,0.3,0,0.6-0.1,0.8h-4.3
					c0.1,1.2,0.9,1.9,2,1.9c0.6,0,1.1-0.2,1.6-0.5l0.5,1c-0.6,0.4-1.5,0.7-2.3,0.7C-862,30.1-863.5,28.8-863.5,26.5z M-858.9,25.9
					c0-1.1-0.5-1.7-1.4-1.7c-0.8,0-1.5,0.6-1.6,1.7H-858.9z"/>
				<path class="st10" d="M-853.3,28.6h2v-5.8h-1.6v-1c0.9-0.2,1.5-0.4,2-0.7h1.2v7.6h1.7V30h-5.3V28.6z"/>
				<path class="st10" d="M-842.5,22.4h-4.1V21h5.9v1c-2.1,2.6-2.4,4.4-2.6,7.9h-1.6C-844.8,26.8-844.2,24.8-842.5,22.4z"/>
				<path class="st10" d="M-839.6,25.5c0-3,1.2-4.6,3-4.6c1.8,0,3,1.6,3,4.6c0,3-1.2,4.7-3,4.7C-838.5,30.1-839.6,28.5-839.6,25.5z
					 M-835.2,25.5c0-2.5-0.6-3.3-1.5-3.3c-0.8,0-1.5,0.8-1.5,3.3s0.6,3.4,1.5,3.4C-835.8,28.9-835.2,28-835.2,25.5z"/>
			</g>
		</g>
		<g style="clip-path:url(#SVGID_00000143584041883067544750000008573026932145984176_);">
			<g class="st9">
				<path class="st10" d="M-274.6,473.9h5.6v1.4h-4v2.6h3.4v1.4h-3.4v3.8h-1.7V473.9z"/>
				<path class="st10" d="M-267.5,476.2h1.3l0.1,1.2h0c0.5-0.9,1.2-1.4,2-1.4c0.4,0,0.6,0,0.8,0.1l-0.3,1.4
					c-0.2-0.1-0.4-0.1-0.7-0.1c-0.6,0-1.2,0.4-1.7,1.4v4.2h-1.6V476.2z"/>
				<path class="st10" d="M-262.5,481.2c0-1.5,1.2-2.2,4.1-2.5c0-0.7-0.3-1.4-1.3-1.4c-0.7,0-1.4,0.3-2,0.7l-0.6-1.1
					c0.8-0.5,1.8-0.9,2.9-0.9c1.8,0,2.6,1.1,2.6,3v4.1h-1.3l-0.1-0.8h0c-0.6,0.5-1.3,0.9-2.2,0.9
					C-261.7,483.2-262.5,482.4-262.5,481.2z M-258.4,481.2v-1.5c-1.9,0.2-2.5,0.7-2.5,1.4c0,0.6,0.4,0.9,1,0.9
					C-259.4,482-258.9,481.7-258.4,481.2z"/>
				<path class="st10" d="M-254.8,476.2h1.3l0.1,0.9h0c0.6-0.6,1.3-1.1,2.3-1.1c1.5,0,2.2,1,2.2,2.7v4.3h-1.6V479
					c0-1.1-0.3-1.6-1.1-1.6c-0.6,0-1,0.3-1.6,0.9v4.8h-1.6V476.2z"/>
				<path class="st10" d="M-247.3,479.6c0-2.3,1.6-3.6,3.5-3.6c0.9,0,1.5,0.3,2,0.8l-0.8,1c-0.4-0.3-0.7-0.5-1.2-0.5
					c-1.1,0-1.9,0.9-1.9,2.3c0,1.4,0.8,2.3,1.9,2.3c0.5,0,1-0.3,1.4-0.6l0.7,1.1c-0.7,0.6-1.5,0.8-2.3,0.8
					C-245.8,483.2-247.3,481.9-247.3,479.6z"/>
				<path class="st10" d="M-240.7,479.6c0-2.2,1.6-3.6,3.2-3.6c1.9,0,2.9,1.3,2.9,3.3c0,0.3,0,0.6-0.1,0.8h-4.4
					c0.1,1.2,0.9,1.9,2.1,1.9c0.6,0,1.1-0.2,1.6-0.5l0.6,1c-0.7,0.4-1.5,0.7-2.4,0.7C-239.2,483.2-240.7,481.9-240.7,479.6z
					 M-236,479c0-1.1-0.5-1.7-1.4-1.7c-0.8,0-1.5,0.6-1.7,1.7H-236z"/>
				<path class="st10" d="M-230.2,481.8h2v-5.8h-1.7v-1c0.9-0.2,1.5-0.4,2.1-0.7h1.2v7.6h1.8v1.3h-5.5V481.8z"/>
			</g>
		</g>
		<g style="clip-path:url(#SVGID_00000143584041883067544750000008573026932145984176_);">
			<g class="st9">
				<path class="st10" d="M-911.3,52c0-3,1.9-4.8,4.3-4.8c1.3,0,2.2,0.6,2.7,1.2l-0.9,1c-0.5-0.4-1-0.8-1.8-0.8
					c-1.6,0-2.7,1.3-2.7,3.3c0,2.1,1,3.4,2.8,3.4c0.5,0,1-0.1,1.3-0.4v-2h-1.7v-1.3h3.1v4c-0.6,0.6-1.6,1.1-2.9,1.1
					C-909.5,56.7-911.3,55-911.3,52z"/>
				<path class="st10" d="M-902.8,53.1c0-2.2,1.5-3.6,3.1-3.6c1.8,0,2.8,1.3,2.8,3.3c0,0.3,0,0.6-0.1,0.8h-4.3
					c0.1,1.2,0.9,1.9,2,1.9c0.6,0,1.1-0.2,1.6-0.5l0.5,1c-0.6,0.4-1.5,0.7-2.3,0.7C-901.3,56.7-902.8,55.3-902.8,53.1z M-898.3,52.4
					c0-1.1-0.5-1.7-1.4-1.7c-0.8,0-1.5,0.6-1.6,1.7H-898.3z"/>
				<path class="st10" d="M-895.4,49.6h1.3l0.1,1.2h0c0.5-0.9,1.2-1.4,1.9-1.4c0.3,0,0.6,0,0.8,0.1l-0.3,1.4
					c-0.2-0.1-0.4-0.1-0.7-0.1c-0.5,0-1.2,0.4-1.6,1.4v4.2h-1.6V49.6z"/>
				<path class="st10" d="M-890.3,49.6h1.3l0.1,0.9h0c0.6-0.6,1.2-1.1,2.1-1.1c1,0,1.6,0.5,1.9,1.2c0.6-0.7,1.3-1.2,2.2-1.2
					c1.4,0,2.1,1,2.1,2.7v4.3h-1.6v-4.1c0-1.1-0.3-1.6-1-1.6c-0.4,0-0.9,0.3-1.4,0.9v4.8h-1.6v-4.1c0-1.1-0.3-1.6-1-1.6
					c-0.4,0-0.9,0.3-1.4,0.9v4.8h-1.6V49.6z"/>
				<path class="st10" d="M-879,54.7c0-1.5,1.2-2.2,4-2.5c0-0.7-0.3-1.4-1.2-1.4c-0.7,0-1.3,0.3-1.9,0.7l-0.6-1.1
					c0.7-0.5,1.7-0.9,2.8-0.9c1.7,0,2.5,1.1,2.5,3v4.1h-1.3l-0.1-0.8h0c-0.6,0.5-1.3,0.9-2.1,0.9C-878.2,56.7-879,55.9-879,54.7z
					 M-875,54.7v-1.5c-1.8,0.2-2.4,0.7-2.4,1.4c0,0.6,0.4,0.9,1,0.9C-876,55.4-875.5,55.1-875,54.7z"/>
				<path class="st10" d="M-871.5,49.6h1.3l0.1,0.9h0c0.6-0.6,1.3-1.1,2.2-1.1c1.4,0,2.1,1,2.1,2.7v4.3h-1.6v-4.1
					c0-1.1-0.3-1.6-1.1-1.6c-0.6,0-1,0.3-1.5,0.9v4.8h-1.6V49.6z"/>
				<path class="st10" d="M-864.3,59.2l0.3-1.2c0.1,0,0.3,0.1,0.5,0.1c0.7,0,1.1-0.5,1.3-1.2l0.1-0.4l-2.7-6.8h1.6l1.2,3.4
					c0.2,0.6,0.4,1.3,0.6,1.9h0.1c0.2-0.6,0.3-1.3,0.5-1.9l1-3.4h1.5l-2.4,7.2c-0.6,1.5-1.3,2.5-2.7,2.5
					C-863.8,59.3-864,59.3-864.3,59.2z"/>
				<path class="st10" d="M-854.3,55.2h2v-5.8h-1.6v-1c0.9-0.2,1.5-0.4,2-0.7h1.2v7.6h1.7v1.3h-5.3V55.2z"/>
				<path class="st10" d="M-847.6,52.3c0-3.5,1.6-4.9,3.4-4.9c1.1,0,1.8,0.5,2.3,1l-0.9,1c-0.3-0.4-0.9-0.7-1.4-0.7
					c-1.1,0-2.1,0.9-2.1,3.6c0,2.2,0.7,3.1,1.7,3.1c0.7,0,1.3-0.6,1.3-1.7c0-1.1-0.5-1.6-1.4-1.6c-0.5,0-1.1,0.3-1.6,1.1l-0.1-1.1
					c0.5-0.7,1.3-1.1,2-1.1c1.5,0,2.6,0.9,2.6,2.8c0,1.8-1.3,2.9-2.8,2.9C-846.1,56.7-847.6,55.3-847.6,52.3z"/>
				<path class="st10" d="M-840.1,55.2h2v-5.8h-1.6v-1c0.9-0.2,1.5-0.4,2-0.7h1.2v7.6h1.7v1.3h-5.3V55.2z"/>
			</g>
		</g>
		<g style="clip-path:url(#SVGID_00000143584041883067544750000008573026932145984176_);">
			<g class="st9">
				<path class="st10" d="M-275.1,406.6c0-3,1.9-4.8,4.4-4.8c1.3,0,2.2,0.6,2.8,1.2l-0.9,1c-0.5-0.4-1-0.8-1.9-0.8
					c-1.7,0-2.8,1.3-2.8,3.3c0,2.1,1,3.4,2.9,3.4c0.5,0,1-0.1,1.3-0.4v-2h-1.8v-1.3h3.2v4c-0.6,0.6-1.7,1.1-3,1.1
					C-273.2,411.3-275.1,409.6-275.1,406.6z"/>
				<path class="st10" d="M-266.2,407.7c0-2.2,1.6-3.6,3.2-3.6c1.9,0,2.9,1.3,2.9,3.3c0,0.3,0,0.6-0.1,0.8h-4.4
					c0.1,1.2,0.9,1.9,2.1,1.9c0.6,0,1.1-0.2,1.6-0.5l0.6,1c-0.7,0.4-1.5,0.7-2.4,0.7C-264.7,411.3-266.2,410-266.2,407.7z
					 M-261.5,407.1c0-1.1-0.5-1.7-1.4-1.7c-0.8,0-1.5,0.6-1.7,1.7H-261.5z"/>
				<path class="st10" d="M-258.6,404.3h1.3l0.1,1.2h0c0.5-0.9,1.2-1.4,2-1.4c0.4,0,0.6,0,0.8,0.1l-0.3,1.4
					c-0.2-0.1-0.4-0.1-0.7-0.1c-0.6,0-1.2,0.4-1.7,1.4v4.2h-1.6V404.3z"/>
				<path class="st10" d="M-253.2,404.3h1.3l0.1,0.9h0c0.6-0.6,1.3-1.1,2.1-1.1c1,0,1.6,0.5,1.9,1.2c0.7-0.7,1.4-1.2,2.3-1.2
					c1.5,0,2.2,1,2.2,2.7v4.3h-1.6v-4.1c0-1.1-0.3-1.6-1.1-1.6c-0.4,0-0.9,0.3-1.5,0.9v4.8h-1.6v-4.1c0-1.1-0.3-1.6-1.1-1.6
					c-0.4,0-0.9,0.3-1.5,0.9v4.8h-1.6V404.3z"/>
				<path class="st10" d="M-241.6,409.3c0-1.5,1.2-2.2,4.1-2.5c0-0.7-0.3-1.4-1.3-1.4c-0.7,0-1.4,0.3-2,0.7l-0.6-1.1
					c0.8-0.5,1.8-0.9,2.9-0.9c1.8,0,2.6,1.1,2.6,3v4.1h-1.3l-0.1-0.8h0c-0.6,0.5-1.3,0.9-2.2,0.9
					C-240.8,411.3-241.6,410.5-241.6,409.3z M-237.5,409.3v-1.5c-1.9,0.2-2.5,0.7-2.5,1.4c0,0.6,0.4,0.9,1,0.9
					C-238.4,410.1-238,409.8-237.5,409.3z"/>
				<path class="st10" d="M-233.9,404.3h1.3l0.1,0.9h0c0.6-0.6,1.3-1.1,2.3-1.1c1.5,0,2.2,1,2.2,2.7v4.3h-1.6v-4.1
					c0-1.1-0.3-1.6-1.1-1.6c-0.6,0-1,0.3-1.6,0.9v4.8h-1.6V404.3z"/>
				<path class="st10" d="M-226.4,413.8l0.3-1.2c0.1,0,0.3,0.1,0.5,0.1c0.7,0,1.2-0.5,1.4-1.2l0.1-0.4l-2.8-6.8h1.7l1.2,3.4
					c0.2,0.6,0.4,1.3,0.6,1.9h0.1c0.2-0.6,0.4-1.3,0.5-1.9l1-3.4h1.6l-2.5,7.2c-0.6,1.5-1.3,2.5-2.8,2.5
					C-225.8,414-226.1,413.9-226.4,413.8z"/>
				<path class="st10" d="M-216.5,410.2c2.5-2.4,4.1-4,4.1-5.3c0-0.9-0.5-1.5-1.5-1.5c-0.7,0-1.3,0.5-1.8,1l-0.9-0.9
					c0.8-0.9,1.7-1.4,2.9-1.4c1.7,0,2.9,1.1,2.9,2.7c0,1.6-1.5,3.2-3.3,5.1c0.5,0,1.1-0.1,1.5-0.1h2.2v1.4h-6.1V410.2z"/>
				<path class="st10" d="M-204.8,403.6h-4.3v-1.4h6.1v1c-2.1,2.6-2.5,4.4-2.7,7.9h-1.7C-207.2,408-206.6,406-204.8,403.6z"/>
			</g>
		</g>
		<g style="clip-path:url(#SVGID_00000143584041883067544750000008573026932145984176_);">
			<g class="st9">
				<path class="st10" d="M-929.8,78.3h1.6l2.8,5.1l0.9,2h0.1c-0.1-0.9-0.2-2.1-0.2-3.1v-4h1.5v9.2h-1.6l-2.8-5.2l-0.9-1.9h-0.1
					c0.1,1,0.2,2.1,0.2,3.1v4h-1.5V78.3z"/>
				<path class="st10" d="M-921.3,84.1c0-2.2,1.5-3.6,3.1-3.6c1.8,0,2.8,1.3,2.8,3.3c0,0.3,0,0.6-0.1,0.8h-4.3
					c0.1,1.2,0.9,1.9,2,1.9c0.6,0,1.1-0.2,1.6-0.5l0.5,1c-0.6,0.4-1.5,0.7-2.3,0.7C-919.8,87.7-921.3,86.3-921.3,84.1z M-916.8,83.4
					c0-1.1-0.5-1.7-1.4-1.7c-0.8,0-1.5,0.6-1.6,1.7H-916.8z"/>
				<path class="st10" d="M-913.6,85.2v-3.3h-1v-1.2l1-0.1l0.2-1.9h1.3v1.9h1.7v1.3h-1.7v3.3c0,0.8,0.3,1.2,1,1.2
					c0.2,0,0.5-0.1,0.7-0.2l0.3,1.2c-0.4,0.1-0.8,0.3-1.4,0.3C-913.1,87.7-913.6,86.7-913.6,85.2z"/>
				<path class="st10" d="M-908.9,77.6h1.6v2.6l-0.1,1.3c0.6-0.5,1.2-1,2.2-1c1.4,0,2.1,1,2.1,2.7v4.3h-1.6v-4.1
					c0-1.1-0.3-1.6-1.1-1.6c-0.6,0-1,0.3-1.5,0.9v4.8h-1.6V77.6z"/>
				<path class="st10" d="M-901.7,84.1c0-2.2,1.5-3.6,3.1-3.6c1.8,0,2.8,1.3,2.8,3.3c0,0.3,0,0.6-0.1,0.8h-4.3
					c0.1,1.2,0.9,1.9,2,1.9c0.6,0,1.1-0.2,1.6-0.5l0.5,1c-0.6,0.4-1.5,0.7-2.3,0.7C-900.2,87.7-901.7,86.3-901.7,84.1z M-897.1,83.4
					c0-1.1-0.5-1.7-1.4-1.7c-0.8,0-1.5,0.6-1.6,1.7H-897.1z"/>
				<path class="st10" d="M-894.3,80.6h1.3l0.1,1.2h0c0.5-0.9,1.2-1.4,1.9-1.4c0.3,0,0.6,0,0.8,0.1l-0.3,1.4
					c-0.2-0.1-0.4-0.1-0.7-0.1c-0.5,0-1.2,0.4-1.6,1.4v4.2h-1.6V80.6z"/>
				<path class="st10" d="M-889.1,85.7v-8.1h1.6v8.2c0,0.4,0.2,0.5,0.3,0.5c0.1,0,0.1,0,0.2,0l0.2,1.2c-0.2,0.1-0.5,0.1-0.8,0.1
					C-888.7,87.7-889.1,86.9-889.1,85.7z"/>
				<path class="st10" d="M-885.8,85.6c0-1.5,1.2-2.2,4-2.5c0-0.7-0.3-1.4-1.2-1.4c-0.7,0-1.3,0.3-1.9,0.7l-0.6-1.1
					c0.7-0.5,1.7-0.9,2.8-0.9c1.7,0,2.5,1.1,2.5,3v4.1h-1.3l-0.1-0.8h0c-0.6,0.5-1.3,0.9-2.1,0.9C-884.9,87.7-885.8,86.8-885.8,85.6
					z M-881.8,85.7v-1.5c-1.8,0.2-2.4,0.7-2.4,1.4c0,0.6,0.4,0.9,1,0.9C-882.7,86.4-882.3,86.1-881.8,85.7z"/>
				<path class="st10" d="M-878.3,80.6h1.3l0.1,0.9h0c0.6-0.6,1.3-1.1,2.2-1.1c1.4,0,2.1,1,2.1,2.7v4.3h-1.6v-4.1
					c0-1.1-0.3-1.6-1.1-1.6c-0.6,0-1,0.3-1.5,0.9v4.8h-1.6V80.6z"/>
				<path class="st10" d="M-871,84.1c0-2.2,1.4-3.6,2.9-3.6c0.8,0,1.2,0.3,1.8,0.8l-0.1-1.1v-2.5h1.6v9.9h-1.3l-0.1-0.7h0
					c-0.5,0.5-1.2,0.9-1.9,0.9C-869.9,87.7-871,86.3-871,84.1z M-866.4,85.6v-3.2c-0.5-0.4-0.9-0.6-1.4-0.6c-0.9,0-1.6,0.8-1.6,2.3
					c0,1.5,0.6,2.3,1.5,2.3C-867.3,86.3-866.9,86.1-866.4,85.6z"/>
				<path class="st10" d="M-863.5,86.7l0.7-1c0.6,0.5,1.2,0.8,1.9,0.8c0.7,0,1.1-0.4,1.1-0.8c0-0.6-0.7-0.8-1.5-1.1
					c-0.9-0.3-1.9-0.9-1.9-2c0-1.2,0.9-2.1,2.5-2.1c0.9,0,1.7,0.4,2.2,0.8l-0.7,1c-0.5-0.4-0.9-0.6-1.5-0.6c-0.7,0-1,0.3-1,0.8
					c0,0.5,0.7,0.8,1.4,1c0.9,0.3,1.9,0.8,1.9,2.1c0,1.2-0.9,2.1-2.6,2.1C-861.9,87.7-862.8,87.3-863.5,86.7z"/>
				<path class="st10" d="M-854.1,86.2h2v-5.8h-1.6v-1c0.9-0.2,1.5-0.4,2-0.7h1.2v7.6h1.7v1.3h-5.3V86.2z"/>
				<path class="st10" d="M-844,81.9c0-0.5,0-1.3,0.1-1.9h-0.1c-0.2,0.5-0.5,0.9-0.7,1.4l-1.6,2.5h4.9v1.2h-6.4v-1.1l3.5-5.5h1.9
					v8.9h-1.5V81.9z"/>
				<path class="st10" d="M-840.4,86.7l0.9-1c0.3,0.4,0.9,0.7,1.4,0.7c1.1,0,2.1-0.9,2.1-3.6c0-2.2-0.7-3.1-1.7-3.1
					c-0.7,0-1.3,0.6-1.3,1.7c0,1.1,0.5,1.6,1.4,1.6c0.5,0,1.1-0.3,1.6-1.1l0.1,1.1c-0.5,0.7-1.3,1.1-2,1.1c-1.5,0-2.6-0.9-2.6-2.8
					c0-1.8,1.3-2.9,2.8-2.9c1.7,0,3.2,1.4,3.2,4.4c0,3.5-1.6,4.9-3.4,4.9C-839.1,87.7-839.9,87.2-840.4,86.7z"/>
			</g>
		</g>
		<g style="clip-path:url(#SVGID_00000143584041883067544750000008573026932145984176_);">
			<g class="st9">
				<path class="st10" d="M-274.6,416.4h1.7l2.9,5.1l1,2h0.1c-0.1-0.9-0.2-2.1-0.2-3.1v-4h1.6v9.2h-1.7l-2.9-5.2l-1-1.9h-0.1
					c0.1,1,0.2,2.1,0.2,3.1v4h-1.6V416.4z"/>
				<path class="st10" d="M-265.8,422.2c0-2.2,1.6-3.6,3.2-3.6c1.9,0,2.9,1.3,2.9,3.3c0,0.3,0,0.6-0.1,0.8h-4.4
					c0.1,1.2,0.9,1.9,2.1,1.9c0.6,0,1.1-0.2,1.6-0.5l0.6,1c-0.7,0.4-1.5,0.7-2.4,0.7C-264.3,425.8-265.8,424.4-265.8,422.2z
					 M-261.1,421.5c0-1.1-0.5-1.7-1.4-1.7c-0.8,0-1.5,0.6-1.7,1.7H-261.1z"/>
				<path class="st10" d="M-257.9,423.3V420h-1v-1.2l1.1-0.1l0.2-1.9h1.4v1.9h1.8v1.3h-1.8v3.3c0,0.8,0.3,1.2,1,1.2
					c0.2,0,0.5-0.1,0.7-0.2l0.3,1.2c-0.4,0.1-0.9,0.3-1.4,0.3C-257.3,425.8-257.9,424.8-257.9,423.3z"/>
				<path class="st10" d="M-253,415.7h1.6v2.6l-0.1,1.3c0.6-0.5,1.3-1,2.2-1c1.5,0,2.2,1,2.2,2.7v4.3h-1.6v-4.1
					c0-1.1-0.3-1.6-1.1-1.6c-0.6,0-1,0.3-1.6,0.9v4.8h-1.6V415.7z"/>
				<path class="st10" d="M-245.5,422.2c0-2.2,1.6-3.6,3.2-3.6c1.9,0,2.9,1.3,2.9,3.3c0,0.3,0,0.6-0.1,0.8h-4.4
					c0.1,1.2,0.9,1.9,2.1,1.9c0.6,0,1.1-0.2,1.6-0.5l0.6,1c-0.7,0.4-1.5,0.7-2.4,0.7C-244,425.8-245.5,424.4-245.5,422.2z
					 M-240.8,421.5c0-1.1-0.5-1.7-1.4-1.7c-0.8,0-1.5,0.6-1.7,1.7H-240.8z"/>
				<path class="st10" d="M-237.8,418.7h1.3l0.1,1.2h0c0.5-0.9,1.2-1.4,2-1.4c0.4,0,0.6,0,0.8,0.1l-0.3,1.4
					c-0.2-0.1-0.4-0.1-0.7-0.1c-0.6,0-1.2,0.4-1.7,1.4v4.2h-1.6V418.7z"/>
				<path class="st10" d="M-232.5,423.8v-8.1h1.6v8.2c0,0.4,0.2,0.5,0.4,0.5c0.1,0,0.1,0,0.3,0l0.2,1.2c-0.2,0.1-0.5,0.1-0.9,0.1
					C-232.1,425.8-232.5,425-232.5,423.8z"/>
				<path class="st10" d="M-229,423.7c0-1.5,1.2-2.2,4.1-2.5c0-0.7-0.3-1.4-1.3-1.4c-0.7,0-1.4,0.3-2,0.7l-0.6-1.1
					c0.8-0.5,1.8-0.9,2.9-0.9c1.8,0,2.6,1.1,2.6,3v4.1h-1.3l-0.1-0.8h0c-0.6,0.5-1.3,0.9-2.2,0.9C-228.2,425.8-229,424.9-229,423.7z
					 M-224.9,423.7v-1.5c-1.9,0.2-2.5,0.7-2.5,1.4c0,0.6,0.4,0.9,1,0.9C-225.9,424.5-225.4,424.2-224.9,423.7z"/>
				<path class="st10" d="M-221.3,418.7h1.3l0.1,0.9h0c0.6-0.6,1.3-1.1,2.3-1.1c1.5,0,2.2,1,2.2,2.7v4.3h-1.6v-4.1
					c0-1.1-0.3-1.6-1.1-1.6c-0.6,0-1,0.3-1.6,0.9v4.8h-1.6V418.7z"/>
				<path class="st10" d="M-213.8,422.2c0-2.2,1.4-3.6,3-3.6c0.8,0,1.3,0.3,1.8,0.8l-0.1-1.1v-2.5h1.6v9.9h-1.3l-0.1-0.7h0
					c-0.5,0.5-1.2,0.9-2,0.9C-212.6,425.8-213.8,424.4-213.8,422.2z M-209,423.6v-3.2c-0.5-0.4-1-0.6-1.4-0.6
					c-0.9,0-1.6,0.8-1.6,2.3c0,1.5,0.6,2.3,1.6,2.3C-209.9,424.4-209.5,424.2-209,423.6z"/>
				<path class="st10" d="M-206,424.8l0.8-1c0.6,0.5,1.2,0.8,1.9,0.8c0.8,0,1.1-0.4,1.1-0.8c0-0.6-0.8-0.8-1.5-1.1
					c-0.9-0.3-2-0.9-2-2c0-1.2,1-2.1,2.5-2.1c1,0,1.8,0.4,2.3,0.8l-0.8,1c-0.5-0.4-1-0.6-1.5-0.6c-0.7,0-1,0.3-1,0.8
					c0,0.5,0.7,0.8,1.5,1c0.9,0.3,2,0.8,2,2.1c0,1.2-1,2.1-2.7,2.1C-204.3,425.8-205.3,425.4-206,424.8z"/>
				<path class="st10" d="M-196.8,424.7c2.5-2.4,4.1-4,4.1-5.3c0-0.9-0.5-1.5-1.5-1.5c-0.7,0-1.3,0.5-1.8,1l-0.9-0.9
					c0.8-0.9,1.7-1.4,2.9-1.4c1.7,0,2.9,1.1,2.9,2.7c0,1.6-1.5,3.2-3.3,5.1c0.5,0,1.1-0.1,1.5-0.1h2.2v1.4h-6.1V424.7z"/>
				<path class="st10" d="M-189.5,424.7c2.5-2.4,4.1-4,4.1-5.3c0-0.9-0.5-1.5-1.5-1.5c-0.7,0-1.3,0.5-1.8,1l-0.9-0.9
					c0.8-0.9,1.7-1.4,2.9-1.4c1.7,0,2.9,1.1,2.9,2.7c0,1.6-1.5,3.2-3.3,5.1c0.5,0,1.1-0.1,1.5-0.1h2.2v1.4h-6.1V424.7z"/>
			</g>
		</g>
		<g style="clip-path:url(#SVGID_00000143584041883067544750000008573026932145984176_);">
			<g>
				<path d="M-190.4,491.4h1.7v7.8h4v1.4h-5.7V491.4z"/>
				<path d="M-183.7,497.2c0-2.3,1.6-3.6,3.4-3.6c1.8,0,3.4,1.3,3.4,3.6c0,2.3-1.6,3.6-3.4,3.6C-182,500.8-183.7,499.5-183.7,497.2z
					 M-178.6,497.2c0-1.4-0.6-2.3-1.7-2.3c-1.1,0-1.7,0.9-1.7,2.3c0,1.4,0.6,2.3,1.7,2.3C-179.2,499.5-178.6,498.6-178.6,497.2z"/>
				<path d="M-175.2,493.7h1.4l0.1,1.2h0c0.5-0.9,1.3-1.4,2-1.4c0.4,0,0.6,0,0.8,0.1l-0.3,1.4c-0.3-0.1-0.4-0.1-0.7-0.1
					c-0.6,0-1.3,0.4-1.7,1.4v4.2h-1.7V493.7z"/>
				<path d="M-170.2,497.2c0-2.2,1.6-3.6,3.3-3.6c1.9,0,3,1.3,3,3.3c0,0.3,0,0.6-0.1,0.8h-4.5c0.1,1.2,1,1.9,2.1,1.9
					c0.6,0,1.1-0.2,1.7-0.5l0.6,1c-0.7,0.4-1.5,0.7-2.5,0.7C-168.7,500.8-170.2,499.4-170.2,497.2z M-165.4,496.5
					c0-1.1-0.5-1.7-1.5-1.7c-0.8,0-1.6,0.6-1.7,1.7H-165.4z"/>
				<path d="M-162.4,493.7h1.4l0.1,0.9h0c0.6-0.6,1.3-1.1,2.2-1.1c1.1,0,1.6,0.5,2,1.2c0.7-0.7,1.4-1.2,2.3-1.2c1.5,0,2.2,1,2.2,2.7
					v4.3h-1.7v-4.1c0-1.1-0.4-1.6-1.1-1.6c-0.5,0-0.9,0.3-1.5,0.9v4.8h-1.7v-4.1c0-1.1-0.3-1.6-1.1-1.6c-0.4,0-0.9,0.3-1.5,0.9v4.8
					h-1.7V493.7z"/>
				<path d="M-147.3,491.6c0-0.5,0.4-0.9,1-0.9c0.6,0,1,0.4,1,0.9c0,0.5-0.4,0.9-1,0.9C-146.9,492.5-147.3,492.1-147.3,491.6z
					 M-147.1,493.7h1.7v6.9h-1.7V493.7z"/>
				<path d="M-143.3,493.7h1.4l0.1,0.7h0c0.6-0.5,1.4-0.9,2.2-0.9c1.8,0,2.8,1.4,2.8,3.5c0,2.4-1.5,3.7-3.1,3.7
					c-0.6,0-1.3-0.3-1.8-0.8l0.1,1.1v2.2h-1.7V493.7z M-138.5,497.1c0-1.4-0.5-2.2-1.6-2.2c-0.5,0-1,0.3-1.6,0.8v3.2
					c0.5,0.4,1,0.6,1.4,0.6C-139.3,499.4-138.5,498.6-138.5,497.1z"/>
				<path d="M-135.8,499.8l0.8-1c0.6,0.5,1.3,0.8,2,0.8c0.8,0,1.1-0.4,1.1-0.8c0-0.6-0.8-0.8-1.5-1.1c-0.9-0.3-2-0.9-2-2
					c0-1.2,1-2.1,2.6-2.1c1,0,1.8,0.4,2.4,0.8l-0.8,1c-0.5-0.4-1-0.6-1.6-0.6c-0.7,0-1.1,0.3-1.1,0.8c0,0.5,0.7,0.8,1.5,1
					c1,0.3,2.1,0.8,2.1,2.1c0,1.2-1,2.1-2.8,2.1C-134.1,500.8-135.1,500.4-135.8,499.8z"/>
				<path d="M-128.9,498v-4.3h1.7v4.1c0,1.1,0.3,1.6,1.1,1.6c0.6,0,1-0.3,1.6-1v-4.7h1.7v6.9h-1.4l-0.1-1h0
					c-0.6,0.7-1.3,1.2-2.3,1.2C-128.2,500.8-128.9,499.8-128.9,498z"/>
				<path d="M-120.7,493.7h1.4l0.1,0.9h0c0.6-0.6,1.3-1.1,2.2-1.1c1.1,0,1.6,0.5,2,1.2c0.7-0.7,1.4-1.2,2.3-1.2c1.5,0,2.2,1,2.2,2.7
					v4.3h-1.7v-4.1c0-1.1-0.4-1.6-1.1-1.6c-0.5,0-0.9,0.3-1.5,0.9v4.8h-1.7v-4.1c0-1.1-0.3-1.6-1.1-1.6c-0.4,0-0.9,0.3-1.5,0.9v4.8
					h-1.7V493.7z"/>
			</g>
		</g>
	</g>
</g>
<rect x="3.4" y="31.7" class="st11" width="349" height="350"/>
<g transform="translate(100,40)">
	<line class="st12" x1="3.1" y1="31.7" x2="3.1" y2="25.7"/>
</g>
<g id="Belgium_00000016060984917926185130000005237808728006204824_">
	<line class="st13" x1="103.1" y1="148" x2="252.7" y2="339.7"/>
	<ellipse class="st14" cx="103.1" cy="148" rx="2.5" ry="2.5"/>
	<ellipse class="st14" cx="252.7" cy="339.7" rx="2.5" ry="2.5"/>
</g>
<g id="France_00000178196551077707057630000009176969618291499673_">
	<line class="st3" x1="103.1" y1="71.7" x2="252.7" y2="371.7"/>
	<ellipse class="st4" cx="103.1" cy="71.7" rx="2.5" ry="2.5"/>
	<ellipse class="st4" cx="252.7" cy="371.7" rx="2.5" ry="2.5"/>
</g>
<g id="Germany_00000052098285237364375260000000259649167703323291_">
	<line class="st5" x1="103.1" y1="87.7" x2="252.7" y2="325.5"/>
	<ellipse class="st6" cx="103.1" cy="87.7" rx="2.5" ry="2.5"/>
	<ellipse class="st6" cx="252.7" cy="325.5" rx="2.5" ry="2.5"/>
</g>
<g id="Netherlands_00000087401325293377902850000007975353441865647237_">
	<line class="st15" x1="103.1" y1="109" x2="252.7" y2="334.4"/>
	<ellipse class="st16" cx="103.1" cy="109" rx="2.5" ry="2.5"/>
	<ellipse class="st16" cx="252.7" cy="334.4" rx="2.5" ry="2.5"/>
</g>
<g>
	<g class="st9">
		<path class="st10" d="M24.3,142.2h2.9c1.9,0,3.3,0.6,3.3,2.3c0,0.9-0.5,1.7-1.3,2v0.1c1,0.2,1.8,0.9,1.8,2.2
			c0,1.8-1.5,2.7-3.5,2.7h-3.2V142.2z M27.1,145.9c1.3,0,1.8-0.5,1.8-1.3c0-0.9-0.6-1.2-1.8-1.2H26v2.5H27.1z M27.3,150.1
			c1.3,0,2.1-0.5,2.1-1.5c0-1-0.7-1.4-2.1-1.4H26v2.9H27.3z"/>
		<path class="st10" d="M32.1,147.9c0-2.2,1.5-3.6,3.2-3.6c1.9,0,2.8,1.3,2.8,3.3c0,0.3,0,0.6-0.1,0.8h-4.4c0.1,1.2,0.9,1.9,2,1.9
			c0.6,0,1.1-0.2,1.6-0.5l0.5,1c-0.7,0.4-1.5,0.7-2.4,0.7C33.6,151.5,32.1,150.2,32.1,147.9z M36.7,147.2c0-1.1-0.5-1.7-1.4-1.7
			c-0.8,0-1.5,0.6-1.6,1.7H36.7z"/>
		<path class="st10" d="M39.6,149.5v-8.1h1.6v8.2c0,0.4,0.2,0.5,0.3,0.5c0.1,0,0.1,0,0.3,0l0.2,1.2c-0.2,0.1-0.5,0.1-0.8,0.1
			C40,151.5,39.6,150.7,39.6,149.5z"/>
		<path class="st10" d="M42.9,152.6c0-0.6,0.4-1.1,1-1.5V151c-0.4-0.2-0.6-0.6-0.6-1.1c0-0.5,0.4-1,0.8-1.3v-0.1
			c-0.5-0.3-0.9-1-0.9-1.8c0-1.6,1.3-2.5,2.7-2.5c0.4,0,0.7,0.1,1,0.2h2.5v1.2h-1.3c0.2,0.3,0.4,0.7,0.4,1.2c0,1.5-1.2,2.3-2.6,2.3
			c-0.3,0-0.6-0.1-0.9-0.2c-0.2,0.2-0.3,0.4-0.3,0.7c0,0.4,0.3,0.6,1.1,0.6h1.2c1.6,0,2.5,0.5,2.5,1.7c0,1.4-1.4,2.4-3.7,2.4
			C44.1,154.4,42.9,153.8,42.9,152.6z M47.9,152.2c0-0.5-0.4-0.7-1.2-0.7h-0.9c-0.4,0-0.7,0-0.9-0.1c-0.4,0.3-0.5,0.6-0.5,0.9
			c0,0.6,0.7,1,1.7,1C47.1,153.3,47.9,152.8,47.9,152.2z M47,146.7c0-0.9-0.5-1.4-1.2-1.4c-0.7,0-1.2,0.5-1.2,1.4
			c0,0.9,0.5,1.4,1.2,1.4C46.5,148.1,47,147.6,47,146.7z"/>
		<path class="st10" d="M50.5,142.3c0-0.5,0.4-0.9,1-0.9c0.6,0,1,0.4,1,0.9c0,0.5-0.4,0.9-1,0.9C50.9,143.2,50.5,142.9,50.5,142.3z
			 M50.6,144.4h1.6v6.9h-1.6V144.4z"/>
		<path class="st10" d="M54.2,148.8v-4.3h1.6v4.1c0,1.1,0.3,1.6,1.1,1.6c0.6,0,1-0.3,1.5-1v-4.7H60v6.9h-1.3l-0.1-1h0
			c-0.6,0.7-1.3,1.2-2.2,1.2C54.9,151.5,54.2,150.5,54.2,148.8z"/>
		<path class="st10" d="M62.1,144.4h1.3l0.1,0.9h0c0.6-0.6,1.2-1.1,2.1-1.1c1,0,1.6,0.5,1.9,1.2c0.7-0.7,1.3-1.2,2.2-1.2
			c1.4,0,2.1,1,2.1,2.7v4.3h-1.6v-4.1c0-1.1-0.3-1.6-1.1-1.6c-0.4,0-0.9,0.3-1.4,0.9v4.8h-1.6v-4.1c0-1.1-0.3-1.6-1.1-1.6
			c-0.4,0-0.9,0.3-1.4,0.9v4.8h-1.6V144.4z"/>
		<path class="st10" d="M76.6,150h2v-5.8H77v-1c0.9-0.2,1.5-0.4,2-0.7h1.2v7.6H82v1.3h-5.3V150z"/>
		<path class="st10" d="M83.3,150.4c2.5-2.4,4-4,4-5.3c0-0.9-0.5-1.5-1.5-1.5c-0.7,0-1.3,0.5-1.7,1l-0.9-0.9
			c0.8-0.9,1.6-1.4,2.8-1.4c1.7,0,2.8,1.1,2.8,2.7c0,1.6-1.5,3.2-3.2,5.1c0.5,0,1.1-0.1,1.5-0.1h2.2v1.4h-6V150.4z"/>
		<path class="st10" d="M94.7,143.8h-4.2v-1.4h6v1c-2.1,2.6-2.4,4.4-2.6,7.9h-1.6C92.4,148.2,93,146.2,94.7,143.8z"/>
	</g>
</g>
<g>
	<g class="st9">
		<path class="st10" d="M260.2,339.8h2.9c1.9,0,3.3,0.6,3.3,2.3c0,0.9-0.5,1.7-1.3,2v0.1c1,0.2,1.8,0.9,1.8,2.2
			c0,1.8-1.5,2.7-3.5,2.7h-3.2V339.8z M263,343.5c1.3,0,1.8-0.5,1.8-1.3c0-0.9-0.6-1.2-1.8-1.2h-1.2v2.5H263z M263.2,347.7
			c1.3,0,2.1-0.5,2.1-1.5c0-1-0.7-1.4-2.1-1.4h-1.4v2.9H263.2z"/>
		<path class="st10" d="M267.9,345.5c0-2.2,1.5-3.6,3.2-3.6c1.9,0,2.8,1.3,2.8,3.3c0,0.3,0,0.6-0.1,0.8h-4.4c0.1,1.2,0.9,1.9,2,1.9
			c0.6,0,1.1-0.2,1.6-0.5l0.5,1c-0.7,0.4-1.5,0.7-2.4,0.7C269.4,349.1,267.9,347.8,267.9,345.5z M272.5,344.8c0-1.1-0.5-1.7-1.4-1.7
			c-0.8,0-1.5,0.6-1.6,1.7H272.5z"/>
		<path class="st10" d="M275.4,347.2V339h1.6v8.2c0,0.4,0.2,0.5,0.3,0.5c0.1,0,0.1,0,0.3,0l0.2,1.2c-0.2,0.1-0.5,0.1-0.8,0.1
			C275.9,349.1,275.4,348.3,275.4,347.2z"/>
		<path class="st10" d="M278.8,350.2c0-0.6,0.4-1.1,1-1.5v-0.1c-0.4-0.2-0.6-0.6-0.6-1.1c0-0.5,0.4-1,0.8-1.3v-0.1
			c-0.5-0.3-0.9-1-0.9-1.8c0-1.6,1.3-2.5,2.7-2.5c0.4,0,0.7,0.1,1,0.2h2.5v1.2h-1.3c0.2,0.3,0.4,0.7,0.4,1.2c0,1.5-1.2,2.3-2.6,2.3
			c-0.3,0-0.6-0.1-0.9-0.2c-0.2,0.2-0.3,0.3-0.3,0.7c0,0.4,0.3,0.6,1.1,0.6h1.2c1.6,0,2.5,0.5,2.5,1.7c0,1.4-1.4,2.4-3.7,2.4
			C280,352,278.8,351.4,278.8,350.2z M283.7,349.8c0-0.5-0.4-0.7-1.2-0.7h-0.9c-0.4,0-0.7,0-0.9-0.1c-0.4,0.3-0.5,0.6-0.5,0.9
			c0,0.6,0.7,1,1.7,1C283,350.9,283.7,350.4,283.7,349.8z M282.9,344.3c0-0.9-0.5-1.4-1.2-1.4c-0.7,0-1.2,0.5-1.2,1.4
			c0,0.9,0.5,1.4,1.2,1.4C282.4,345.7,282.9,345.2,282.9,344.3z"/>
		<path class="st10" d="M286.3,339.9c0-0.5,0.4-0.9,1-0.9c0.6,0,1,0.4,1,0.9c0,0.5-0.4,0.9-1,0.9
			C286.7,340.8,286.3,340.5,286.3,339.9z M286.5,342h1.6v6.9h-1.6V342z"/>
		<path class="st10" d="M290.1,346.4V342h1.6v4.1c0,1.1,0.3,1.6,1.1,1.6c0.6,0,1-0.3,1.5-1V342h1.6v6.9h-1.3l-0.1-1h0
			c-0.6,0.7-1.3,1.2-2.2,1.2C290.7,349.1,290.1,348.1,290.1,346.4z"/>
		<path class="st10" d="M297.9,342h1.3l0.1,0.9h0c0.6-0.6,1.2-1.1,2.1-1.1c1,0,1.6,0.5,1.9,1.2c0.7-0.7,1.3-1.2,2.2-1.2
			c1.4,0,2.1,1,2.1,2.7v4.3h-1.6v-4.1c0-1.1-0.3-1.6-1.1-1.6c-0.4,0-0.9,0.3-1.4,0.9v4.8H302v-4.1c0-1.1-0.3-1.6-1.1-1.6
			c-0.4,0-0.9,0.3-1.4,0.9v4.8h-1.6V342z"/>
		<path class="st10" d="M312.5,347.6h2v-5.8h-1.6v-1c0.9-0.2,1.5-0.4,2-0.7h1.2v7.6h1.7v1.3h-5.3V347.6z"/>
		<path class="st10" d="M319.3,348.1l0.9-1c0.3,0.4,0.9,0.7,1.4,0.7c1.2,0,2.1-0.9,2.1-3.6c0-2.2-0.7-3.1-1.7-3.1
			c-0.7,0-1.3,0.6-1.3,1.7c0,1.1,0.5,1.6,1.4,1.6c0.5,0,1.1-0.3,1.6-1.1l0.1,1.1c-0.5,0.7-1.3,1.1-2,1.1c-1.5,0-2.6-0.9-2.6-2.8
			c0-1.8,1.3-2.9,2.8-2.9c1.7,0,3.2,1.4,3.2,4.4c0,3.5-1.7,4.9-3.5,4.9C320.6,349.1,319.8,348.6,319.3,348.1z"/>
	</g>
</g>
<g>
	<g class="st9">
		<path class="st10" d="M34.1,66.7h5.5v1.4h-3.9v2.6H39V72h-3.3v3.8h-1.6V66.7z"/>
		<path class="st10" d="M41.1,69h1.3l0.1,1.2h0c0.5-0.9,1.2-1.4,1.9-1.4c0.3,0,0.6,0,0.8,0.1L45,70.3c-0.2-0.1-0.4-0.1-0.7-0.1
			c-0.5,0-1.2,0.4-1.6,1.4v4.2h-1.6V69z"/>
		<path class="st10" d="M45.9,74c0-1.5,1.2-2.2,4-2.5c0-0.7-0.3-1.4-1.2-1.4c-0.7,0-1.3,0.3-1.9,0.7l-0.6-1.1
			c0.8-0.5,1.7-0.9,2.8-0.9c1.7,0,2.6,1.1,2.6,3v4.1h-1.3l-0.1-0.8h0c-0.6,0.5-1.3,0.9-2.1,0.9C46.7,76,45.9,75.2,45.9,74z M49.9,74
			v-1.5c-1.9,0.2-2.5,0.7-2.5,1.4c0,0.6,0.4,0.9,1,0.9C49,74.7,49.4,74.5,49.9,74z"/>
		<path class="st10" d="M53.5,69h1.3l0.1,0.9h0c0.6-0.6,1.3-1.1,2.2-1.1c1.5,0,2.1,1,2.1,2.7v4.3h-1.6v-4.1c0-1.1-0.3-1.6-1.1-1.6
			c-0.6,0-1,0.3-1.6,0.9v4.8h-1.6V69z"/>
		<path class="st10" d="M60.8,72.4c0-2.3,1.6-3.6,3.4-3.6c0.9,0,1.5,0.3,2,0.8l-0.8,1c-0.4-0.3-0.7-0.5-1.1-0.5
			c-1.1,0-1.9,0.9-1.9,2.3s0.8,2.3,1.8,2.3c0.5,0,1-0.3,1.4-0.6l0.7,1.1c-0.6,0.6-1.5,0.8-2.2,0.8C62.3,76,60.8,74.7,60.8,72.4z"/>
		<path class="st10" d="M67.3,72.4c0-2.2,1.5-3.6,3.2-3.6c1.9,0,2.8,1.3,2.8,3.3c0,0.3,0,0.6-0.1,0.8h-4.4c0.1,1.2,0.9,1.9,2,1.9
			c0.6,0,1.1-0.2,1.6-0.5l0.5,1c-0.7,0.4-1.5,0.7-2.4,0.7C68.8,76,67.3,74.7,67.3,72.4z M71.9,71.7c0-1.1-0.5-1.7-1.4-1.7
			c-0.8,0-1.5,0.6-1.6,1.7H71.9z"/>
		<path class="st10" d="M77.6,74.5h2v-5.8H78v-1c0.9-0.2,1.5-0.4,2-0.7h1.2v7.6H83v1.3h-5.3V74.5z"/>
		<path class="st10" d="M88.6,68.3h-4.2v-1.4h6v1c-2.1,2.6-2.4,4.4-2.6,7.9h-1.6C86.2,72.7,86.8,70.7,88.6,68.3z"/>
		<path class="st10" d="M91.5,71.4c0-3,1.2-4.6,3-4.6s3,1.6,3,4.6c0,3-1.2,4.7-3,4.7S91.5,74.4,91.5,71.4z M96,71.4
			c0-2.5-0.6-3.3-1.5-3.3c-0.9,0-1.5,0.8-1.5,3.3s0.6,3.4,1.5,3.4C95.3,74.7,96,73.9,96,71.4z"/>
	</g>
</g>
<g>
	<g class="st9">
		<path class="st10" d="M260.2,367.5h5.5v1.4h-3.9v2.6h3.3v1.4h-3.3v3.8h-1.6V367.5z"/>
		<path class="st10" d="M267.2,369.8h1.3l0.1,1.2h0c0.5-0.9,1.2-1.4,1.9-1.4c0.3,0,0.6,0,0.8,0.1l-0.3,1.4c-0.2-0.1-0.4-0.1-0.7-0.1
			c-0.5,0-1.2,0.4-1.6,1.4v4.2h-1.6V369.8z"/>
		<path class="st10" d="M272,374.8c0-1.5,1.2-2.2,4-2.5c0-0.7-0.3-1.4-1.2-1.4c-0.7,0-1.3,0.3-1.9,0.7l-0.6-1.1
			c0.8-0.5,1.7-0.9,2.8-0.9c1.7,0,2.6,1.1,2.6,3v4.1h-1.3l-0.1-0.8h0c-0.6,0.5-1.3,0.9-2.1,0.9C272.8,376.8,272,376,272,374.8z
			 M276,374.8v-1.5c-1.9,0.2-2.5,0.7-2.5,1.4c0,0.6,0.4,0.9,1,0.9C275.1,375.6,275.5,375.3,276,374.8z"/>
		<path class="st10" d="M279.6,369.8h1.3l0.1,0.9h0c0.6-0.6,1.3-1.1,2.2-1.1c1.5,0,2.1,1,2.1,2.7v4.3h-1.6v-4.1
			c0-1.1-0.3-1.6-1.1-1.6c-0.6,0-1,0.3-1.6,0.9v4.8h-1.6V369.8z"/>
		<path class="st10" d="M286.9,373.2c0-2.3,1.6-3.6,3.4-3.6c0.9,0,1.5,0.3,2,0.8l-0.8,1c-0.4-0.3-0.7-0.5-1.1-0.5
			c-1.1,0-1.9,0.9-1.9,2.3c0,1.4,0.8,2.3,1.8,2.3c0.5,0,1-0.3,1.4-0.6l0.7,1.1c-0.6,0.6-1.5,0.8-2.2,0.8
			C288.4,376.8,286.9,375.5,286.9,373.2z"/>
		<path class="st10" d="M293.4,373.2c0-2.2,1.5-3.6,3.2-3.6c1.9,0,2.8,1.3,2.8,3.3c0,0.3,0,0.6-0.1,0.8h-4.4c0.1,1.2,0.9,1.9,2,1.9
			c0.6,0,1.1-0.2,1.6-0.5l0.5,1c-0.7,0.4-1.5,0.7-2.4,0.7C294.9,376.8,293.4,375.5,293.4,373.2z M298,372.6c0-1.1-0.5-1.7-1.4-1.7
			c-0.8,0-1.5,0.6-1.6,1.7H298z"/>
		<path class="st10" d="M303.7,375.4h2v-5.8h-1.6v-1c0.9-0.2,1.5-0.4,2-0.7h1.2v7.6h1.7v1.3h-5.3V375.4z"/>
	</g>
</g>
<g>
	<g class="st9">
		<path class="st10" d="M18.7,86.4c0-3,1.9-4.8,4.3-4.8c1.3,0,2.2,0.6,2.8,1.2l-0.9,1c-0.5-0.4-1-0.8-1.8-0.8
			c-1.6,0-2.7,1.3-2.7,3.3c0,2.1,1,3.4,2.8,3.4c0.5,0,1-0.1,1.3-0.4v-2h-1.7v-1.3H26v4c-0.6,0.6-1.7,1.1-2.9,1.1
			C20.6,91.1,18.7,89.4,18.7,86.4z"/>
		<path class="st10" d="M27.4,87.5c0-2.2,1.5-3.6,3.2-3.6c1.9,0,2.8,1.3,2.8,3.3c0,0.3,0,0.6-0.1,0.8H29c0.1,1.2,0.9,1.9,2,1.9
			c0.6,0,1.1-0.2,1.6-0.5l0.5,1c-0.7,0.4-1.5,0.7-2.4,0.7C28.9,91.1,27.4,89.7,27.4,87.5z M32,86.8c0-1.1-0.5-1.7-1.4-1.7
			c-0.8,0-1.5,0.6-1.6,1.7H32z"/>
		<path class="st10" d="M34.9,84h1.3l0.1,1.2h0c0.5-0.9,1.2-1.4,1.9-1.4c0.3,0,0.6,0,0.8,0.1l-0.3,1.4c-0.2-0.1-0.4-0.1-0.7-0.1
			c-0.5,0-1.2,0.4-1.6,1.4v4.2h-1.6V84z"/>
		<path class="st10" d="M40.1,84h1.3l0.1,0.9h0c0.6-0.6,1.2-1.1,2.1-1.1c1,0,1.6,0.5,1.9,1.2c0.7-0.7,1.3-1.2,2.2-1.2
			c1.4,0,2.1,1,2.1,2.7v4.3h-1.6v-4.1c0-1.1-0.3-1.6-1.1-1.6c-0.4,0-0.9,0.3-1.4,0.9v4.8h-1.6v-4.1c0-1.1-0.3-1.6-1.1-1.6
			c-0.4,0-0.9,0.3-1.4,0.9v4.8h-1.6V84z"/>
		<path class="st10" d="M51.5,89.1c0-1.5,1.2-2.2,4-2.5c0-0.7-0.3-1.4-1.2-1.4c-0.7,0-1.3,0.3-1.9,0.7l-0.6-1.1
			c0.8-0.5,1.7-0.9,2.8-0.9c1.7,0,2.6,1.1,2.6,3v4.1h-1.3l-0.1-0.8h0c-0.6,0.5-1.3,0.9-2.1,0.9C52.4,91.1,51.5,90.3,51.5,89.1z
			 M55.6,89.1v-1.5c-1.9,0.2-2.5,0.7-2.5,1.4c0,0.6,0.4,0.9,1,0.9C54.6,89.8,55.1,89.5,55.6,89.1z"/>
		<path class="st10" d="M59.1,84h1.3l0.1,0.9h0c0.6-0.6,1.3-1.1,2.2-1.1c1.5,0,2.1,1,2.1,2.7v4.3h-1.6v-4.1c0-1.1-0.3-1.6-1.1-1.6
			c-0.6,0-1,0.3-1.6,0.9v4.8h-1.6V84z"/>
		<path class="st10" d="M66.5,93.6l0.3-1.2c0.1,0,0.3,0.1,0.5,0.1c0.7,0,1.1-0.5,1.4-1.2l0.1-0.4L66.1,84h1.6l1.2,3.4
			c0.2,0.6,0.4,1.3,0.6,1.9h0.1c0.2-0.6,0.3-1.3,0.5-1.9l1-3.4h1.6l-2.5,7.2c-0.6,1.5-1.3,2.5-2.8,2.5C67,93.7,66.7,93.7,66.5,93.6z
			"/>
		<path class="st10" d="M76.6,89.6h2v-5.8H77v-1c0.9-0.2,1.5-0.4,2-0.7h1.2v7.6H82v1.3h-5.3V89.6z"/>
		<path class="st10" d="M83.4,86.7c0-3.5,1.7-4.9,3.5-4.9c1.1,0,1.8,0.5,2.4,1l-0.9,1c-0.3-0.4-0.9-0.7-1.4-0.7
			c-1.2,0-2.1,0.9-2.1,3.6c0,2.2,0.7,3.1,1.7,3.1c0.7,0,1.3-0.6,1.3-1.7c0-1.1-0.5-1.6-1.4-1.6c-0.5,0-1.1,0.3-1.6,1.1l-0.1-1.1
			c0.5-0.7,1.3-1.1,2-1.1c1.5,0,2.6,0.9,2.6,2.8c0,1.8-1.3,2.9-2.8,2.9C84.9,91.1,83.4,89.7,83.4,86.7z"/>
		<path class="st10" d="M91,89.6h2v-5.8h-1.6v-1c0.9-0.2,1.5-0.4,2-0.7h1.2v7.6h1.7v1.3H91V89.6z"/>
	</g>
</g>
<g>
	<g class="st9">
		<path class="st10" d="M259.7,323c0-3,1.9-4.8,4.3-4.8c1.3,0,2.2,0.6,2.8,1.2l-0.9,1c-0.5-0.4-1-0.8-1.8-0.8
			c-1.6,0-2.7,1.3-2.7,3.3c0,2.1,1,3.4,2.8,3.4c0.5,0,1-0.1,1.3-0.4v-2h-1.7v-1.3h3.2v4c-0.6,0.6-1.7,1.1-2.9,1.1
			C261.5,327.7,259.7,326,259.7,323z"/>
		<path class="st10" d="M268.4,324.1c0-2.2,1.5-3.6,3.2-3.6c1.9,0,2.8,1.3,2.8,3.3c0,0.3,0,0.6-0.1,0.8h-4.4c0.1,1.2,0.9,1.9,2,1.9
			c0.6,0,1.1-0.2,1.6-0.5l0.5,1c-0.7,0.4-1.5,0.7-2.4,0.7C269.8,327.7,268.4,326.4,268.4,324.1z M273,323.4c0-1.1-0.5-1.7-1.4-1.7
			c-0.8,0-1.5,0.6-1.6,1.7H273z"/>
		<path class="st10" d="M275.9,320.6h1.3l0.1,1.2h0c0.5-0.9,1.2-1.4,1.9-1.4c0.3,0,0.6,0,0.8,0.1l-0.3,1.4c-0.2-0.1-0.4-0.1-0.7-0.1
			c-0.5,0-1.2,0.4-1.6,1.4v4.2h-1.6V320.6z"/>
		<path class="st10" d="M281.1,320.6h1.3l0.1,0.9h0c0.6-0.6,1.2-1.1,2.1-1.1c1,0,1.6,0.5,1.9,1.2c0.7-0.7,1.3-1.2,2.2-1.2
			c1.4,0,2.1,1,2.1,2.7v4.3h-1.6v-4.1c0-1.1-0.3-1.6-1.1-1.6c-0.4,0-0.9,0.3-1.4,0.9v4.8h-1.6v-4.1c0-1.1-0.3-1.6-1.1-1.6
			c-0.4,0-0.9,0.3-1.4,0.9v4.8h-1.6V320.6z"/>
		<path class="st10" d="M292.5,325.7c0-1.5,1.2-2.2,4-2.5c0-0.7-0.3-1.4-1.2-1.4c-0.7,0-1.3,0.3-1.9,0.7l-0.6-1.1
			c0.8-0.5,1.7-0.9,2.8-0.9c1.7,0,2.6,1.1,2.6,3v4.1h-1.3l-0.1-0.8h0c-0.6,0.5-1.3,0.9-2.1,0.9C293.3,327.7,292.5,326.9,292.5,325.7
			z M296.5,325.7v-1.5c-1.9,0.2-2.5,0.7-2.5,1.4c0,0.6,0.4,0.9,1,0.9C295.6,326.4,296,326.1,296.5,325.7z"/>
		<path class="st10" d="M300.1,320.6h1.3l0.1,0.9h0c0.6-0.6,1.3-1.1,2.2-1.1c1.5,0,2.1,1,2.1,2.7v4.3h-1.6v-4.1
			c0-1.1-0.3-1.6-1.1-1.6c-0.6,0-1,0.3-1.6,0.9v4.8h-1.6V320.6z"/>
		<path class="st10" d="M307.4,330.2l0.3-1.2c0.1,0,0.3,0.1,0.5,0.1c0.7,0,1.1-0.5,1.4-1.2l0.1-0.4l-2.7-6.8h1.6l1.2,3.4
			c0.2,0.6,0.4,1.3,0.6,1.9h0.1c0.2-0.6,0.3-1.3,0.5-1.9l1-3.4h1.6l-2.5,7.2c-0.6,1.5-1.3,2.5-2.8,2.5
			C308,330.3,307.7,330.3,307.4,330.2z"/>
		<path class="st10" d="M317.1,326.6c2.5-2.4,4-4,4-5.3c0-0.9-0.5-1.5-1.5-1.5c-0.7,0-1.3,0.5-1.7,1l-0.9-0.9
			c0.8-0.9,1.6-1.4,2.8-1.4c1.7,0,2.8,1.1,2.8,2.7c0,1.6-1.5,3.2-3.2,5.1c0.5,0,1.1-0.1,1.5-0.1h2.2v1.4h-6V326.6z"/>
		<path class="st10" d="M328.5,320h-4.2v-1.4h6v1c-2.1,2.6-2.4,4.4-2.6,7.9h-1.6C326.2,324.4,326.8,322.4,328.5,320z"/>
	</g>
</g>
<g>
	<g class="st9">
		<path class="st10" d="M0.1,102.7h1.7l2.8,5.1l0.9,2h0.1c-0.1-0.9-0.2-2.1-0.2-3.1v-4h1.5v9.2H5.2l-2.8-5.2l-0.9-1.9H1.4
			c0.1,1,0.2,2.1,0.2,3.1v4H0.1V102.7z"/>
		<path class="st10" d="M8.6,108.5c0-2.2,1.5-3.6,3.2-3.6c1.9,0,2.8,1.3,2.8,3.3c0,0.3,0,0.6-0.1,0.8h-4.4c0.1,1.2,0.9,1.9,2,1.9
			c0.6,0,1.1-0.2,1.6-0.5l0.5,1c-0.7,0.4-1.5,0.7-2.4,0.7C10.1,112.1,8.6,110.7,8.6,108.5z M13.2,107.8c0-1.1-0.5-1.7-1.4-1.7
			c-0.8,0-1.5,0.6-1.6,1.7H13.2z"/>
		<path class="st10" d="M16.4,109.6v-3.3h-1v-1.2l1.1-0.1l0.2-1.9H18v1.9h1.7v1.3H18v3.3c0,0.8,0.3,1.2,1,1.2c0.2,0,0.5-0.1,0.7-0.2
			l0.3,1.2c-0.4,0.1-0.9,0.3-1.4,0.3C17,112.1,16.4,111.1,16.4,109.6z"/>
		<path class="st10" d="M21.2,102h1.6v2.6l-0.1,1.3c0.6-0.5,1.3-1,2.2-1c1.5,0,2.1,1,2.1,2.7v4.3h-1.6v-4.1c0-1.1-0.3-1.6-1.1-1.6
			c-0.6,0-1,0.3-1.6,0.9v4.8h-1.6V102z"/>
		<path class="st10" d="M28.5,108.5c0-2.2,1.5-3.6,3.2-3.6c1.9,0,2.8,1.3,2.8,3.3c0,0.3,0,0.6-0.1,0.8h-4.4c0.1,1.2,0.9,1.9,2,1.9
			c0.6,0,1.1-0.2,1.6-0.5l0.5,1c-0.7,0.4-1.5,0.7-2.4,0.7C30,112.1,28.5,110.7,28.5,108.5z M33.1,107.8c0-1.1-0.5-1.7-1.4-1.7
			c-0.8,0-1.5,0.6-1.6,1.7H33.1z"/>
		<path class="st10" d="M36.1,105h1.3l0.1,1.2h0c0.5-0.9,1.2-1.4,1.9-1.4c0.3,0,0.6,0,0.8,0.1l-0.3,1.4c-0.2-0.1-0.4-0.1-0.7-0.1
			c-0.5,0-1.2,0.4-1.6,1.4v4.2h-1.6V105z"/>
		<path class="st10" d="M41.3,110.1V102h1.6v8.2c0,0.4,0.2,0.5,0.3,0.5c0.1,0,0.1,0,0.3,0l0.2,1.2c-0.2,0.1-0.5,0.1-0.8,0.1
			C41.7,112.1,41.3,111.3,41.3,110.1z"/>
		<path class="st10" d="M44.7,110c0-1.5,1.2-2.2,4-2.5c0-0.7-0.3-1.4-1.2-1.4c-0.7,0-1.3,0.3-1.9,0.7l-0.6-1.1
			c0.8-0.5,1.7-0.9,2.8-0.9c1.7,0,2.6,1.1,2.6,3v4.1H49l-0.1-0.8h0c-0.6,0.5-1.3,0.9-2.1,0.9C45.5,112.1,44.7,111.2,44.7,110z
			 M48.7,110v-1.5c-1.9,0.2-2.5,0.7-2.5,1.4c0,0.6,0.4,0.9,1,0.9C47.8,110.8,48.2,110.5,48.7,110z"/>
		<path class="st10" d="M52.3,105h1.3l0.1,0.9h0c0.6-0.6,1.3-1.1,2.2-1.1c1.5,0,2.1,1,2.1,2.7v4.3h-1.6v-4.1c0-1.1-0.3-1.6-1.1-1.6
			c-0.6,0-1,0.3-1.6,0.9v4.8h-1.6V105z"/>
		<path class="st10" d="M59.7,108.5c0-2.2,1.4-3.6,2.9-3.6c0.8,0,1.3,0.3,1.8,0.8l-0.1-1.1V102h1.6v9.9h-1.3l-0.1-0.7h0
			c-0.5,0.5-1.2,0.9-1.9,0.9C60.8,112.1,59.7,110.7,59.7,108.5z M64.3,110v-3.2c-0.5-0.4-0.9-0.6-1.4-0.6c-0.9,0-1.6,0.8-1.6,2.3
			c0,1.5,0.6,2.3,1.6,2.3C63.4,110.7,63.9,110.5,64.3,110z"/>
		<path class="st10" d="M67.3,111.1l0.7-1c0.6,0.5,1.2,0.8,1.9,0.8c0.7,0,1.1-0.4,1.1-0.8c0-0.6-0.7-0.8-1.5-1.1
			c-0.9-0.3-1.9-0.9-1.9-2c0-1.2,1-2.1,2.5-2.1c1,0,1.7,0.4,2.3,0.8l-0.7,1c-0.5-0.4-1-0.6-1.5-0.6c-0.7,0-1,0.3-1,0.8
			c0,0.5,0.7,0.8,1.4,1c0.9,0.3,2,0.8,2,2.1c0,1.2-0.9,2.1-2.7,2.1C68.9,112.1,67.9,111.7,67.3,111.1z"/>
		<path class="st10" d="M76.8,110.6h2v-5.8h-1.6v-1c0.9-0.2,1.5-0.4,2-0.7h1.2v7.6h1.7v1.3h-5.3V110.6z"/>
		<path class="st10" d="M87.1,106.3c0-0.5,0-1.3,0.1-1.9h-0.1c-0.2,0.5-0.5,0.9-0.7,1.4l-1.6,2.5h4.9v1.2h-6.5v-1.1l3.5-5.5h1.9v8.9
			h-1.5V106.3z"/>
		<path class="st10" d="M90.7,111l0.9-1c0.3,0.4,0.9,0.7,1.4,0.7c1.2,0,2.1-0.9,2.1-3.6c0-2.2-0.7-3.1-1.7-3.1
			c-0.7,0-1.3,0.6-1.3,1.7c0,1.1,0.5,1.6,1.4,1.6c0.5,0,1.1-0.3,1.6-1.1l0.1,1.1c-0.5,0.7-1.3,1.1-2,1.1c-1.5,0-2.6-0.9-2.6-2.8
			c0-1.8,1.3-2.9,2.8-2.9c1.7,0,3.2,1.4,3.2,4.4c0,3.5-1.7,4.9-3.5,4.9C92,112.1,91.2,111.6,90.7,111z"/>
	</g>
</g>
<g>
	<g class="st9">
		<path class="st10" d="M260.2,329.1h1.7l2.8,5.1l0.9,2h0.1c-0.1-0.9-0.2-2.1-0.2-3.1v-4h1.5v9.2h-1.7l-2.8-5.2l-0.9-1.9h-0.1
			c0.1,1,0.2,2.1,0.2,3.1v4h-1.5V329.1z"/>
		<path class="st10" d="M268.7,334.8c0-2.2,1.5-3.6,3.2-3.6c1.9,0,2.8,1.3,2.8,3.3c0,0.3,0,0.6-0.1,0.8h-4.4c0.1,1.2,0.9,1.9,2,1.9
			c0.6,0,1.1-0.2,1.6-0.5l0.5,1c-0.7,0.4-1.5,0.7-2.4,0.7C270.2,338.4,268.7,337.1,268.7,334.8z M273.3,334.1c0-1.1-0.5-1.7-1.4-1.7
			c-0.8,0-1.5,0.6-1.6,1.7H273.3z"/>
		<path class="st10" d="M276.5,335.9v-3.3h-1v-1.2l1.1-0.1l0.2-1.9h1.3v1.9h1.7v1.3h-1.7v3.3c0,0.8,0.3,1.2,1,1.2
			c0.2,0,0.5-0.1,0.7-0.2l0.3,1.2c-0.4,0.1-0.9,0.3-1.4,0.3C277.1,338.4,276.5,337.4,276.5,335.9z"/>
		<path class="st10" d="M281.3,328.3h1.6v2.6l-0.1,1.3c0.6-0.5,1.3-1,2.2-1c1.5,0,2.1,1,2.1,2.7v4.3h-1.6v-4.1
			c0-1.1-0.3-1.6-1.1-1.6c-0.6,0-1,0.3-1.6,0.9v4.8h-1.6V328.3z"/>
		<path class="st10" d="M288.6,334.8c0-2.2,1.5-3.6,3.2-3.6c1.9,0,2.8,1.3,2.8,3.3c0,0.3,0,0.6-0.1,0.8h-4.4c0.1,1.2,0.9,1.9,2,1.9
			c0.6,0,1.1-0.2,1.6-0.5l0.5,1c-0.7,0.4-1.5,0.7-2.4,0.7C290.1,338.4,288.6,337.1,288.6,334.8z M293.3,334.1c0-1.1-0.5-1.7-1.4-1.7
			c-0.8,0-1.5,0.6-1.6,1.7H293.3z"/>
		<path class="st10" d="M296.2,331.3h1.3l0.1,1.2h0c0.5-0.9,1.2-1.4,1.9-1.4c0.3,0,0.6,0,0.8,0.1l-0.3,1.4c-0.2-0.1-0.4-0.1-0.7-0.1
			c-0.5,0-1.2,0.4-1.6,1.4v4.2h-1.6V331.3z"/>
		<path class="st10" d="M301.4,336.5v-8.1h1.6v8.2c0,0.4,0.2,0.5,0.3,0.5c0.1,0,0.1,0,0.3,0l0.2,1.2c-0.2,0.1-0.5,0.1-0.8,0.1
			C301.8,338.4,301.4,337.7,301.4,336.5z"/>
		<path class="st10" d="M304.8,336.4c0-1.5,1.2-2.2,4-2.5c0-0.7-0.3-1.4-1.2-1.4c-0.7,0-1.3,0.3-1.9,0.7l-0.6-1.1
			c0.8-0.5,1.7-0.9,2.8-0.9c1.7,0,2.6,1.1,2.6,3v4.1h-1.3l-0.1-0.8h0c-0.6,0.5-1.3,0.9-2.1,0.9C305.6,338.4,304.8,337.6,304.8,336.4
			z M308.8,336.4v-1.5c-1.9,0.2-2.5,0.7-2.5,1.4c0,0.6,0.4,0.9,1,0.9C307.9,337.1,308.3,336.8,308.8,336.4z"/>
		<path class="st10" d="M312.4,331.3h1.3l0.1,0.9h0c0.6-0.6,1.3-1.1,2.2-1.1c1.5,0,2.1,1,2.1,2.7v4.3h-1.6v-4.1
			c0-1.1-0.3-1.6-1.1-1.6c-0.6,0-1,0.3-1.6,0.9v4.8h-1.6V331.3z"/>
		<path class="st10" d="M319.8,334.8c0-2.2,1.4-3.6,2.9-3.6c0.8,0,1.3,0.3,1.8,0.8l-0.1-1.1v-2.5h1.6v9.9h-1.3l-0.1-0.7h0
			c-0.5,0.5-1.2,0.9-1.9,0.9C320.9,338.4,319.8,337.1,319.8,334.8z M324.4,336.3v-3.2c-0.5-0.4-0.9-0.6-1.4-0.6
			c-0.9,0-1.6,0.8-1.6,2.3c0,1.5,0.6,2.3,1.6,2.3C323.5,337.1,324,336.8,324.4,336.3z"/>
		<path class="st10" d="M327.4,337.4l0.7-1c0.6,0.5,1.2,0.8,1.9,0.8c0.7,0,1.1-0.4,1.1-0.8c0-0.6-0.7-0.8-1.5-1.1
			c-0.9-0.3-1.9-0.9-1.9-2c0-1.2,1-2.1,2.5-2.1c1,0,1.7,0.4,2.3,0.8l-0.7,1c-0.5-0.4-1-0.6-1.5-0.6c-0.7,0-1,0.3-1,0.8
			c0,0.5,0.7,0.8,1.4,1c0.9,0.3,2,0.8,2,2.1c0,1.2-0.9,2.1-2.7,2.1C329,338.4,328,338,327.4,337.4z"/>
		<path class="st10" d="M336.4,337.3c2.5-2.4,4-4,4-5.3c0-0.9-0.5-1.5-1.5-1.5c-0.7,0-1.3,0.5-1.7,1l-0.9-0.9
			c0.8-0.9,1.6-1.4,2.8-1.4c1.7,0,2.8,1.1,2.8,2.7c0,1.6-1.5,3.2-3.2,5.1c0.5,0,1.1-0.1,1.5-0.1h2.2v1.4h-6V337.3z"/>
		<path class="st10" d="M343.5,337.3c2.5-2.4,4-4,4-5.3c0-0.9-0.5-1.5-1.5-1.5c-0.7,0-1.3,0.5-1.7,1l-0.9-0.9
			c0.8-0.9,1.6-1.4,2.8-1.4c1.7,0,2.8,1.1,2.8,2.7c0,1.6-1.5,3.2-3.2,5.1c0.5,0,1.1-0.1,1.5-0.1h2.2v1.4h-6V337.3z"/>
	</g>
</g>
<g>
	<g>
		<path class="st10" d="M-929.6-10.5h2.2l1.7,5.9c0.4,1.3,0.6,2.5,1,3.8h0.1c0.4-1.3,0.7-2.5,1-3.8l1.6-5.9h2.1l-3.6,11.8h-2.5
			L-929.6-10.5z"/>
		<path class="st10" d="M-919.2-3.1c0-2.9,2-4.6,4.2-4.6c2.2,0,4.2,1.7,4.2,4.6c0,2.9-2,4.6-4.2,4.6C-917.1,1.5-919.2-0.2-919.2-3.1
			z M-912.9-3.1c0-1.8-0.8-3-2.1-3c-1.3,0-2.1,1.2-2.1,3c0,1.8,0.8,2.9,2.1,2.9C-913.6-0.2-912.9-1.3-912.9-3.1z"/>
		<path class="st10" d="M-908.4-1.7v-4.2h-1.3v-1.6l1.4-0.1l0.2-2.4h1.7v2.4h2.3v1.6h-2.3v4.2c0,1,0.4,1.6,1.3,1.6
			c0.3,0,0.7-0.1,0.9-0.2l0.4,1.5c-0.5,0.2-1.1,0.3-1.8,0.3C-907.6,1.5-908.4,0.2-908.4-1.7z"/>
		<path class="st10" d="M-902.8-3.1c0-2.9,2-4.6,4.1-4.6c2.4,0,3.7,1.7,3.7,4.2c0,0.4,0,0.8-0.1,1h-5.6c0.2,1.6,1.2,2.5,2.6,2.5
			c0.8,0,1.4-0.2,2.1-0.6l0.7,1.3c-0.8,0.6-1.9,1-3,1C-900.9,1.5-902.8-0.2-902.8-3.1z M-896.8-4c0-1.4-0.6-2.2-1.8-2.2
			c-1,0-1.9,0.8-2.1,2.2H-896.8z"/>
		<path class="st10" d="M-893.9,0.3l1-1.3c0.8,0.6,1.5,1,2.4,1c1,0,1.4-0.5,1.4-1.1c0-0.7-1-1.1-1.9-1.4c-1.2-0.4-2.5-1.1-2.5-2.6
			c0-1.5,1.2-2.6,3.2-2.6c1.2,0,2.2,0.5,2.9,1.1l-1,1.3c-0.6-0.5-1.2-0.8-1.9-0.8c-0.9,0-1.3,0.4-1.3,1c0,0.7,0.9,1,1.9,1.3
			c1.2,0.4,2.5,1,2.5,2.7c0,1.5-1.2,2.7-3.4,2.7C-891.8,1.5-893.1,1-893.9,0.3z"/>
		<path class="st10" d="M-881.4-1.7v-4.2h-1.3v-1.6l1.4-0.1l0.2-2.4h1.7v2.4h2.3v1.6h-2.3v4.2c0,1,0.4,1.6,1.3,1.6
			c0.3,0,0.7-0.1,0.9-0.2l0.4,1.5c-0.5,0.2-1.1,0.3-1.8,0.3C-880.6,1.5-881.4,0.2-881.4-1.7z"/>
		<path class="st10" d="M-875.8-3.1c0-2.9,2-4.6,4.2-4.6c2.2,0,4.2,1.7,4.2,4.6c0,2.9-2,4.6-4.2,4.6C-873.8,1.5-875.8-0.2-875.8-3.1
			z M-869.5-3.1c0-1.8-0.8-3-2.1-3c-1.3,0-2.1,1.2-2.1,3c0,1.8,0.8,2.9,2.1,2.9C-870.3-0.2-869.5-1.3-869.5-3.1z"/>
		<path class="st10" d="M-859.2-8.7h-3.4v-1.8h8.9v1.8h-3.4v10h-2.1V-8.7z"/>
		<path class="st10" d="M-852-2v-5.5h2.1v5.3c0,1.5,0.4,2,1.4,2c0.8,0,1.3-0.4,2-1.2v-6.1h2.1v8.8h-1.7l-0.2-1.3h-0.1
			c-0.8,0.9-1.6,1.5-2.8,1.5C-851.2,1.5-852,0.2-852-2z"/>
		<path class="st10" d="M-841.9-7.5h1.7L-840-6h0.1c0.6-1.2,1.6-1.8,2.5-1.8c0.4,0,0.7,0.1,1,0.2l-0.4,1.8c-0.3-0.1-0.5-0.1-0.9-0.1
			c-0.7,0-1.6,0.5-2.1,1.8v5.4h-2.1V-7.5z"/>
		<path class="st10" d="M-835.2-11.4h2v7.9h0.1l3.3-4.1h2.3l-3,3.6l3.3,5.2h-2.3l-2.3-3.8l-1.4,1.6v2.2h-2V-11.4z"/>
		<path class="st10" d="M-826.4-3.1c0-2.9,2-4.6,4.1-4.6c2.4,0,3.7,1.7,3.7,4.2c0,0.4,0,0.8-0.1,1h-5.6c0.2,1.6,1.2,2.5,2.6,2.5
			c0.8,0,1.4-0.2,2.1-0.6l0.7,1.3c-0.8,0.6-1.9,1-3,1C-824.4,1.5-826.4-0.2-826.4-3.1z M-820.4-4c0-1.4-0.6-2.2-1.8-2.2
			c-1,0-1.9,0.8-2.1,2.2H-820.4z"/>
		<path class="st10" d="M-817.2,4.8l0.4-1.6c0.2,0.1,0.4,0.1,0.6,0.1c0.9,0,1.5-0.6,1.8-1.5l0.2-0.6l-3.5-8.7h2.1l1.5,4.3
			c0.3,0.8,0.5,1.7,0.8,2.5h0.1c0.2-0.8,0.4-1.7,0.7-2.5l1.3-4.3h2l-3.2,9.2c-0.7,2-1.7,3.2-3.6,3.2C-816.6,4.9-816.9,4.9-817.2,4.8
			z"/>
	</g>
</g>
<g>
	<g>
		<path class="st10" d="M-319.3-10.4h2.2l1.7,5.9c0.4,1.3,0.6,2.5,1,3.8h0.1c0.4-1.3,0.7-2.5,1-3.8l1.6-5.9h2.1l-3.6,11.8h-2.5
			L-319.3-10.4z"/>
		<path class="st10" d="M-308.8-3c0-2.9,2-4.6,4.2-4.6c2.2,0,4.2,1.7,4.2,4.6c0,2.9-2,4.6-4.2,4.6C-306.8,1.6-308.8-0.1-308.8-3z
			 M-302.6-3c0-1.8-0.8-3-2.1-3c-1.3,0-2.1,1.2-2.1,3c0,1.8,0.8,2.9,2.1,2.9C-303.3-0.1-302.6-1.2-302.6-3z"/>
		<path class="st10" d="M-298.1-1.6v-4.2h-1.3v-1.6l1.4-0.1l0.2-2.4h1.7v2.4h2.3v1.6h-2.3v4.2c0,1,0.4,1.6,1.3,1.6
			c0.3,0,0.7-0.1,0.9-0.2l0.4,1.5c-0.5,0.2-1.1,0.3-1.8,0.3C-297.3,1.6-298.1,0.3-298.1-1.6z"/>
		<path class="st10" d="M-292.5-3c0-2.9,2-4.6,4.1-4.6c2.4,0,3.7,1.7,3.7,4.2c0,0.4,0,0.8-0.1,1h-5.6c0.2,1.6,1.2,2.5,2.6,2.5
			c0.8,0,1.4-0.2,2.1-0.6l0.7,1.3c-0.8,0.6-1.9,1-3,1C-290.5,1.6-292.5-0.1-292.5-3z M-286.5-3.9c0-1.4-0.6-2.2-1.8-2.2
			c-1,0-1.9,0.8-2.1,2.2H-286.5z"/>
		<path class="st10" d="M-283.6,0.4l1-1.3c0.8,0.6,1.5,1,2.4,1c1,0,1.4-0.5,1.4-1.1c0-0.7-1-1.1-1.9-1.4c-1.2-0.4-2.5-1.1-2.5-2.6
			c0-1.5,1.2-2.6,3.2-2.6c1.2,0,2.2,0.5,2.9,1.1l-1,1.3c-0.6-0.5-1.2-0.8-1.9-0.8c-0.9,0-1.3,0.4-1.3,1c0,0.7,0.9,1,1.9,1.3
			c1.2,0.4,2.5,1,2.5,2.7c0,1.5-1.2,2.7-3.4,2.7C-281.5,1.6-282.8,1.1-283.6,0.4z"/>
		<path class="st10" d="M-272.2-7.3l1.3-0.1h3.7v1.6h-5V-7.3z M-271-8.3c0-1.8,0.8-3.2,2.9-3.2c0.6,0,1.2,0.2,1.6,0.3l-0.4,1.5
			c-0.3-0.1-0.7-0.2-1-0.2c-0.7,0-1.1,0.5-1.1,1.5v9.8h-2.1V-8.3z"/>
		<path class="st10" d="M-265.7-7.4h1.7l0.2,1.6h0.1c0.6-1.2,1.6-1.8,2.5-1.8c0.4,0,0.7,0.1,1,0.2l-0.4,1.8
			c-0.3-0.1-0.5-0.1-0.9-0.1c-0.7,0-1.6,0.5-2.1,1.8v5.4h-2.1V-7.4z"/>
		<path class="st10" d="M-259.5-3c0-2.9,2-4.6,4.2-4.6c2.2,0,4.2,1.7,4.2,4.6c0,2.9-2,4.6-4.2,4.6C-257.5,1.6-259.5-0.1-259.5-3z
			 M-253.3-3c0-1.8-0.8-3-2.1-3c-1.3,0-2.1,1.2-2.1,3c0,1.8,0.8,2.9,2.1,2.9C-254-0.1-253.3-1.2-253.3-3z"/>
		<path class="st10" d="M-249.1-7.4h1.7l0.2,1.2h0.1c0.7-0.8,1.6-1.4,2.7-1.4c1.3,0,2,0.6,2.4,1.6c0.8-0.9,1.7-1.6,2.8-1.6
			c1.9,0,2.7,1.3,2.7,3.5v5.5h-2.1v-5.3c0-1.5-0.4-2-1.4-2c-0.6,0-1.2,0.4-1.9,1.1v6.2h-2.1v-5.3c0-1.5-0.4-2-1.4-2
			c-0.5,0-1.2,0.4-1.9,1.1v6.2h-2.1V-7.4z"/>
		<path class="st10" d="M-227.8-8.6h-3.4v-1.8h8.9v1.8h-3.4v10h-2.1V-8.6z"/>
		<path class="st10" d="M-220.6-1.9v-5.5h2.1v5.3c0,1.5,0.4,2,1.4,2c0.8,0,1.3-0.4,2-1.2v-6.1h2.1v8.8h-1.7l-0.2-1.3h-0.1
			c-0.8,0.9-1.6,1.5-2.8,1.5C-219.8,1.6-220.6,0.3-220.6-1.9z"/>
		<path class="st10" d="M-210.5-7.4h1.7l0.2,1.6h0.1c0.6-1.2,1.6-1.8,2.5-1.8c0.4,0,0.7,0.1,1,0.2l-0.4,1.8
			c-0.3-0.1-0.5-0.1-0.9-0.1c-0.7,0-1.6,0.5-2.1,1.8v5.4h-2.1V-7.4z"/>
		<path class="st10" d="M-203.8-11.3h2v7.9h0.1l3.3-4.1h2.3l-3,3.6l3.3,5.2h-2.3l-2.3-3.8l-1.4,1.6v2.2h-2V-11.3z"/>
		<path class="st10" d="M-194.9-3c0-2.9,2-4.6,4.1-4.6c2.4,0,3.7,1.7,3.7,4.2c0,0.4,0,0.8-0.1,1h-5.6c0.2,1.6,1.2,2.5,2.6,2.5
			c0.8,0,1.4-0.2,2.1-0.6l0.7,1.3c-0.8,0.6-1.9,1-3,1C-193,1.6-194.9-0.1-194.9-3z M-189-3.9c0-1.4-0.6-2.2-1.8-2.2
			c-1,0-1.9,0.8-2.1,2.2H-189z"/>
		<path class="st10" d="M-185.8,4.9l0.4-1.6c0.2,0.1,0.4,0.1,0.6,0.1c0.9,0,1.5-0.6,1.8-1.5l0.2-0.6l-3.5-8.7h2.1l1.5,4.3
			c0.3,0.8,0.5,1.7,0.8,2.5h0.1c0.2-0.8,0.4-1.7,0.7-2.5l1.3-4.3h2l-3.2,9.2c-0.7,2-1.7,3.2-3.6,3.2C-185.1,5-185.5,5-185.8,4.9z"/>
	</g>
</g>
<g>
	<g>
		<path class="st10" d="M7.9,11.1h2.2l1.7,5.9c0.4,1.3,0.6,2.5,1,3.8h0.1c0.4-1.3,0.7-2.5,1-3.8l1.6-5.9h2.1L14,22.9h-2.5L7.9,11.1z
			"/>
		<path class="st10" d="M18.3,18.5c0-2.9,2-4.6,4.2-4.6c2.2,0,4.2,1.7,4.2,4.6c0,2.9-2,4.6-4.2,4.6C20.3,23.1,18.3,21.4,18.3,18.5z
			 M24.6,18.5c0-1.8-0.8-3-2.1-3s-2.1,1.2-2.1,3c0,1.8,0.8,2.9,2.1,2.9S24.6,20.3,24.6,18.5z"/>
		<path class="st10" d="M29.1,19.9v-4.2h-1.3v-1.6l1.4-0.1l0.2-2.4h1.7v2.4h2.3v1.6h-2.3v4.2c0,1,0.4,1.6,1.3,1.6
			c0.3,0,0.7-0.1,0.9-0.2l0.4,1.5c-0.5,0.2-1.1,0.3-1.8,0.3C29.8,23.1,29.1,21.8,29.1,19.9z"/>
		<path class="st10" d="M34.7,18.5c0-2.9,2-4.6,4.1-4.6c2.4,0,3.7,1.7,3.7,4.2c0,0.4,0,0.8-0.1,1h-5.6c0.2,1.6,1.2,2.5,2.6,2.5
			c0.8,0,1.4-0.2,2.1-0.6l0.7,1.3c-0.8,0.6-1.9,1-3,1C36.6,23.1,34.7,21.4,34.7,18.5z M40.6,17.6c0-1.4-0.6-2.2-1.8-2.2
			c-1,0-1.9,0.8-2.1,2.2H40.6z"/>
		<path class="st10" d="M43.5,21.9l1-1.3c0.8,0.6,1.5,1,2.4,1c1,0,1.4-0.5,1.4-1.1c0-0.7-1-1.1-1.9-1.4C45.3,18.6,44,18,44,16.5
			c0-1.5,1.2-2.6,3.2-2.6c1.2,0,2.2,0.5,2.9,1.1l-1,1.3c-0.6-0.5-1.2-0.8-1.9-0.8c-0.9,0-1.3,0.4-1.3,1c0,0.7,0.9,1,1.9,1.3
			c1.2,0.4,2.5,1,2.5,2.7c0,1.5-1.2,2.7-3.4,2.7C45.7,23.1,44.4,22.6,43.5,21.9z"/>
		<path class="st10" d="M56.1,19.9v-4.2h-1.3v-1.6l1.4-0.1l0.2-2.4h1.7v2.4h2.3v1.6h-2.3v4.2c0,1,0.4,1.6,1.3,1.6
			c0.3,0,0.7-0.1,0.9-0.2l0.4,1.5c-0.5,0.2-1.1,0.3-1.8,0.3C56.8,23.1,56.1,21.8,56.1,19.9z"/>
		<path class="st10" d="M61.7,18.5c0-2.9,2-4.6,4.2-4.6c2.2,0,4.2,1.7,4.2,4.6c0,2.9-2,4.6-4.2,4.6C63.7,23.1,61.7,21.4,61.7,18.5z
			 M68,18.5c0-1.8-0.8-3-2.1-3s-2.1,1.2-2.1,3c0,1.8,0.8,2.9,2.1,2.9S68,20.3,68,18.5z"/>
		<path class="st10" d="M18.1,34.5h-3.4v-1.8h8.9v1.8h-3.4v10h-2.1V34.5z"/>
		<path class="st10" d="M25.2,41.2v-5.5h2.1v5.3c0,1.5,0.4,2,1.4,2c0.8,0,1.3-0.4,2-1.2v-6.1h2.1v8.8H31l-0.2-1.3h-0.1
			c-0.8,0.9-1.6,1.5-2.8,1.5C26.1,44.7,25.2,43.4,25.2,41.2z"/>
		<path class="st10" d="M35.3,35.7H37l0.2,1.6h0.1c0.6-1.2,1.6-1.8,2.5-1.8c0.4,0,0.7,0.1,1,0.2l-0.4,1.8c-0.3-0.1-0.5-0.1-0.9-0.1
			c-0.7,0-1.6,0.5-2.1,1.8v5.4h-2.1V35.7z"/>
		<path class="st10" d="M42.1,31.8h2v7.9h0.1l3.3-4.1h2.3l-3,3.6l3.3,5.2h-2.3l-2.3-3.8l-1.4,1.6v2.2h-2V31.8z"/>
		<path class="st10" d="M50.9,40.1c0-2.9,2-4.6,4.1-4.6c2.4,0,3.7,1.7,3.7,4.2c0,0.4,0,0.8-0.1,1h-5.6c0.2,1.6,1.2,2.5,2.6,2.5
			c0.8,0,1.4-0.2,2.1-0.6l0.7,1.3c-0.8,0.6-1.9,1-3,1C52.8,44.7,50.9,43,50.9,40.1z M56.8,39.2c0-1.4-0.6-2.2-1.8-2.2
			c-1,0-1.9,0.8-2.1,2.2H56.8z"/>
		<path class="st10" d="M60,48l0.4-1.6c0.2,0.1,0.4,0.1,0.6,0.1c0.9,0,1.5-0.6,1.8-1.5l0.2-0.6l-3.5-8.7h2.1l1.5,4.3
			c0.3,0.8,0.5,1.7,0.8,2.5H64c0.2-0.8,0.4-1.7,0.7-2.5l1.3-4.3h2l-3.2,9.2c-0.7,2-1.7,3.2-3.6,3.2C60.7,48.1,60.3,48.1,60,48z"/>
	</g>
</g>
<path class="st17" d="M317.9,392.2"/>
<g>
	<g>
		<path class="st10" d="M259.9,11.7h2.2l1.7,5.9c0.4,1.3,0.6,2.5,1,3.8h0.1c0.4-1.3,0.7-2.5,1-3.8l1.6-5.9h2.1L266,23.5h-2.5
			L259.9,11.7z"/>
		<path class="st10" d="M270.3,19.1c0-2.9,2-4.6,4.2-4.6s4.2,1.7,4.2,4.6c0,2.9-2,4.6-4.2,4.6S270.3,22,270.3,19.1z M276.6,19.1
			c0-1.8-0.8-3-2.1-3c-1.3,0-2.1,1.2-2.1,3c0,1.8,0.8,2.9,2.1,2.9C275.8,22,276.6,20.9,276.6,19.1z"/>
		<path class="st10" d="M281.1,20.5v-4.2h-1.3v-1.6l1.4-0.1l0.2-2.4h1.7v2.4h2.3v1.6h-2.3v4.2c0,1,0.4,1.6,1.3,1.6
			c0.3,0,0.7-0.1,0.9-0.2l0.4,1.5c-0.5,0.2-1.1,0.3-1.8,0.3C281.9,23.7,281.1,22.4,281.1,20.5z"/>
		<path class="st10" d="M286.7,19.1c0-2.9,2-4.6,4.1-4.6c2.4,0,3.7,1.7,3.7,4.2c0,0.4,0,0.8-0.1,1h-5.6c0.2,1.6,1.2,2.5,2.6,2.5
			c0.8,0,1.4-0.2,2.1-0.6l0.7,1.3c-0.8,0.6-1.9,1-3,1C288.6,23.7,286.7,22,286.7,19.1z M292.7,18.2c0-1.4-0.6-2.2-1.8-2.2
			c-1,0-1.9,0.8-2.1,2.2H292.7z"/>
		<path class="st10" d="M295.6,22.5l1-1.3c0.8,0.6,1.5,1,2.4,1c1,0,1.4-0.5,1.4-1.1c0-0.7-1-1.1-1.9-1.4c-1.2-0.4-2.5-1.1-2.5-2.6
			c0-1.5,1.2-2.6,3.2-2.6c1.2,0,2.2,0.5,2.9,1.1l-1,1.3c-0.6-0.5-1.2-0.8-1.9-0.8c-0.9,0-1.3,0.4-1.3,1c0,0.7,0.9,1,1.9,1.3
			c1.2,0.4,2.5,1,2.5,2.7c0,1.5-1.2,2.7-3.4,2.7C297.7,23.7,296.4,23.2,295.6,22.5z"/>
		<path class="st10" d="M307,14.8l1.3-0.1h3.7v1.6h-5V14.8z M308.1,13.7c0-1.8,0.8-3.2,2.9-3.2c0.6,0,1.2,0.2,1.6,0.3l-0.4,1.5
			c-0.3-0.1-0.7-0.2-1-0.2c-0.7,0-1.1,0.5-1.1,1.5v9.8h-2.1V13.7z"/>
		<path class="st10" d="M313.5,14.7h1.7l0.2,1.6h0.1c0.6-1.2,1.6-1.8,2.5-1.8c0.5,0,0.7,0.1,1,0.2l-0.4,1.8
			c-0.3-0.1-0.5-0.1-0.9-0.1c-0.7,0-1.6,0.5-2.1,1.8v5.4h-2.1V14.7z"/>
		<path class="st10" d="M319.6,19.1c0-2.9,2-4.6,4.2-4.6s4.2,1.7,4.2,4.6c0,2.9-2,4.6-4.2,4.6S319.6,22,319.6,19.1z M325.9,19.1
			c0-1.8-0.8-3-2.1-3c-1.3,0-2.1,1.2-2.1,3c0,1.8,0.8,2.9,2.1,2.9C325.1,22,325.9,20.9,325.9,19.1z"/>
		<path class="st10" d="M330.1,14.7h1.7l0.2,1.2h0.1c0.7-0.8,1.6-1.4,2.7-1.4c1.3,0,2,0.6,2.4,1.6c0.8-0.9,1.7-1.6,2.8-1.6
			c1.9,0,2.7,1.3,2.7,3.5v5.5h-2.1v-5.3c0-1.5-0.4-2-1.4-2c-0.6,0-1.2,0.4-1.9,1.1v6.2h-2.1v-5.3c0-1.5-0.4-2-1.4-2
			c-0.5,0-1.2,0.4-1.9,1.1v6.2h-2.1V14.7z"/>
		<path class="st10" d="M280.6,35.1h-3.4v-1.8h8.9v1.8h-3.4v10h-2.1V35.1z"/>
		<path class="st10" d="M287.8,41.8v-5.5h2.1v5.3c0,1.5,0.4,2,1.4,2c0.8,0,1.3-0.4,2-1.2v-6.1h2.1v8.8h-1.7l-0.2-1.3h-0.1
			c-0.8,0.9-1.6,1.5-2.8,1.5C288.6,45.3,287.8,44,287.8,41.8z"/>
		<path class="st10" d="M297.9,36.3h1.7l0.2,1.6h0.1c0.6-1.2,1.6-1.8,2.5-1.8c0.4,0,0.7,0.1,1,0.2L303,38c-0.3-0.1-0.5-0.1-0.9-0.1
			c-0.7,0-1.6,0.5-2.1,1.8v5.4h-2.1V36.3z"/>
		<path class="st10" d="M304.6,32.4h2v7.9h0.1l3.3-4.1h2.3l-3,3.6l3.3,5.2h-2.3l-2.3-3.8l-1.4,1.6v2.2h-2V32.4z"/>
		<path class="st10" d="M313.4,40.7c0-2.9,2-4.6,4.1-4.6c2.4,0,3.7,1.7,3.7,4.2c0,0.4,0,0.8-0.1,1h-5.6c0.2,1.6,1.2,2.5,2.6,2.5
			c0.8,0,1.4-0.2,2.1-0.6l0.7,1.3c-0.8,0.6-1.9,1-3,1C315.4,45.3,313.4,43.6,313.4,40.7z M319.4,39.8c0-1.4-0.6-2.2-1.8-2.2
			c-1,0-1.9,0.8-2.1,2.2H319.4z"/>
		<path class="st10" d="M322.6,48.6l0.4-1.6c0.2,0.1,0.4,0.1,0.6,0.1c0.9,0,1.5-0.6,1.8-1.5l0.2-0.6l-3.5-8.7h2.1l1.5,4.3
			c0.3,0.8,0.5,1.7,0.8,2.5h0.1c0.2-0.8,0.4-1.7,0.7-2.5l1.3-4.3h2l-3.2,9.2c-0.7,2-1.7,3.2-3.6,3.2
			C323.3,48.7,322.9,48.7,322.6,48.6z"/>
	</g>
</g>
</svg>
