<?xml version="1.0" encoding="utf-8"?>
<!-- Generator: Adobe Illustrator 27.2.0, SVG Export Plug-In . SVG Version: 6.00 Build 0)  -->
<svg version="1.1" id="Layer_1" xmlns="http://www.w3.org/2000/svg" xmlns:xlink="http://www.w3.org/1999/xlink" x="0px" y="0px"
	 viewBox="0 0 750 600" style="enable-background:new 0 0 750 600;" xml:space="preserve">
<style type="text/css">
	.st0{fill:#FFFFFF;}
	.st1{fill:none;}
	.st2{fill:#7B7B7B;}
	.st3{font-family:'Arial-BoldMT';}
	.st4{font-size:12px;}
	.st5{fill:none;stroke:#000000;}
	.st6{fill:none;stroke:#1F77B4;}
	.st7{fill:#1F77B4;}
	.st8{fill:none;stroke:#FF7F0E;}
	.st9{fill:#FF7F0E;}
	.st10{fill:none;stroke:#2CA02C;}
	.st11{fill:#2CA02C;}
	.st12{fill:none;stroke:#D62728;}
	.st13{fill:#D62728;}
	.st14{enable-background:new    ;}
</style>
<rect id="backgorund" class="st0" width="750" height="600"/>
<rect width="750" height="600"/>
<rect class="st1" width="750" height="600"/>
<g transform="translate(80,40)">
	<text transform="matrix(1 0 0 1 -27.0088 -9)" class="st2 st3 st4">to_turkey</text>
	<line class="st5" x1="0" y1="0" x2="0" y2="-6"/>
</g>
<g transform="translate(670,40)">
	<text transform="matrix(1 0 0 1 -34.6787 -9)" class="st2 st3 st4">from_turkey</text>
	<line class="st5" x1="0" y1="0" x2="0" y2="-6"/>
</g>
<g id="Belgium">
	<line class="st6" x1="80" y1="179.9" x2="670" y2="531.4"/>
	<circle class="st7" cx="80" cy="179.9" r="2.5"/>
	<circle class="st7" cx="670" cy="531.4" r="2.5"/>
</g>
<g id="France">
	<line class="st8" x1="80" y1="40" x2="670" y2="590"/>
	<circle class="st9" cx="80" cy="40" r="2.5"/>
	<circle class="st9" cx="670" cy="590" r="2.5"/>
</g>
<g id="Germany">
	<line class="st10" x1="80" y1="69.3" x2="670" y2="505.4"/>
	<circle class="st11" cx="80" cy="69.3" r="2.5"/>
	<circle class="st11" cx="670" cy="505.4" r="2.5"/>
</g>
<g id="Netherlands">
	<line class="st12" x1="80" y1="108.3" x2="670" y2="521.7"/>
	<circle class="st13" cx="80" cy="108.3" r="2.5"/>
	<circle class="st13" cx="670" cy="521.7" r="2.5"/>
</g>
<g>
	<g class="st14">
		<path class="st0" d="M24.8,175.7h2.7c1.9,0,3.2,0.6,3.2,2.3c0,0.9-0.5,1.7-1.3,2v0.1c1.1,0.2,1.9,0.9,1.9,2.2
			c0,1.8-1.4,2.7-3.5,2.7h-2.9V175.7z M27.4,179.7c1.6,0,2.2-0.6,2.2-1.5c0-1.1-0.7-1.5-2.2-1.5H26v3H27.4z M27.6,184
			c1.6,0,2.5-0.6,2.5-1.8c0-1.1-0.9-1.7-2.5-1.7H26v3.5H27.6z"/>
		<path class="st0" d="M32.5,181.5c0-2.2,1.5-3.6,3.1-3.6c1.7,0,2.7,1.2,2.7,3.2c0,0.2,0,0.5-0.1,0.7h-4.6c0.1,1.4,1,2.4,2.3,2.4
			c0.7,0,1.2-0.2,1.7-0.5l0.4,0.8c-0.6,0.4-1.3,0.7-2.2,0.7C33.9,185.1,32.5,183.8,32.5,181.5z M37.2,181c0-1.4-0.6-2.1-1.7-2.1
			c-1,0-1.8,0.8-2,2.1H37.2z"/>
		<path class="st0" d="M39.9,183.6V175h1.2v8.7c0,0.4,0.2,0.5,0.3,0.5c0.1,0,0.1,0,0.3,0l0.2,0.9c-0.2,0.1-0.4,0.1-0.7,0.1
			C40.3,185.1,39.9,184.6,39.9,183.6z"/>
		<path class="st0" d="M43,186.2c0-0.6,0.4-1.1,1-1.5v-0.1c-0.3-0.2-0.6-0.6-0.6-1.1c0-0.6,0.4-1,0.7-1.3v-0.1
			c-0.5-0.4-0.9-1-0.9-1.8c0-1.5,1.2-2.4,2.6-2.4c0.4,0,0.7,0.1,1,0.2h2.4v0.9h-1.4c0.3,0.3,0.6,0.8,0.6,1.4c0,1.5-1.1,2.4-2.5,2.4
			c-0.3,0-0.7-0.1-1-0.2c-0.2,0.2-0.4,0.4-0.4,0.8c0,0.4,0.3,0.7,1.2,0.7h1.3c1.6,0,2.4,0.5,2.4,1.6c0,1.3-1.3,2.4-3.4,2.4
			C44.1,188.1,43,187.4,43,186.2z M48.1,185.9c0-0.6-0.5-0.8-1.4-0.8h-1.2c-0.3,0-0.6,0-0.9-0.1c-0.5,0.3-0.7,0.8-0.7,1.1
			c0,0.7,0.7,1.2,2,1.2C47.2,187.3,48.1,186.6,48.1,185.9z M47.2,180.4c0-1-0.6-1.6-1.4-1.6s-1.4,0.6-1.4,1.6c0,1,0.7,1.6,1.4,1.6
			S47.2,181.4,47.2,180.4z"/>
		<path class="st0" d="M50.3,176c0-0.5,0.3-0.7,0.8-0.7c0.4,0,0.8,0.3,0.8,0.7c0,0.4-0.3,0.7-0.8,0.7
			C50.7,176.7,50.3,176.4,50.3,176z M50.5,178.1h1.2v6.8h-1.2V178.1z"/>
		<path class="st0" d="M53.9,182.4v-4.3H55v4.2c0,1.3,0.4,1.8,1.3,1.8c0.7,0,1.2-0.3,1.8-1.1v-4.8h1.2v6.8h-1l-0.1-1.1h0
			c-0.6,0.7-1.3,1.2-2.2,1.2C54.5,185.1,53.9,184.2,53.9,182.4z"/>
		<path class="st0" d="M61.6,178.1h1l0.1,1h0c0.6-0.6,1.3-1.2,2.1-1.2c1,0,1.6,0.5,1.9,1.3c0.7-0.8,1.4-1.3,2.2-1.3
			c1.4,0,2.1,0.9,2.1,2.7v4.3h-1.2v-4.2c0-1.3-0.4-1.8-1.3-1.8c-0.5,0-1.1,0.3-1.7,1v4.9h-1.2v-4.2c0-1.3-0.4-1.8-1.3-1.8
			c-0.5,0-1.1,0.3-1.7,1v4.9h-1.2V178.1z"/>
		<path class="st0" d="M75.9,184h2v-6.6h-1.6v-0.7c0.8-0.1,1.4-0.4,1.9-0.7h0.9v8H81v1h-5V184z"/>
		<path class="st0" d="M82.4,184.3c2.7-2.7,4.2-4.3,4.2-5.7c0-1-0.6-1.7-1.7-1.7c-0.7,0-1.4,0.5-1.9,1.1l-0.7-0.7
			c0.7-0.8,1.6-1.4,2.7-1.4c1.7,0,2.7,1,2.7,2.6c0,1.7-1.5,3.3-3.6,5.6c0.5,0,1-0.1,1.5-0.1h2.6v1h-5.8V184.3z"/>
		<path class="st0" d="M93.8,177h-4.4v-1h5.8v0.7c-2.1,2.7-2.6,4.7-2.7,8.2h-1.2C91.4,181.6,92.1,179.4,93.8,177z"/>
	</g>
</g>
<g>
	<g class="st14">
		<path class="st0" d="M677.8,527.3h2.7c1.9,0,3.2,0.6,3.2,2.3c0,0.9-0.5,1.7-1.3,2v0.1c1.1,0.2,1.9,0.9,1.9,2.2
			c0,1.8-1.4,2.7-3.5,2.7h-2.9V527.3z M680.3,531.3c1.6,0,2.2-0.6,2.2-1.5c0-1.1-0.7-1.5-2.2-1.5h-1.4v3H680.3z M680.5,535.6
			c1.6,0,2.5-0.6,2.5-1.8c0-1.1-0.9-1.7-2.5-1.7h-1.6v3.5H680.5z"/>
		<path class="st0" d="M685.4,533.1c0-2.2,1.5-3.6,3.1-3.6c1.7,0,2.7,1.2,2.7,3.2c0,0.2,0,0.5-0.1,0.7h-4.6c0.1,1.4,1,2.4,2.3,2.4
			c0.7,0,1.2-0.2,1.7-0.5l0.4,0.8c-0.6,0.4-1.3,0.7-2.2,0.7C686.8,536.7,685.4,535.4,685.4,533.1z M690.1,532.6
			c0-1.4-0.6-2.1-1.7-2.1c-1,0-1.8,0.8-2,2.1H690.1z"/>
		<path class="st0" d="M692.8,535.2v-8.6h1.2v8.7c0,0.4,0.2,0.5,0.3,0.5c0.1,0,0.1,0,0.3,0l0.2,0.9c-0.2,0.1-0.4,0.1-0.7,0.1
			C693.2,536.7,692.8,536.2,692.8,535.2z"/>
		<path class="st0" d="M695.9,537.8c0-0.6,0.4-1.1,1-1.5v-0.1c-0.3-0.2-0.6-0.6-0.6-1.1c0-0.6,0.4-1,0.7-1.3v-0.1
			c-0.5-0.4-0.9-1-0.9-1.8c0-1.5,1.2-2.4,2.6-2.4c0.4,0,0.7,0.1,1,0.2h2.4v0.9h-1.4c0.3,0.3,0.6,0.8,0.6,1.4c0,1.5-1.1,2.4-2.5,2.4
			c-0.3,0-0.7-0.1-1-0.2c-0.2,0.2-0.4,0.4-0.4,0.8c0,0.4,0.3,0.7,1.2,0.7h1.3c1.6,0,2.4,0.5,2.4,1.6c0,1.3-1.3,2.4-3.4,2.4
			C697,539.7,695.9,539,695.9,537.8z M701,537.5c0-0.6-0.5-0.8-1.4-0.8h-1.2c-0.3,0-0.6,0-0.9-0.1c-0.5,0.3-0.7,0.8-0.7,1.1
			c0,0.7,0.7,1.2,2,1.2C700.2,538.9,701,538.2,701,537.5z M700.1,532c0-1-0.6-1.6-1.4-1.6c-0.8,0-1.4,0.6-1.4,1.6
			c0,1,0.7,1.6,1.4,1.6C699.5,533.6,700.1,533,700.1,532z"/>
		<path class="st0" d="M703.2,527.6c0-0.5,0.3-0.7,0.8-0.7c0.4,0,0.8,0.3,0.8,0.7c0,0.4-0.3,0.7-0.8,0.7
			C703.6,528.3,703.2,528,703.2,527.6z M703.5,529.7h1.2v6.8h-1.2V529.7z"/>
		<path class="st0" d="M706.8,534v-4.3h1.2v4.2c0,1.3,0.4,1.8,1.3,1.8c0.7,0,1.2-0.3,1.8-1.1v-4.8h1.2v6.8h-1l-0.1-1.1h0
			c-0.6,0.7-1.3,1.2-2.2,1.2C707.4,536.7,706.8,535.8,706.8,534z"/>
		<path class="st0" d="M714.5,529.7h1l0.1,1h0c0.6-0.6,1.3-1.2,2.1-1.2c1,0,1.6,0.5,1.9,1.3c0.7-0.8,1.4-1.3,2.2-1.3
			c1.4,0,2.1,0.9,2.1,2.7v4.3h-1.2v-4.2c0-1.3-0.4-1.8-1.3-1.8c-0.5,0-1.1,0.3-1.7,1v4.9h-1.2v-4.2c0-1.3-0.4-1.8-1.3-1.8
			c-0.5,0-1.1,0.3-1.7,1v4.9h-1.2V529.7z"/>
		<path class="st0" d="M728.9,535.6h2V529h-1.6v-0.7c0.8-0.1,1.4-0.4,1.9-0.7h0.9v8h1.8v1h-5V535.6z"/>
		<path class="st0" d="M735.4,535.8l0.6-0.7c0.4,0.4,0.9,0.7,1.5,0.7c1.3,0,2.4-1,2.4-4c0-2.2-0.7-3.4-2-3.4c-0.9,0-1.6,0.8-1.6,2
			c0,1.2,0.5,1.9,1.7,1.9c0.6,0,1.3-0.3,1.9-1.3l0,0.9c-0.6,0.8-1.4,1.2-2.2,1.2c-1.5,0-2.5-0.9-2.5-2.8c0-1.7,1.2-2.9,2.6-2.9
			c1.8,0,3.1,1.4,3.1,4.3c0,3.6-1.6,5-3.4,5C736.6,536.7,735.9,536.3,735.4,535.8z"/>
	</g>
</g>
<g>
	<g class="st14">
		<path class="st0" d="M37.2,35.8h5.3v1h-4.1v3.1h3.5v1h-3.5V45h-1.2V35.8z"/>
		<path class="st0" d="M44,38.2h1l0.1,1.2h0c0.5-0.9,1.2-1.4,1.9-1.4c0.3,0,0.5,0,0.7,0.1l-0.2,1c-0.2-0.1-0.4-0.1-0.7-0.1
			c-0.6,0-1.3,0.4-1.7,1.6V45H44V38.2z"/>
		<path class="st0" d="M48.4,43.2c0-1.5,1.3-2.2,4.2-2.5c0-0.9-0.3-1.7-1.4-1.7c-0.8,0-1.5,0.4-2,0.7l-0.5-0.8
			c0.6-0.4,1.6-0.9,2.7-0.9c1.7,0,2.4,1.1,2.4,2.8V45h-1l-0.1-0.8h0c-0.6,0.5-1.4,1-2.3,1C49.3,45.2,48.4,44.5,48.4,43.2z
			 M52.6,43.3v-1.9c-2.3,0.3-3.1,0.8-3.1,1.7c0,0.8,0.5,1.1,1.2,1.1C51.4,44.2,52,43.9,52.6,43.3z"/>
		<path class="st0" d="M55.9,38.2h1l0.1,1h0c0.6-0.6,1.3-1.2,2.3-1.2c1.4,0,2.1,0.9,2.1,2.7V45h-1.2v-4.2c0-1.3-0.4-1.8-1.3-1.8
			c-0.7,0-1.2,0.4-1.9,1V45h-1.2V38.2z"/>
		<path class="st0" d="M63.1,41.6c0-2.3,1.5-3.6,3.3-3.6c0.9,0,1.5,0.4,2,0.8l-0.6,0.8c-0.4-0.4-0.8-0.6-1.4-0.6
			c-1.2,0-2.1,1.1-2.1,2.6s0.9,2.6,2.1,2.6c0.6,0,1.2-0.3,1.6-0.7l0.5,0.8c-0.6,0.5-1.4,0.9-2.2,0.9C64.5,45.2,63.1,43.9,63.1,41.6z
			"/>
		<path class="st0" d="M69.5,41.6c0-2.2,1.5-3.6,3.1-3.6c1.7,0,2.7,1.2,2.7,3.2c0,0.2,0,0.5-0.1,0.7h-4.6c0.1,1.4,1,2.4,2.3,2.4
			c0.7,0,1.2-0.2,1.7-0.5l0.4,0.8c-0.6,0.4-1.3,0.7-2.2,0.7C70.9,45.2,69.5,43.8,69.5,41.6z M74.2,41c0-1.4-0.6-2.1-1.7-2.1
			c-1,0-1.8,0.8-2,2.1H74.2z"/>
		<path class="st0" d="M76.9,44h2v-6.6h-1.6v-0.7c0.8-0.1,1.4-0.4,1.9-0.7h0.9v8h1.8v1h-5V44z"/>
		<path class="st0" d="M87.8,37.1h-4.4v-1h5.8v0.7c-2.1,2.7-2.6,4.7-2.7,8.2h-1.2C85.3,41.6,86,39.5,87.8,37.1z"/>
		<path class="st0" d="M90.3,40.5c0-3,1.1-4.6,2.9-4.6c1.8,0,2.9,1.6,2.9,4.6c0,3-1.1,4.7-2.9,4.7C91.4,45.2,90.3,43.5,90.3,40.5z
			 M94.9,40.5c0-2.6-0.7-3.7-1.7-3.7c-1,0-1.7,1.1-1.7,3.7s0.7,3.7,1.7,3.7C94.2,44.2,94.9,43.1,94.9,40.5z"/>
	</g>
</g>
<g>
	<g class="st14">
		<path class="st0" d="M677.8,585.8h5.3v1h-4.1v3.1h3.5v1h-3.5v4.1h-1.2V585.8z"/>
		<path class="st0" d="M684.6,588.2h1l0.1,1.2h0c0.5-0.9,1.2-1.4,1.9-1.4c0.3,0,0.5,0,0.7,0.1l-0.2,1c-0.2-0.1-0.4-0.1-0.7-0.1
			c-0.6,0-1.3,0.4-1.7,1.6v4.4h-1.2V588.2z"/>
		<path class="st0" d="M689,593.2c0-1.5,1.3-2.2,4.2-2.5c0-0.9-0.3-1.7-1.4-1.7c-0.8,0-1.5,0.4-2,0.7l-0.5-0.8
			c0.6-0.4,1.6-0.9,2.7-0.9c1.7,0,2.4,1.1,2.4,2.8v4.2h-1l-0.1-0.8h0c-0.6,0.5-1.4,1-2.3,1C689.9,595.2,689,594.5,689,593.2z
			 M693.2,593.3v-1.9c-2.3,0.3-3.1,0.8-3.1,1.7c0,0.8,0.5,1.1,1.2,1.1C692,594.2,692.5,593.9,693.2,593.3z"/>
		<path class="st0" d="M696.5,588.2h1l0.1,1h0c0.6-0.6,1.3-1.2,2.3-1.2c1.4,0,2.1,0.9,2.1,2.7v4.3h-1.2v-4.2c0-1.3-0.4-1.8-1.3-1.8
			c-0.7,0-1.2,0.4-1.9,1v4.9h-1.2V588.2z"/>
		<path class="st0" d="M703.6,591.6c0-2.3,1.5-3.6,3.3-3.6c0.9,0,1.5,0.4,2,0.8l-0.6,0.8c-0.4-0.4-0.8-0.6-1.4-0.6
			c-1.2,0-2.1,1.1-2.1,2.6s0.9,2.6,2.1,2.6c0.6,0,1.2-0.3,1.6-0.7l0.5,0.8c-0.6,0.5-1.4,0.9-2.2,0.9
			C705,595.2,703.6,593.9,703.6,591.6z"/>
		<path class="st0" d="M710,591.6c0-2.2,1.5-3.6,3.1-3.6c1.7,0,2.7,1.2,2.7,3.2c0,0.2,0,0.5-0.1,0.7h-4.6c0.1,1.4,1,2.4,2.3,2.4
			c0.7,0,1.2-0.2,1.7-0.5l0.4,0.8c-0.6,0.4-1.3,0.7-2.2,0.7C711.5,595.2,710,593.8,710,591.6z M714.8,591c0-1.4-0.6-2.1-1.7-2.1
			c-1,0-1.8,0.8-2,2.1H714.8z"/>
		<path class="st0" d="M720.2,594h2v-6.6h-1.6v-0.7c0.8-0.1,1.4-0.4,1.9-0.7h0.9v8h1.8v1h-5V594z"/>
	</g>
</g>
<g>
	<g class="st14">
		<path class="st0" d="M19.5,69.7c0-3,1.8-4.8,4.2-4.8c1.3,0,2.1,0.6,2.7,1.1l-0.6,0.8c-0.5-0.5-1.1-0.9-2-0.9c-1.9,0-3,1.4-3,3.7
			c0,2.3,1.1,3.8,3.1,3.8c0.7,0,1.3-0.2,1.7-0.5v-2.4h-1.9v-1h3v3.9c-0.6,0.6-1.6,1.1-2.8,1.1C21.2,74.5,19.5,72.7,19.5,69.7z"/>
		<path class="st0" d="M28,70.9c0-2.2,1.5-3.6,3.1-3.6c1.7,0,2.7,1.2,2.7,3.2c0,0.2,0,0.5-0.1,0.7h-4.6c0.1,1.4,1,2.4,2.3,2.4
			c0.7,0,1.2-0.2,1.7-0.5l0.4,0.8c-0.6,0.4-1.3,0.7-2.2,0.7C29.5,74.5,28,73.1,28,70.9z M32.8,70.3c0-1.4-0.6-2.1-1.7-2.1
			c-1,0-1.8,0.8-2,2.1H32.8z"/>
		<path class="st0" d="M35.5,67.5h1l0.1,1.2h0c0.5-0.9,1.2-1.4,1.9-1.4c0.3,0,0.5,0,0.7,0.1l-0.2,1c-0.2-0.1-0.4-0.1-0.7-0.1
			c-0.6,0-1.3,0.4-1.7,1.6v4.4h-1.2V67.5z"/>
		<path class="st0" d="M40.3,67.5h1l0.1,1h0c0.6-0.6,1.3-1.2,2.1-1.2c1,0,1.6,0.5,1.9,1.3c0.7-0.8,1.4-1.3,2.2-1.3
			c1.4,0,2.1,0.9,2.1,2.7v4.3h-1.2v-4.2c0-1.3-0.4-1.8-1.3-1.8c-0.5,0-1.1,0.3-1.7,1v4.9h-1.2v-4.2c0-1.3-0.4-1.8-1.3-1.8
			c-0.5,0-1.1,0.3-1.7,1v4.9h-1.2V67.5z"/>
		<path class="st0" d="M51.5,72.5c0-1.5,1.3-2.2,4.2-2.5c0-0.9-0.3-1.7-1.4-1.7c-0.8,0-1.5,0.4-2,0.7l-0.5-0.8
			c0.6-0.4,1.6-0.9,2.7-0.9c1.7,0,2.4,1.1,2.4,2.8v4.2h-1l-0.1-0.8h0c-0.6,0.5-1.4,1-2.3,1C52.4,74.5,51.5,73.8,51.5,72.5z
			 M55.7,72.6v-1.9c-2.3,0.3-3.1,0.8-3.1,1.7c0,0.8,0.5,1.1,1.2,1.1C54.5,73.5,55,73.2,55.7,72.6z"/>
		<path class="st0" d="M59,67.5h1l0.1,1h0c0.6-0.6,1.3-1.2,2.3-1.2c1.4,0,2.1,0.9,2.1,2.7v4.3h-1.2v-4.2c0-1.3-0.4-1.8-1.3-1.8
			c-0.7,0-1.2,0.4-1.9,1v4.9H59V67.5z"/>
		<path class="st0" d="M66,77.1l0.2-0.9c0.1,0,0.3,0.1,0.5,0.1c0.8,0,1.3-0.6,1.5-1.5l0.2-0.5l-2.7-6.8h1.2l1.4,3.8
			c0.2,0.6,0.4,1.3,0.7,1.9H69c0.2-0.6,0.4-1.3,0.6-1.9l1.2-3.8h1.1l-2.6,7.4c-0.5,1.4-1.2,2.4-2.5,2.4C66.5,77.2,66.2,77.2,66,77.1
			z"/>
		<path class="st0" d="M75.9,73.3h2v-6.6h-1.6V66c0.8-0.1,1.4-0.4,1.9-0.7h0.9v8H81v1h-5V73.3z"/>
		<path class="st0" d="M82.5,70.2c0-3.6,1.6-5,3.4-5c1,0,1.7,0.4,2.2,0.9l-0.6,0.7c-0.4-0.4-0.9-0.7-1.5-0.7c-1.3,0-2.4,1-2.4,4
			c0,2.2,0.7,3.4,2,3.4c0.9,0,1.6-0.8,1.6-2c0-1.2-0.5-1.9-1.7-1.9c-0.6,0-1.3,0.3-1.9,1.3l0-0.9c0.6-0.8,1.4-1.2,2.2-1.2
			c1.5,0,2.5,0.9,2.5,2.8c0,1.7-1.2,2.9-2.6,2.9C83.8,74.5,82.5,73,82.5,70.2z"/>
		<path class="st0" d="M89.9,73.3h2v-6.6h-1.6V66c0.8-0.1,1.4-0.4,1.9-0.7h0.9v8h1.8v1h-5V73.3z"/>
	</g>
</g>
<g>
	<g class="st14">
		<path class="st0" d="M677.2,505.8c0-3,1.8-4.8,4.2-4.8c1.3,0,2.1,0.6,2.7,1.1l-0.6,0.8c-0.5-0.5-1.1-0.9-2-0.9c-1.9,0-3,1.4-3,3.7
			c0,2.3,1.1,3.8,3.1,3.8c0.7,0,1.3-0.2,1.7-0.5v-2.4h-1.9v-1h3v3.9c-0.6,0.6-1.6,1.1-2.8,1.1C678.9,510.6,677.2,508.8,677.2,505.8z
			"/>
		<path class="st0" d="M685.8,507c0-2.2,1.5-3.6,3.1-3.6c1.7,0,2.7,1.2,2.7,3.2c0,0.2,0,0.5-0.1,0.7h-4.6c0.1,1.4,1,2.4,2.3,2.4
			c0.7,0,1.2-0.2,1.7-0.5l0.4,0.8c-0.6,0.4-1.3,0.7-2.2,0.7C687.2,510.6,685.8,509.2,685.8,507z M690.5,506.4c0-1.4-0.6-2.1-1.7-2.1
			c-1,0-1.8,0.8-2,2.1H690.5z"/>
		<path class="st0" d="M693.2,503.6h1l0.1,1.2h0c0.5-0.9,1.2-1.4,1.9-1.4c0.3,0,0.5,0,0.7,0.1l-0.2,1c-0.2-0.1-0.4-0.1-0.7-0.1
			c-0.6,0-1.3,0.4-1.7,1.6v4.4h-1.2V503.6z"/>
		<path class="st0" d="M698.1,503.6h1l0.1,1h0c0.6-0.6,1.3-1.2,2.1-1.2c1,0,1.6,0.5,1.9,1.3c0.7-0.8,1.4-1.3,2.2-1.3
			c1.4,0,2.1,0.9,2.1,2.7v4.3h-1.2v-4.2c0-1.3-0.4-1.8-1.3-1.8c-0.5,0-1.1,0.3-1.7,1v4.9h-1.2v-4.2c0-1.3-0.4-1.8-1.3-1.8
			c-0.5,0-1.1,0.3-1.7,1v4.9h-1.2V503.6z"/>
		<path class="st0" d="M709.3,508.6c0-1.5,1.3-2.2,4.2-2.5c0-0.9-0.3-1.7-1.4-1.7c-0.8,0-1.5,0.4-2,0.7l-0.5-0.8
			c0.6-0.4,1.6-0.9,2.7-0.9c1.7,0,2.4,1.1,2.4,2.8v4.2h-1l-0.1-0.8h0c-0.6,0.5-1.4,1-2.3,1C710.1,510.6,709.3,509.8,709.3,508.6z
			 M713.5,508.7v-1.9c-2.3,0.3-3.1,0.8-3.1,1.7c0,0.8,0.5,1.1,1.2,1.1C712.3,509.6,712.8,509.3,713.5,508.7z"/>
		<path class="st0" d="M716.8,503.6h1l0.1,1h0c0.6-0.6,1.3-1.2,2.3-1.2c1.4,0,2.1,0.9,2.1,2.7v4.3H721v-4.2c0-1.3-0.4-1.8-1.3-1.8
			c-0.7,0-1.2,0.4-1.9,1v4.9h-1.2V503.6z"/>
		<path class="st0" d="M723.7,513.2l0.2-0.9c0.1,0,0.3,0.1,0.5,0.1c0.8,0,1.3-0.6,1.5-1.5l0.2-0.5l-2.7-6.8h1.2l1.4,3.8
			c0.2,0.6,0.4,1.3,0.7,1.9h0.1c0.2-0.6,0.4-1.3,0.6-1.9l1.2-3.8h1.1l-2.6,7.4c-0.5,1.4-1.2,2.4-2.5,2.4
			C724.2,513.3,723.9,513.3,723.7,513.2z"/>
		<path class="st0" d="M733.2,509.7c2.7-2.7,4.2-4.3,4.2-5.7c0-1-0.6-1.7-1.7-1.7c-0.7,0-1.4,0.5-1.9,1.1l-0.7-0.7
			c0.7-0.8,1.6-1.4,2.7-1.4c1.7,0,2.7,1,2.7,2.6c0,1.7-1.5,3.3-3.6,5.6c0.5,0,1-0.1,1.5-0.1h2.6v1h-5.8V509.7z"/>
		<path class="st0" d="M744.6,502.4h-4.4v-1h5.8v0.7c-2.1,2.7-2.6,4.7-2.7,8.2H742C742.2,507,742.9,504.9,744.6,502.4z"/>
	</g>
</g>
<g>
	<g class="st14">
		<path class="st0" d="M1.4,104.1h1.2l3.3,5.8l1,1.9H7c-0.1-0.9-0.1-2-0.1-2.9v-4.8h1.1v9.2H6.7l-3.3-5.8l-1-1.9H2.3
			c0.1,0.9,0.1,1.9,0.1,2.9v4.8H1.4V104.1z"/>
		<path class="st0" d="M9.8,109.9c0-2.2,1.5-3.6,3.1-3.6c1.7,0,2.7,1.2,2.7,3.2c0,0.2,0,0.5-0.1,0.7H11c0.1,1.4,1,2.4,2.3,2.4
			c0.7,0,1.2-0.2,1.7-0.5l0.4,0.8c-0.6,0.4-1.3,0.7-2.2,0.7C11.3,113.5,9.8,112.2,9.8,109.9z M14.6,109.4c0-1.4-0.6-2.1-1.7-2.1
			c-1,0-1.8,0.8-2,2.1H14.6z"/>
		<path class="st0" d="M17.5,111.2v-3.8h-1v-0.9l1.1-0.1l0.1-1.9h1v1.9h1.8v0.9h-1.8v3.8c0,0.8,0.3,1.3,1.1,1.3
			c0.2,0,0.6-0.1,0.8-0.2l0.2,0.9c-0.4,0.1-0.8,0.3-1.3,0.3C18,113.5,17.5,112.6,17.5,111.2z"/>
		<path class="st0" d="M22,103.4h1.2v2.7l0,1.4c0.6-0.6,1.3-1.1,2.3-1.1c1.4,0,2.1,0.9,2.1,2.7v4.3h-1.2v-4.2c0-1.3-0.4-1.8-1.3-1.8
			c-0.7,0-1.2,0.4-1.9,1v4.9H22V103.4z"/>
		<path class="st0" d="M29.1,109.9c0-2.2,1.5-3.6,3.1-3.6c1.7,0,2.7,1.2,2.7,3.2c0,0.2,0,0.5-0.1,0.7h-4.6c0.1,1.4,1,2.4,2.3,2.4
			c0.7,0,1.2-0.2,1.7-0.5l0.4,0.8c-0.6,0.4-1.3,0.7-2.2,0.7C30.6,113.5,29.1,112.2,29.1,109.9z M33.9,109.4c0-1.4-0.6-2.1-1.7-2.1
			c-1,0-1.8,0.8-2,2.1H33.9z"/>
		<path class="st0" d="M36.6,106.5h1l0.1,1.2h0c0.5-0.9,1.2-1.4,1.9-1.4c0.3,0,0.5,0,0.7,0.1l-0.2,1c-0.2-0.1-0.4-0.1-0.7-0.1
			c-0.6,0-1.3,0.4-1.7,1.6v4.4h-1.2V106.5z"/>
		<path class="st0" d="M41.4,112v-8.6h1.2v8.7c0,0.4,0.2,0.5,0.3,0.5c0.1,0,0.1,0,0.3,0l0.2,0.9c-0.2,0.1-0.4,0.1-0.7,0.1
			C41.8,113.5,41.4,113,41.4,112z"/>
		<path class="st0" d="M44.6,111.6c0-1.5,1.3-2.2,4.2-2.5c0-0.9-0.3-1.7-1.4-1.7c-0.8,0-1.5,0.4-2,0.7l-0.5-0.8
			c0.6-0.4,1.6-0.9,2.7-0.9c1.7,0,2.4,1.1,2.4,2.8v4.2h-1l-0.1-0.8h0c-0.6,0.5-1.4,1-2.3,1C45.4,113.5,44.6,112.8,44.6,111.6z
			 M48.7,111.7v-1.9c-2.3,0.3-3.1,0.8-3.1,1.7c0,0.8,0.5,1.1,1.2,1.1C47.5,112.6,48.1,112.3,48.7,111.7z"/>
		<path class="st0" d="M52,106.5h1l0.1,1h0c0.6-0.6,1.3-1.2,2.3-1.2c1.4,0,2.1,0.9,2.1,2.7v4.3h-1.2v-4.2c0-1.3-0.4-1.8-1.3-1.8
			c-0.7,0-1.2,0.4-1.9,1v4.9H52V106.5z"/>
		<path class="st0" d="M59.2,109.9c0-2.2,1.4-3.6,2.9-3.6c0.8,0,1.3,0.3,1.9,0.8l0-1.2v-2.6h1.2v10h-1l-0.1-0.8h0
			c-0.5,0.5-1.3,1-2.1,1C60.3,113.5,59.2,112.2,59.2,109.9z M64,111.6V108c-0.6-0.5-1.1-0.7-1.7-0.7c-1.1,0-2,1.1-2,2.6
			c0,1.6,0.7,2.6,1.9,2.6C62.9,112.5,63.4,112.2,64,111.6z"/>
		<path class="st0" d="M66.7,112.6l0.6-0.8c0.6,0.5,1.2,0.8,2,0.8c0.9,0,1.3-0.5,1.3-1.1c0-0.7-0.8-1-1.6-1.3c-1-0.3-2-0.8-2-2
			c0-1.1,0.9-1.9,2.3-1.9c0.8,0,1.6,0.3,2.1,0.8l-0.6,0.7c-0.5-0.3-1-0.6-1.6-0.6c-0.9,0-1.3,0.5-1.3,1c0,0.6,0.7,0.9,1.5,1.2
			c1,0.4,2.1,0.8,2.1,2.1c0,1.1-0.9,2-2.5,2C68.3,113.5,67.4,113.1,66.7,112.6z"/>
		<path class="st0" d="M76.1,112.4h2v-6.6h-1.6v-0.7c0.8-0.1,1.4-0.4,1.9-0.7h0.9v8h1.8v1h-5V112.4z"/>
		<path class="st0" d="M86.2,107.4c0-0.5,0-1.2,0.1-1.7h-0.1c-0.2,0.4-0.5,0.8-0.7,1.3l-2.1,3.1h5.1v0.9h-6.3v-0.8l3.8-5.7h1.3v8.9
			h-1.1V107.4z"/>
		<path class="st0" d="M89.6,112.6l0.6-0.7c0.4,0.4,0.9,0.7,1.5,0.7c1.3,0,2.4-1,2.4-4c0-2.2-0.7-3.4-2-3.4c-0.9,0-1.6,0.8-1.6,2
			c0,1.2,0.5,1.9,1.7,1.9c0.6,0,1.3-0.3,1.9-1.3l0,0.9c-0.6,0.8-1.4,1.2-2.2,1.2c-1.5,0-2.5-0.9-2.5-2.8c0-1.7,1.2-2.9,2.6-2.9
			c1.8,0,3.1,1.4,3.1,4.3c0,3.6-1.6,5-3.4,5C90.8,113.5,90.1,113.1,89.6,112.6z"/>
	</g>
</g>
<g>
	<g class="st14">
		<path class="st0" d="M677.8,517.3h1.2l3.3,5.8l1,1.9h0.1c-0.1-0.9-0.1-2-0.1-2.9v-4.8h1.1v9.2h-1.2l-3.3-5.8l-1-1.9h-0.1
			c0.1,0.9,0.1,1.9,0.1,2.9v4.8h-1.1V517.3z"/>
		<path class="st0" d="M686.2,523.1c0-2.2,1.5-3.6,3.1-3.6c1.7,0,2.7,1.2,2.7,3.2c0,0.2,0,0.5-0.1,0.7h-4.6c0.1,1.4,1,2.4,2.3,2.4
			c0.7,0,1.2-0.2,1.7-0.5l0.4,0.8c-0.6,0.4-1.3,0.7-2.2,0.7C687.6,526.7,686.2,525.4,686.2,523.1z M691,522.6c0-1.4-0.6-2.1-1.7-2.1
			c-1,0-1.8,0.8-2,2.1H691z"/>
		<path class="st0" d="M693.9,524.4v-3.8h-1v-0.9l1.1-0.1l0.1-1.9h1v1.9h1.8v0.9H695v3.8c0,0.8,0.3,1.3,1.1,1.3
			c0.2,0,0.6-0.1,0.8-0.2l0.2,0.9c-0.4,0.1-0.8,0.3-1.3,0.3C694.3,526.7,693.9,525.8,693.9,524.4z"/>
		<path class="st0" d="M698.4,516.6h1.2v2.7l0,1.4c0.6-0.6,1.3-1.1,2.3-1.1c1.4,0,2.1,0.9,2.1,2.7v4.3h-1.2v-4.2
			c0-1.3-0.4-1.8-1.3-1.8c-0.7,0-1.2,0.4-1.9,1v4.9h-1.2V516.6z"/>
		<path class="st0" d="M705.5,523.1c0-2.2,1.5-3.6,3.1-3.6c1.7,0,2.7,1.2,2.7,3.2c0,0.2,0,0.5-0.1,0.7h-4.6c0.1,1.4,1,2.4,2.3,2.4
			c0.7,0,1.2-0.2,1.7-0.5l0.4,0.8c-0.6,0.4-1.3,0.7-2.2,0.7C706.9,526.7,705.5,525.4,705.5,523.1z M710.3,522.6
			c0-1.4-0.6-2.1-1.7-2.1c-1,0-1.8,0.8-2,2.1H710.3z"/>
		<path class="st0" d="M712.9,519.7h1l0.1,1.2h0c0.5-0.9,1.2-1.4,1.9-1.4c0.3,0,0.5,0,0.7,0.1l-0.2,1c-0.2-0.1-0.4-0.1-0.7-0.1
			c-0.6,0-1.3,0.4-1.7,1.6v4.4h-1.2V519.7z"/>
		<path class="st0" d="M717.8,525.2v-8.6h1.2v8.7c0,0.4,0.2,0.5,0.3,0.5c0.1,0,0.1,0,0.3,0l0.2,0.9c-0.2,0.1-0.4,0.1-0.7,0.1
			C718.2,526.7,717.8,526.2,717.8,525.2z"/>
		<path class="st0" d="M720.9,524.8c0-1.5,1.3-2.2,4.2-2.5c0-0.9-0.3-1.7-1.4-1.7c-0.8,0-1.5,0.4-2,0.7l-0.5-0.8
			c0.6-0.4,1.6-0.9,2.7-0.9c1.7,0,2.4,1.1,2.4,2.8v4.2h-1l-0.1-0.8h0c-0.6,0.5-1.4,1-2.3,1C721.8,526.7,720.9,526,720.9,524.8z
			 M725.1,524.9V523c-2.3,0.3-3.1,0.8-3.1,1.7c0,0.8,0.5,1.1,1.2,1.1C723.9,525.8,724.5,525.5,725.1,524.9z"/>
		<path class="st0" d="M728.4,519.7h1l0.1,1h0c0.6-0.6,1.3-1.2,2.3-1.2c1.4,0,2.1,0.9,2.1,2.7v4.3h-1.2v-4.2c0-1.3-0.4-1.8-1.3-1.8
			c-0.7,0-1.2,0.4-1.9,1v4.9h-1.2V519.7z"/>
		<path class="st0" d="M735.6,523.1c0-2.2,1.4-3.6,2.9-3.6c0.8,0,1.3,0.3,1.9,0.8l0-1.2v-2.6h1.2v10h-1l-0.1-0.8h0
			c-0.5,0.5-1.3,1-2.1,1C736.7,526.7,735.6,525.4,735.6,523.1z M740.4,524.8v-3.6c-0.6-0.5-1.1-0.7-1.7-0.7c-1.1,0-2,1.1-2,2.6
			c0,1.6,0.7,2.6,1.9,2.6C739.3,525.7,739.8,525.4,740.4,524.8z"/>
		<path class="st0" d="M743.1,525.8l0.6-0.8c0.6,0.5,1.2,0.8,2,0.8c0.9,0,1.3-0.5,1.3-1.1c0-0.7-0.8-1-1.6-1.3c-1-0.3-2-0.8-2-2
			c0-1.1,0.9-1.9,2.3-1.9c0.8,0,1.6,0.3,2.1,0.8l-0.6,0.7c-0.5-0.3-1-0.6-1.6-0.6c-0.9,0-1.3,0.5-1.3,1c0,0.6,0.7,0.9,1.5,1.2
			c1,0.4,2.1,0.8,2.1,2.1c0,1.1-0.9,2-2.5,2C744.7,526.7,743.7,526.3,743.1,525.8z"/>
		<path class="st0" d="M751.9,525.9c2.7-2.7,4.2-4.3,4.2-5.7c0-1-0.6-1.7-1.7-1.7c-0.7,0-1.4,0.5-1.9,1.1l-0.7-0.7
			c0.7-0.8,1.6-1.4,2.7-1.4c1.7,0,2.7,1,2.7,2.6c0,1.7-1.5,3.3-3.6,5.6c0.5,0,1-0.1,1.5-0.1h2.6v1h-5.8V525.9z"/>
		<path class="st0" d="M758.9,525.9c2.7-2.7,4.2-4.3,4.2-5.7c0-1-0.6-1.7-1.7-1.7c-0.7,0-1.4,0.5-1.9,1.1l-0.7-0.7
			c0.7-0.8,1.6-1.4,2.7-1.4c1.7,0,2.7,1,2.7,2.6c0,1.7-1.5,3.3-3.6,5.6c0.5,0,1-0.1,1.5-0.1h2.6v1h-5.8V525.9z"/>
	</g>
</g>
</svg>
