<svg xmlns="http://www.w3.org/2000/svg" width="350" height="350"><rect width="350" height="350" x="0" y="0" fill="#ffffff" id="backgorund"/><g id="viz"><g transform="translate(0,0)" clip-path="url(#serieClipPath)"><g text-anchor="middle" style="font-family: Arial, sans-serif; font-size: 12px; fill: rgb(123, 123, 123); font-weight: bold;"><g transform="translate(100,40)"><text y="-9">to_turkey</text><line y1="0" y2="-6" stroke="currentColor"/></g><g transform="translate(250,40)"><text y="-9">from_turkey</text><line y1="0" y2="-6" stroke="currentColor"/></g></g><g><g id="Belgium"><line x1="100" x2="250" y1="116.33136094674555" y2="308.0473372781065" stroke="#f8e71c" fill="none"/><circle cx="100" cy="116.33136094674555" r="2.5" fill="#f8e71c"/><circle cx="250" cy="308.0473372781065" r="2.5" fill="#f8e71c"/></g><g id="France"><line x1="100" x2="250" y1="40" y2="340" stroke="#ffba0e" fill="none"/><circle cx="100" cy="40" r="2.5" fill="#ffba0e"/><circle cx="250" cy="340" r="2.5" fill="#ffba0e"/></g><g id="Germany"><line x1="100" x2="250" y1="55.97633136094676" y2="293.8461538461538" stroke="#a0732c" fill="none"/><circle cx="100" cy="55.97633136094676" r="2.5" fill="#a0732c"/><circle cx="250" cy="293.8461538461538" r="2.5" fill="#a0732c"/></g><g id="Netherlands"><line x1="100" x2="250" y1="77.27810650887574" y2="302.72189349112426" stroke="#f8c91c" fill="none"/><circle cx="100" cy="77.27810650887574" r="2.5" fill="#f8c91c"/><circle cx="250" cy="302.72189349112426" r="2.5" fill="#f8c91c"/></g></g><g><text transform="translate(93.5,121.33136094674555)" text-anchor="end" style="font-family: Arial, sans-serif; font-size: 10px; fill: black; font-weight: normal;">Belgium 127</text><text transform="translate(256.5,316.5335001343562)" text-anchor="start" style="font-family: Arial, sans-serif; font-size: 10px; fill: black; font-weight: normal;">Belgium 19</text><text transform="translate(93.5,45)" text-anchor="end" style="font-family: Arial, sans-serif; font-size: 10px; fill: black; font-weight: normal;">France 170</text><text transform="translate(256.5,345)" text-anchor="start" style="font-family: Arial, sans-serif; font-size: 10px; fill: black; font-weight: normal;">France 1</text><text transform="translate(93.5,60.97633136094676)" text-anchor="end" style="font-family: Arial, sans-serif; font-size: 10px; fill: black; font-weight: normal;">Germany 161</text><text transform="translate(256.5,296.5409422405145)" text-anchor="start" style="font-family: Arial, sans-serif; font-size: 10px; fill: black; font-weight: normal;">Germany 27</text><text transform="translate(93.5,82.27810650887574)" text-anchor="end" style="font-family: Arial, sans-serif; font-size: 10px; fill: black; font-weight: normal;">Netherlands 149</text><text transform="translate(256.5,306.5409422405145)" text-anchor="start" style="font-family: Arial, sans-serif; font-size: 10px; fill: black; font-weight: normal;">Netherlands 22</text></g><text x="5" y="5" style="font-family: Arial, sans-serif; font-size: 12px; fill: black; font-weight: bold; dominant-baseline: hanging;"/></g></g><clipPath id="serieClipPath"><rect x="0" y="0" width="350" height="350"/></clipPath></svg>