<svg xmlns="http://www.w3.org/2000/svg" width="350" height="400"><rect width="350" height="400" x="0" y="0" fill="#FFFFFF" id="backgorund"/><g id="viz"><g id="" transform="translate(0,0)" clip-path="url(#serieClipPath)"><g text-anchor="middle" style="font-family: Arial, sans-serif; font-size: 12px; fill: rgb(123, 123, 123); font-weight: bold;"><g transform="translate(80,40)"><text y="-9">to_turkey</text><line y1="0" y2="-6" stroke="currentColor"/></g><g transform="translate(270,40)"><text y="-9">from_turkey</text><line y1="0" y2="-6" stroke="currentColor"/></g></g><g><g id="Belgium"><line x1="80" x2="270" y1="129.0532544378698" y2="352.72189349112426" stroke="#1f77b4" fill="none"/><circle cx="80" cy="129.0532544378698" r="2.5" fill="#1f77b4"/><circle cx="270" cy="352.72189349112426" r="2.5" fill="#1f77b4"/></g><g id="France"><line x1="80" x2="270" y1="40" y2="390" stroke="#ff7f0e" fill="none"/><circle cx="80" cy="40" r="2.5" fill="#ff7f0e"/><circle cx="270" cy="390" r="2.5" fill="#ff7f0e"/></g><g id="Germany"><line x1="80" x2="270" y1="58.63905325443788" y2="336.15384615384613" stroke="#2ca02c" fill="none"/><circle cx="80" cy="58.63905325443788" r="2.5" fill="#2ca02c"/><circle cx="270" cy="336.15384615384613" r="2.5" fill="#2ca02c"/></g><g id="Netherlands"><line x1="80" x2="270" y1="83.49112426035502" y2="346.50887573964496" stroke="#d62728" fill="none"/><circle cx="80" cy="83.49112426035502" r="2.5" fill="#d62728"/><circle cx="270" cy="346.50887573964496" r="2.5" fill="#d62728"/></g></g><g><text transform="translate(73.5,134.0532544378698)" text-anchor="end" style="font-family: Arial, sans-serif; font-size: 10px; fill: black; font-weight: normal;">Belgium 127</text><text transform="translate(276.5,360.1260000597138)" text-anchor="start" style="font-family: Arial, sans-serif; font-size: 10px; fill: black; font-weight: normal;">Belgium 19</text><text transform="translate(73.5,45)" text-anchor="end" style="font-family: Arial, sans-serif; font-size: 10px; fill: black; font-weight: normal;">France 170</text><text transform="translate(276.5,395)" text-anchor="start" style="font-family: Arial, sans-serif; font-size: 10px; fill: black; font-weight: normal;">France 1</text><text transform="translate(73.5,63.63905325443788)" text-anchor="end" style="font-family: Arial, sans-serif; font-size: 10px; fill: black; font-weight: normal;">Germany 161</text><text transform="translate(276.5,340.1293076624508)" text-anchor="start" style="font-family: Arial, sans-serif; font-size: 10px; fill: black; font-weight: normal;">Germany 27</text><text transform="translate(73.5,88.49112426035502)" text-anchor="end" style="font-family: Arial, sans-serif; font-size: 10px; fill: black; font-weight: normal;">Netherlands 149</text><text transform="translate(276.5,350.1293076624508)" text-anchor="start" style="font-family: Arial, sans-serif; font-size: 10px; fill: black; font-weight: normal;">Netherlands 22</text></g><text x="5" y="5" style="font-family: Arial, sans-serif; font-size: 12px; fill: black; font-weight: bold; dominant-baseline: hanging;"/></g></g><clipPath id="serieClipPath"><rect x="0" y="0" width="350" height="400"/></clipPath></svg>