<?xml version="1.0" encoding="utf-8"?>
<!-- Generator: Adobe Illustrator 27.2.0, SVG Export Plug-In . SVG Version: 6.00 Build 0)  -->
<svg version="1.1" id="Layer_1" xmlns="http://www.w3.org/2000/svg" xmlns:xlink="http://www.w3.org/1999/xlink" x="0px" y="0px"
	 viewBox="0 0 750 428.4" style="enable-background:new 0 0 750 428.4;" xml:space="preserve">
<style type="text/css">
	.st0{fill:none;}
	.st1{clip-path:url(#SVGID_00000144296750209246840130000013975511587179240633_);}
	.st2{fill:none;stroke:#EBEBEB;stroke-width:0.53;stroke-linejoin:round;stroke-miterlimit:10;}
	.st3{fill:none;stroke:#EBEBEB;stroke-width:1.07;stroke-linejoin:round;stroke-miterlimit:10;}
	.st4{fill:#E9DDB1;}
	.st5{fill:none;stroke:#D4AF37;stroke-width:1.07;stroke-linejoin:round;stroke-miterlimit:10;}
	.st6{clip-path:url(#SVGID_00000169539469237813881350000004444050994616663467_);}
	.st7{enable-background:new    ;}
	.st8{fill:#4D4D4D;}
	.st9{clip-path:url(#SVGID_00000154414768086491679060000007040333711174193536_);}
	.st10{clip-path:url(#SVGID_00000129187457294315030260000010335699291304596393_);}
</style>
<rect x="-54.5" class="st0" width="846.8" height="451.6"/>
<g>
	<defs>
		<rect id="SVGID_1_" x="-54.5" width="846.8" height="451.6"/>
	</defs>
	<clipPath id="SVGID_00000005947364390817607940000008267229799930072992_">
		<use xlink:href="#SVGID_1_"  style="overflow:visible;"/>
	</clipPath>
</g>
<g>
	<defs>
		<rect id="SVGID_00000160899165224548650880000012427334517669591437_" x="-7.9" y="6.2" width="794" height="402"/>
	</defs>
	<clipPath id="SVGID_00000003072485169927911020000008609372348298269104_">
		<use xlink:href="#SVGID_00000160899165224548650880000012427334517669591437_"  style="overflow:visible;"/>
	</clipPath>
	<g style="clip-path:url(#SVGID_00000003072485169927911020000008609372348298269104_);">
		<line class="st2" x1="-7.9" y1="347.4" x2="786.1" y2="347.4"/>
		<line class="st2" x1="-7.9" y1="262.4" x2="786.1" y2="262.4"/>
		<line class="st2" x1="-7.9" y1="177.4" x2="786.1" y2="177.4"/>
		<line class="st2" x1="-7.9" y1="92.4" x2="786.1" y2="92.4"/>
		<line class="st2" x1="-7.9" y1="7.5" x2="786.1" y2="7.5"/>
		<line class="st2" x1="5.6" y1="408.2" x2="5.6" y2="6.2"/>
		<line class="st2" x1="34.7" y1="408.2" x2="34.7" y2="6.2"/>
		<line class="st2" x1="92.8" y1="408.2" x2="92.8" y2="6.2"/>
		<path class="st2" d="M150.9,6.2"/>
		<path class="st2" d="M150.9,408.2"/>
		<line class="st2" x1="209" y1="408.2" x2="209" y2="6.2"/>
		<line class="st2" x1="267.1" y1="408.2" x2="267.1" y2="6.2"/>
		<line class="st2" x1="325.2" y1="408.2" x2="325.2" y2="6.2"/>
		<line class="st2" x1="383.3" y1="408.2" x2="383.3" y2="6.2"/>
		<line class="st2" x1="441.4" y1="408.2" x2="441.4" y2="6.2"/>
		<line class="st2" x1="499.4" y1="408.2" x2="499.4" y2="6.2"/>
		<line class="st2" x1="557.5" y1="408.2" x2="557.5" y2="6.2"/>
		<line class="st2" x1="615.6" y1="408.2" x2="615.6" y2="6.2"/>
		<line class="st2" x1="673.7" y1="408.2" x2="673.7" y2="6.2"/>
		<line class="st2" x1="731.8" y1="408.2" x2="731.8" y2="6.2"/>
		<line class="st2" x1="760.9" y1="408.2" x2="760.9" y2="6.2"/>
		<line class="st3" x1="-7.9" y1="389.9" x2="786.1" y2="389.9"/>
		<line class="st3" x1="-7.9" y1="304.9" x2="786.1" y2="304.9"/>
		<line class="st3" x1="-7.9" y1="219.9" x2="786.1" y2="219.9"/>
		<line class="st3" x1="-7.9" y1="134.9" x2="786.1" y2="134.9"/>
		<line class="st3" x1="-7.9" y1="49.9" x2="786.1" y2="49.9"/>
		<line class="st3" x1="63.7" y1="408.2" x2="63.7" y2="6.2"/>
		<path class="st3" d="M121.8,6.2"/>
		<path class="st3" d="M121.8,408.2"/>
		<line class="st3" x1="179.9" y1="408.2" x2="179.9" y2="6.2"/>
		<line class="st3" x1="238" y1="408.2" x2="238" y2="6.2"/>
		<line class="st3" x1="296.1" y1="408.2" x2="296.1" y2="6.2"/>
		<line class="st3" x1="354.2" y1="408.2" x2="354.2" y2="6.2"/>
		<line class="st3" x1="412.3" y1="408.2" x2="412.3" y2="6.2"/>
		<line class="st3" x1="470.4" y1="408.2" x2="470.4" y2="6.2"/>
		<line class="st3" x1="528.5" y1="408.2" x2="528.5" y2="6.2"/>
		<line class="st3" x1="586.6" y1="408.2" x2="586.6" y2="6.2"/>
		<line class="st3" x1="644.7" y1="408.2" x2="644.7" y2="6.2"/>
		<line class="st3" x1="702.8" y1="408.2" x2="702.8" y2="6.2"/>
		<polygon class="st4" points="28.9,304.9 29.6,304.9 39.8,304.9 40.5,304.9 41.2,304.4 51.4,296.9 52.1,296.4 52.8,295.4 63,280.5 
			63.7,279.4 64.5,277.8 74.6,255.5 75.4,253.9 76.1,253.9 86.2,253.9 87,253.9 87.7,253.9 97.9,253.9 98.6,253.9 99.3,253.9 
			109.5,253.9 110.2,253.9 110.9,252.9 121.1,238 121.8,236.9 122.5,236.9 132.7,236.9 133.5,236.9 134.2,237.4 144.3,244.9 
			145.1,245.4 145.8,245.4 156,245.4 156.7,245.4 157.4,245.9 167.6,253.4 168.3,253.9 169,256 179.2,285.8 179.9,287.9 
			180.6,284.7 190.8,240.1 191.5,236.9 192.3,236.9 202.4,236.9 203.2,236.9 203.9,237.4 214.1,244.9 214.8,245.4 215.5,245.4 
			225.7,245.4 226.4,245.4 227.1,244.4 237.3,229.5 238,228.4 238.7,228.9 248.9,236.4 249.6,236.9 250.4,236.9 260.5,236.9 
			261.3,236.9 262,235.9 272.2,221 272.9,219.9 273.6,220.4 283.8,227.9 284.5,228.4 285.2,228.4 295.4,228.4 296.1,228.4 
			296.8,227.9 307,220.4 307.7,219.9 308.5,221 318.6,235.9 319.3,236.9 320.1,235.9 330.2,221 331,219.9 331.7,220.4 341.9,227.9 
			342.6,228.4 343.3,228.4 353.5,228.4 354.2,228.4 354.9,227.9 365.1,220.4 365.8,219.9 366.5,218.9 376.7,204 377.4,202.9 
			378.2,203.5 388.3,210.9 389.1,211.4 389.8,210.9 400,203.5 400.7,202.9 401.4,202.9 411.6,202.9 412.3,202.9 413,202.9 
			423.2,202.9 423.9,202.9 424.6,202.4 434.8,195 435.5,194.4 436.3,193.4 446.4,178.5 447.2,177.4 447.9,177.4 458.1,177.4 
			458.8,177.4 459.5,178.5 469.7,193.4 470.4,194.4 471.1,194.4 481.3,194.4 482,194.4 482.7,193.4 492.9,178.5 493.6,177.4 
			494.3,177.4 504.5,177.4 505.3,177.4 506,178.5 516.2,193.4 516.9,194.4 517.6,193.9 527.8,186.4 528.5,185.9 529.2,186.4 
			539.4,193.9 540.1,194.4 540.8,193.9 551,186.4 551.7,185.9 552.4,184.9 562.6,170 563.3,168.9 564.1,163.7 574.2,89.2 575,83.9 
			575.7,82.4 585.9,60 586.6,58.5 587.3,59 597.5,66.4 598.2,67 598.9,64.8 609.1,35.1 609.8,33 610.5,32.4 620.7,25 621.4,24.5 
			622.2,25 632.3,32.4 633.1,33 633.8,34.5 644,56.9 644.7,58.5 645.4,56.3 655.6,26.6 656.3,24.5 657,25 667.2,32.4 667.9,33 
			668.6,34.5 678.8,56.9 679.5,58.5 680.3,59.5 690.4,74.4 691.2,75.5 691.9,73.9 702,51.5 702.8,49.9 703.5,48.9 713.7,34 
			714.4,33 715.1,33 725.3,33 726,33 726.7,32.4 736.9,25 737.6,24.5 738.3,25.5 748.5,40.4 749.3,41.5 750,389.9 749.3,389.9 
			748.5,389.9 738.3,389.9 737.6,389.9 736.9,389.9 726.7,389.9 726,389.9 725.3,389.9 715.1,389.9 714.4,389.9 713.7,389.9 
			703.5,389.9 702.8,389.9 702,389.9 691.9,389.9 691.2,389.9 690.4,389.9 680.3,389.9 679.5,389.9 678.8,389.9 668.6,389.9 
			667.9,389.9 667.2,389.9 657,389.9 656.3,389.9 655.6,389.9 645.4,389.9 644.7,389.9 644,389.9 633.8,389.9 633.1,389.9 
			632.3,389.9 622.2,389.9 621.4,389.9 620.7,389.9 610.5,389.9 609.8,389.9 609.1,389.9 598.9,389.9 598.2,389.9 597.5,389.9 
			587.3,389.9 586.6,389.9 585.9,389.9 575.7,389.9 575,389.9 574.2,389.9 564.1,389.9 563.3,389.9 562.6,389.9 552.4,389.9 
			551.7,389.9 551,389.9 540.8,389.9 540.1,389.9 539.4,389.9 529.2,389.9 528.5,389.9 527.8,389.9 517.6,389.9 516.9,389.9 
			516.2,389.9 506,389.9 505.3,389.9 504.5,389.9 494.3,389.9 493.6,389.9 492.9,389.9 482.7,389.9 482,389.9 481.3,389.9 
			471.1,389.9 470.4,389.9 469.7,389.9 459.5,389.9 458.8,389.9 458.1,389.9 447.9,389.9 447.2,389.9 446.4,389.9 436.3,389.9 
			435.5,389.9 434.8,389.9 424.6,389.9 423.9,389.9 423.2,389.9 413,389.9 412.3,389.9 411.6,389.9 401.4,389.9 400.7,389.9 
			400,389.9 389.8,389.9 389.1,389.9 388.3,389.9 378.2,389.9 377.4,389.9 376.7,389.9 366.5,389.9 365.8,389.9 365.1,389.9 
			354.9,389.9 354.2,389.9 353.5,389.9 343.3,389.9 342.6,389.9 341.9,389.9 331.7,389.9 331,389.9 330.2,389.9 320.1,389.9 
			319.3,389.9 318.6,389.9 308.5,389.9 307.7,389.9 307,389.9 296.8,389.9 296.1,389.9 295.4,389.9 285.2,389.9 284.5,389.9 
			283.8,389.9 273.6,389.9 272.9,389.9 272.2,389.9 262,389.9 261.3,389.9 260.5,389.9 250.4,389.9 249.6,389.9 248.9,389.9 
			238.7,389.9 238,389.9 237.3,389.9 227.1,389.9 226.4,389.9 225.7,389.9 215.5,389.9 214.8,389.9 214.1,389.9 203.9,389.9 
			203.2,389.9 202.4,389.9 192.3,389.9 191.5,389.9 190.8,389.9 180.6,389.9 179.9,389.9 179.2,389.9 169,389.9 168.3,389.9 
			167.6,389.9 157.4,389.9 156.7,389.9 156,389.9 145.8,389.9 145.1,389.9 144.3,389.9 134.2,389.9 133.5,389.9 132.7,389.9 
			122.5,389.9 121.8,389.9 121.1,389.9 110.9,389.9 110.2,389.9 109.5,389.9 99.3,389.9 98.6,389.9 97.9,389.9 87.7,389.9 87,389.9 
			86.2,389.9 76.1,389.9 75.4,389.9 74.6,389.9 64.5,389.9 63.7,389.9 63,389.9 52.8,389.9 52.1,389.9 51.4,389.9 41.2,389.9 
			40.5,389.9 39.8,389.9 29.6,389.9 28.9,389.9 28.2,389.9 		"/>
		<polyline class="st5" points="28.9,304.9 29.6,304.9 39.8,304.9 40.5,304.9 41.2,304.4 51.4,296.9 52.1,296.4 52.8,295.4 
			63,280.5 63.7,279.4 64.5,277.8 74.6,255.5 75.4,253.9 76.1,253.9 86.2,253.9 87,253.9 87.7,253.9 97.9,253.9 98.6,253.9 
			99.3,253.9 109.5,253.9 110.2,253.9 110.9,252.9 121.1,238 121.8,236.9 122.5,236.9 132.7,236.9 133.5,236.9 134.2,237.4 
			144.3,244.9 145.1,245.4 145.8,245.4 156,245.4 156.7,245.4 157.4,245.9 167.6,253.4 168.3,253.9 169,256 179.2,285.8 
			179.9,287.9 180.6,284.7 190.8,240.1 191.5,236.9 192.3,236.9 202.4,236.9 203.2,236.9 203.9,237.4 214.1,244.9 214.8,245.4 
			215.5,245.4 225.7,245.4 226.4,245.4 227.1,244.4 237.3,229.5 238,228.4 238.7,228.9 248.9,236.4 249.6,236.9 250.4,236.9 
			260.5,236.9 261.3,236.9 262,235.9 272.2,221 272.9,219.9 273.6,220.4 283.8,227.9 284.5,228.4 285.2,228.4 295.4,228.4 
			296.1,228.4 296.8,227.9 307,220.4 307.7,219.9 308.5,221 318.6,235.9 319.3,236.9 320.1,235.9 330.2,221 331,219.9 331.7,220.4 
			341.9,227.9 342.6,228.4 343.3,228.4 353.5,228.4 354.2,228.4 354.9,227.9 365.1,220.4 365.8,219.9 366.5,218.9 376.7,204 
			377.4,202.9 378.2,203.5 388.3,210.9 389.1,211.4 389.8,210.9 400,203.5 400.7,202.9 401.4,202.9 411.6,202.9 412.3,202.9 
			413,202.9 423.2,202.9 423.9,202.9 424.6,202.4 434.8,195 435.5,194.4 436.3,193.4 446.4,178.5 447.2,177.4 447.9,177.4 
			458.1,177.4 458.8,177.4 459.5,178.5 469.7,193.4 470.4,194.4 471.1,194.4 481.3,194.4 482,194.4 482.7,193.4 492.9,178.5 
			493.6,177.4 494.3,177.4 504.5,177.4 505.3,177.4 506,178.5 516.2,193.4 516.9,194.4 517.6,193.9 527.8,186.4 528.5,185.9 
			529.2,186.4 539.4,193.9 540.1,194.4 540.8,193.9 551,186.4 551.7,185.9 552.4,184.9 562.6,170 563.3,168.9 564.1,163.7 
			574.2,89.2 575,83.9 575.7,82.4 585.9,60 586.6,58.5 587.3,59 597.5,66.4 598.2,67 598.9,64.8 609.1,35.1 609.8,33 610.5,32.4 
			620.7,25 621.4,24.5 622.2,25 632.3,32.4 633.1,33 633.8,34.5 644,56.9 644.7,58.5 645.4,56.3 655.6,26.6 656.3,24.5 657,25 
			667.2,32.4 667.9,33 668.6,34.5 678.8,56.9 679.5,58.5 680.3,59.5 690.4,74.4 691.2,75.5 691.9,73.9 702,51.5 702.8,49.9 
			703.5,48.9 713.7,34 714.4,33 715.1,33 725.3,33 726,33 726.7,32.4 736.9,25 737.6,24.5 738.3,25.5 748.5,40.4 749.3,41.5 		"/>
	</g>
</g>
<g>
	<defs>
		<rect id="SVGID_00000010990904584608496410000017008692296905007498_" x="-54.5" width="846.8" height="451.6"/>
	</defs>
	<clipPath id="SVGID_00000096043517803269872330000006253127260112600970_">
		<use xlink:href="#SVGID_00000010990904584608496410000017008692296905007498_"  style="overflow:visible;"/>
	</clipPath>
	<g style="clip-path:url(#SVGID_00000096043517803269872330000006253127260112600970_);">
		<g>
			<g class="st7">
				<path class="st8" d="M10.7,389.6c0-3.9,1.4-5.9,3.7-5.9s3.7,2.1,3.7,5.9c0,3.9-1.4,6-3.7,6S10.7,393.5,10.7,389.6z M16.6,389.6
					c0-3.4-0.9-4.7-2.3-4.7s-2.3,1.4-2.3,4.7c0,3.4,0.9,4.8,2.3,4.8S16.6,393,16.6,389.6z"/>
			</g>
		</g>
		<g>
			<g class="st7">
				<path class="st8" d="M1.2,309.2h2.6v-8.5H1.8v-1c1-0.2,1.8-0.5,2.5-0.8h1.1v10.3h2.4v1.2H1.2V309.2z"/>
				<path class="st8" d="M11.7,304.7c0-3.9,1.4-5.9,3.7-5.9s3.7,2.1,3.7,5.9c0,3.9-1.4,6-3.7,6S11.7,308.5,11.7,304.7z M17.7,304.7
					c0-3.4-0.9-4.7-2.3-4.7s-2.3,1.4-2.3,4.7c0,3.4,0.9,4.8,2.3,4.8S17.7,308,17.7,304.7z"/>
			</g>
		</g>
		<g>
			<g class="st7">
				<path class="st8" d="M0.5,224.6c3.5-3.5,5.4-5.5,5.4-7.4c0-1.3-0.7-2.2-2.2-2.2c-1,0-1.8,0.6-2.4,1.4l-0.9-0.8
					c1-1.1,2-1.8,3.5-1.8c2.1,0,3.5,1.3,3.5,3.4c0,2.2-2,4.3-4.7,7.2c0.6,0,1.3-0.1,1.9-0.1H8v1.3H0.5V224.6z"/>
				<path class="st8" d="M11.7,219.7c0-3.9,1.4-5.9,3.7-5.9s3.7,2.1,3.7,5.9c0,3.9-1.4,6-3.7,6S11.7,223.5,11.7,219.7z M17.7,219.7
					c0-3.4-0.9-4.7-2.3-4.7s-2.3,1.4-2.3,4.7c0,3.4,0.9,4.8,2.3,4.8S17.7,223.1,17.7,219.7z"/>
			</g>
		</g>
		<g>
			<g class="st7">
				<path class="st8" d="M0.3,139.1l0.7-1c0.7,0.7,1.6,1.4,2.9,1.4c1.4,0,2.4-0.8,2.4-2.1c0-1.4-0.9-2.3-3.7-2.3v-1.1
					c2.4,0,3.3-0.9,3.3-2.1c0-1.1-0.8-1.8-2-1.8c-1,0-1.8,0.5-2.5,1.2l-0.8-0.9c0.9-0.8,1.9-1.4,3.3-1.4c2,0,3.4,1.1,3.4,2.9
					c0,1.4-0.8,2.3-2.1,2.7v0.1c1.4,0.3,2.5,1.3,2.5,2.9c0,2.1-1.7,3.3-3.8,3.3C2.2,140.7,1.1,139.9,0.3,139.1z"/>
				<path class="st8" d="M11.7,134.7c0-3.9,1.4-5.9,3.7-5.9s3.7,2.1,3.7,5.9c0,3.9-1.4,6-3.7,6S11.7,138.5,11.7,134.7z M17.7,134.7
					c0-3.4-0.9-4.7-2.3-4.7s-2.3,1.4-2.3,4.7c0,3.4,0.9,4.8,2.3,4.8S17.7,138.1,17.7,134.7z"/>
			</g>
		</g>
		<g>
			<g class="st7">
				<path class="st8" d="M5.3,47.8c0-0.6,0-1.6,0.1-2.2H5.3c-0.3,0.5-0.6,1.1-0.9,1.6l-2.7,3.9h6.6v1.2H0.1v-1L5.1,44h1.7v11.5H5.3
					V47.8z"/>
				<path class="st8" d="M11.7,49.7c0-3.9,1.4-5.9,3.7-5.9s3.7,2.1,3.7,5.9c0,3.9-1.4,6-3.7,6S11.7,53.6,11.7,49.7z M17.7,49.7
					c0-3.4-0.9-4.7-2.3-4.7s-2.3,1.4-2.3,4.7c0,3.4,0.9,4.8,2.3,4.8S17.7,53.1,17.7,49.7z"/>
			</g>
		</g>
		<g>
			<g class="st7">
				<path class="st8" d="M44.6,411.6h2.6v-7.5h-2.1v-1.3c1.1-0.2,1.9-0.5,2.7-0.9h1.6v9.8h2.3v1.7h-6.9V411.6z"/>
				<path class="st8" d="M54.5,412.2l1.1-1.3c0.4,0.5,1.1,0.9,1.8,0.9c1.5,0,2.7-1.2,2.7-4.6c0-2.8-0.9-4-2.2-4
					c-1,0-1.7,0.8-1.7,2.2c0,1.4,0.7,2.1,1.8,2.1c0.7,0,1.5-0.4,2.1-1.4l0.1,1.5c-0.7,0.9-1.7,1.5-2.6,1.5c-2,0-3.4-1.2-3.4-3.6
					c0-2.3,1.6-3.8,3.6-3.8c2.2,0,4.2,1.7,4.2,5.6c0,4.5-2.2,6.3-4.5,6.3C56.1,413.5,55.1,413,54.5,412.2z"/>
				<path class="st8" d="M64.7,407.9c0-4.5,2.2-6.3,4.5-6.3c1.4,0,2.4,0.6,3.1,1.3l-1.1,1.3c-0.4-0.5-1.1-0.9-1.8-0.9
					c-1.5,0-2.7,1.2-2.7,4.6c0,2.8,0.9,4,2.2,4c1,0,1.7-0.8,1.7-2.2c0-1.4-0.7-2.1-1.8-2.1c-0.7,0-1.5,0.4-2.1,1.4l-0.1-1.5
					c0.7-0.9,1.7-1.5,2.6-1.5c2,0,3.4,1.2,3.4,3.6c0,2.3-1.6,3.8-3.6,3.8C66.6,413.5,64.7,411.8,64.7,407.9z"/>
				<path class="st8" d="M74.9,407.5c0-3.9,1.5-5.9,3.9-5.9s3.9,2,3.9,5.9c0,3.9-1.5,6-3.9,6S74.9,411.4,74.9,407.5z M80.8,407.5
					c0-3.3-0.8-4.3-1.9-4.3s-1.9,1-1.9,4.3s0.8,4.4,1.9,4.4S80.8,410.8,80.8,407.5z"/>
			</g>
		</g>
		<g>
			<g class="st7">
				<path class="st8" d="M102.7,411.6h2.6v-7.5h-2.1v-1.3c1.1-0.2,1.9-0.5,2.7-0.9h1.6v9.8h2.3v1.7h-6.9V411.6z"/>
				<path class="st8" d="M112.6,412.2l1.1-1.3c0.4,0.5,1.1,0.9,1.8,0.9c1.5,0,2.7-1.2,2.7-4.6c0-2.8-0.9-4-2.2-4
					c-1,0-1.7,0.8-1.7,2.2c0,1.4,0.7,2.1,1.8,2.1c0.7,0,1.5-0.4,2.1-1.4l0.1,1.5c-0.7,0.9-1.7,1.5-2.6,1.5c-2,0-3.4-1.2-3.4-3.6
					c0-2.3,1.6-3.8,3.6-3.8c2.2,0,4.2,1.7,4.2,5.6c0,4.5-2.2,6.3-4.5,6.3C114.2,413.5,113.2,413,112.6,412.2z"/>
				<path class="st8" d="M122.8,407.9c0-4.5,2.2-6.3,4.5-6.3c1.4,0,2.4,0.6,3.1,1.3l-1.1,1.3c-0.4-0.5-1.1-0.9-1.8-0.9
					c-1.5,0-2.7,1.2-2.7,4.6c0,2.8,0.9,4,2.2,4c1,0,1.7-0.8,1.7-2.2c0-1.4-0.7-2.1-1.8-2.1c-0.7,0-1.5,0.4-2.1,1.4l-0.1-1.5
					c0.7-0.9,1.7-1.5,2.6-1.5c2,0,3.4,1.2,3.4,3.6c0,2.3-1.6,3.8-3.6,3.8C124.7,413.5,122.8,411.8,122.8,407.9z"/>
				<path class="st8" d="M132.7,411.9l1-1.3c0.7,0.7,1.5,1.2,2.7,1.2c1.3,0,2.2-0.8,2.2-2.2c0-1.4-0.9-2.1-2.1-2.1
					c-0.7,0-1.1,0.2-1.8,0.6l-1-0.6l0.3-5.7h6.1v1.8h-4.3l-0.2,2.8c0.5-0.2,0.9-0.4,1.5-0.4c2,0,3.6,1.1,3.6,3.6c0,2.5-1.9,4-4,4
					C134.8,413.5,133.6,412.8,132.7,411.9z"/>
			</g>
		</g>
		<g>
			<g class="st7">
				<path class="st8" d="M160.8,411.6h2.6v-7.5h-2.1v-1.3c1.1-0.2,1.9-0.5,2.7-0.9h1.6v9.8h2.3v1.7h-6.9V411.6z"/>
				<path class="st8" d="M170.6,412.2l1.1-1.3c0.4,0.5,1.1,0.9,1.8,0.9c1.5,0,2.7-1.2,2.7-4.6c0-2.8-0.9-4-2.2-4
					c-1,0-1.7,0.8-1.7,2.2c0,1.4,0.7,2.1,1.8,2.1c0.7,0,1.5-0.4,2.1-1.4l0.1,1.5c-0.7,0.9-1.7,1.5-2.6,1.5c-2,0-3.4-1.2-3.4-3.6
					c0-2.3,1.6-3.8,3.6-3.8c2.2,0,4.2,1.7,4.2,5.6c0,4.5-2.2,6.3-4.5,6.3C172.3,413.5,171.3,413,170.6,412.2z"/>
				<path class="st8" d="M186.3,403.6h-5.4v-1.8h7.7v1.3c-2.7,3.3-3.2,5.7-3.4,10.2h-2.1C183.3,409.2,184.1,406.7,186.3,403.6z"/>
				<path class="st8" d="M191.1,407.5c0-3.9,1.5-5.9,3.9-5.9s3.9,2,3.9,5.9c0,3.9-1.5,6-3.9,6S191.1,411.4,191.1,407.5z M197,407.5
					c0-3.3-0.8-4.3-1.9-4.3s-1.9,1-1.9,4.3s0.8,4.4,1.9,4.4S197,410.8,197,407.5z"/>
			</g>
		</g>
		<g>
			<g class="st7">
				<path class="st8" d="M218.9,411.6h2.6v-7.5h-2.1v-1.3c1.1-0.2,1.9-0.5,2.7-0.9h1.6v9.8h2.3v1.7h-6.9V411.6z"/>
				<path class="st8" d="M228.7,412.2l1.1-1.3c0.4,0.5,1.1,0.9,1.8,0.9c1.5,0,2.7-1.2,2.7-4.6c0-2.8-0.9-4-2.2-4
					c-1,0-1.7,0.8-1.7,2.2c0,1.4,0.7,2.1,1.8,2.1c0.7,0,1.5-0.4,2.1-1.4l0.1,1.5c-0.7,0.9-1.7,1.5-2.6,1.5c-2,0-3.4-1.2-3.4-3.6
					c0-2.3,1.6-3.8,3.6-3.8c2.2,0,4.2,1.7,4.2,5.6c0,4.5-2.2,6.3-4.5,6.3C230.4,413.5,229.4,413,228.7,412.2z"/>
				<path class="st8" d="M244.4,403.6H239v-1.8h7.7v1.3c-2.7,3.3-3.2,5.7-3.4,10.2h-2.1C241.4,409.2,242.2,406.7,244.4,403.6z"/>
				<path class="st8" d="M248.9,411.9l1-1.3c0.7,0.7,1.5,1.2,2.7,1.2c1.3,0,2.2-0.8,2.2-2.2c0-1.4-0.9-2.1-2.1-2.1
					c-0.7,0-1.1,0.2-1.8,0.6l-1-0.6l0.3-5.7h6.1v1.8H252l-0.2,2.8c0.5-0.2,0.9-0.4,1.5-0.4c2,0,3.6,1.1,3.6,3.6c0,2.5-1.9,4-4,4
					C251,413.5,249.8,412.8,248.9,411.9z"/>
			</g>
		</g>
		<g>
			<g class="st7">
				<path class="st8" d="M277,411.6h2.6v-7.5h-2.1v-1.3c1.1-0.2,1.9-0.5,2.7-0.9h1.6v9.8h2.3v1.7H277V411.6z"/>
				<path class="st8" d="M286.8,412.2l1.1-1.3c0.4,0.5,1.1,0.9,1.8,0.9c1.5,0,2.7-1.2,2.7-4.6c0-2.8-0.9-4-2.2-4
					c-1,0-1.7,0.8-1.7,2.2c0,1.4,0.7,2.1,1.8,2.1c0.7,0,1.5-0.4,2.1-1.4l0.1,1.5c-0.7,0.9-1.7,1.5-2.6,1.5c-2,0-3.4-1.2-3.4-3.6
					c0-2.3,1.6-3.8,3.6-3.8c2.2,0,4.2,1.7,4.2,5.6c0,4.5-2.2,6.3-4.5,6.3C288.5,413.5,287.5,413,286.8,412.2z"/>
				<path class="st8" d="M297,410.4c0-1.4,1-2.4,2.1-3v-0.1c-0.9-0.6-1.6-1.5-1.6-2.7c0-1.9,1.5-3.1,3.5-3.1c2.1,0,3.4,1.3,3.4,3.1
					c0,1.1-0.8,2.1-1.5,2.6v0.1c1.1,0.6,2,1.4,2,3c0,1.8-1.6,3.1-3.9,3.1C298.7,413.5,297,412.2,297,410.4z M302.9,410.3
					c0-1.2-1.2-1.7-2.8-2.3c-0.7,0.5-1.2,1.3-1.2,2.2c0,1.1,0.9,1.9,2.1,1.9C302.1,412.1,302.9,411.4,302.9,410.3z M302.6,404.8
					c0-1-0.6-1.8-1.7-1.8c-0.9,0-1.6,0.6-1.6,1.6c0,1.1,1,1.7,2.3,2.2C302.3,406.2,302.6,405.6,302.6,404.8z"/>
				<path class="st8" d="M307.3,407.5c0-3.9,1.5-5.9,3.9-5.9s3.9,2,3.9,5.9c0,3.9-1.5,6-3.9,6S307.3,411.4,307.3,407.5z
					 M313.1,407.5c0-3.3-0.8-4.3-1.9-4.3s-1.9,1-1.9,4.3s0.8,4.4,1.9,4.4S313.1,410.8,313.1,407.5z"/>
			</g>
		</g>
		<g>
			<g class="st7">
				<path class="st8" d="M335.1,411.6h2.6v-7.5h-2.1v-1.3c1.1-0.2,1.9-0.5,2.7-0.9h1.6v9.8h2.3v1.7h-6.9V411.6z"/>
				<path class="st8" d="M344.9,412.2l1.1-1.3c0.4,0.5,1.1,0.9,1.8,0.9c1.5,0,2.7-1.2,2.7-4.6c0-2.8-0.9-4-2.2-4
					c-1,0-1.7,0.8-1.7,2.2c0,1.4,0.7,2.1,1.8,2.1c0.7,0,1.5-0.4,2.1-1.4l0.1,1.5c-0.7,0.9-1.7,1.5-2.6,1.5c-2,0-3.4-1.2-3.4-3.6
					c0-2.3,1.6-3.8,3.6-3.8c2.2,0,4.2,1.7,4.2,5.6c0,4.5-2.2,6.3-4.5,6.3C346.6,413.5,345.6,413,344.9,412.2z"/>
				<path class="st8" d="M355.1,410.4c0-1.4,1-2.4,2.1-3v-0.1c-0.9-0.6-1.6-1.5-1.6-2.7c0-1.9,1.5-3.1,3.5-3.1
					c2.1,0,3.4,1.3,3.4,3.1c0,1.1-0.8,2.1-1.5,2.6v0.1c1.1,0.6,2,1.4,2,3c0,1.8-1.6,3.1-3.9,3.1
					C356.8,413.5,355.1,412.2,355.1,410.4z M360.9,410.3c0-1.2-1.2-1.7-2.8-2.3c-0.7,0.5-1.2,1.3-1.2,2.2c0,1.1,0.9,1.9,2.1,1.9
					C360.2,412.1,360.9,411.4,360.9,410.3z M360.7,404.8c0-1-0.6-1.8-1.7-1.8c-0.9,0-1.6,0.6-1.6,1.6c0,1.1,1,1.7,2.3,2.2
					C360.4,406.2,360.7,405.6,360.7,404.8z"/>
				<path class="st8" d="M365.1,411.9l1-1.3c0.7,0.7,1.5,1.2,2.7,1.2c1.3,0,2.2-0.8,2.2-2.2c0-1.4-0.9-2.1-2.1-2.1
					c-0.7,0-1.1,0.2-1.8,0.6l-1-0.6l0.3-5.7h6.1v1.8h-4.3l-0.2,2.8c0.5-0.2,0.9-0.4,1.5-0.4c2,0,3.6,1.1,3.6,3.6c0,2.5-1.9,4-4,4
					C367.2,413.5,366,412.8,365.1,411.9z"/>
			</g>
		</g>
		<g>
			<g class="st7">
				<path class="st8" d="M393.2,411.6h2.6v-7.5h-2.1v-1.3c1.1-0.2,1.9-0.5,2.7-0.9h1.6v9.8h2.3v1.7h-6.9V411.6z"/>
				<path class="st8" d="M403,412.2l1.1-1.3c0.4,0.5,1.1,0.9,1.8,0.9c1.5,0,2.7-1.2,2.7-4.6c0-2.8-0.9-4-2.2-4c-1,0-1.7,0.8-1.7,2.2
					c0,1.4,0.7,2.1,1.8,2.1c0.7,0,1.5-0.4,2.1-1.4l0.1,1.5c-0.7,0.9-1.7,1.5-2.6,1.5c-2,0-3.4-1.2-3.4-3.6c0-2.3,1.6-3.8,3.6-3.8
					c2.2,0,4.2,1.7,4.2,5.6c0,4.5-2.2,6.3-4.5,6.3C404.7,413.5,403.7,413,403,412.2z"/>
				<path class="st8" d="M413.3,412.2l1.1-1.3c0.4,0.5,1.1,0.9,1.8,0.9c1.5,0,2.7-1.2,2.7-4.6c0-2.8-0.9-4-2.2-4
					c-1,0-1.7,0.8-1.7,2.2c0,1.4,0.7,2.1,1.8,2.1c0.7,0,1.5-0.4,2.1-1.4l0.1,1.5c-0.7,0.9-1.7,1.5-2.6,1.5c-2,0-3.4-1.2-3.4-3.6
					c0-2.3,1.6-3.8,3.6-3.8c2.2,0,4.2,1.7,4.2,5.6c0,4.5-2.2,6.3-4.5,6.3C415,413.5,414,413,413.3,412.2z"/>
				<path class="st8" d="M423.5,407.5c0-3.9,1.5-5.9,3.9-5.9s3.9,2,3.9,5.9c0,3.9-1.5,6-3.9,6S423.5,411.4,423.5,407.5z
					 M429.3,407.5c0-3.3-0.8-4.3-1.9-4.3c-1.1,0-1.9,1-1.9,4.3s0.8,4.4,1.9,4.4C428.5,411.9,429.3,410.8,429.3,407.5z"/>
			</g>
		</g>
		<g>
			<g class="st7">
				<path class="st8" d="M451.3,411.6h2.6v-7.5h-2.1v-1.3c1.1-0.2,1.9-0.5,2.7-0.9h1.6v9.8h2.3v1.7h-6.9V411.6z"/>
				<path class="st8" d="M461.1,412.2l1.1-1.3c0.4,0.5,1.1,0.9,1.8,0.9c1.5,0,2.7-1.2,2.7-4.6c0-2.8-0.9-4-2.2-4
					c-1,0-1.7,0.8-1.7,2.2c0,1.4,0.7,2.1,1.8,2.1c0.7,0,1.5-0.4,2.1-1.4l0.1,1.5c-0.7,0.9-1.7,1.5-2.6,1.5c-2,0-3.4-1.2-3.4-3.6
					c0-2.3,1.6-3.8,3.6-3.8c2.2,0,4.2,1.7,4.2,5.6c0,4.5-2.2,6.3-4.5,6.3C462.8,413.5,461.8,413,461.1,412.2z"/>
				<path class="st8" d="M471.4,412.2l1.1-1.3c0.4,0.5,1.1,0.9,1.8,0.9c1.5,0,2.7-1.2,2.7-4.6c0-2.8-0.9-4-2.2-4
					c-1,0-1.7,0.8-1.7,2.2c0,1.4,0.7,2.1,1.8,2.1c0.7,0,1.5-0.4,2.1-1.4l0.1,1.5c-0.7,0.9-1.7,1.5-2.6,1.5c-2,0-3.4-1.2-3.4-3.6
					c0-2.3,1.6-3.8,3.6-3.8c2.2,0,4.2,1.7,4.2,5.6c0,4.5-2.2,6.3-4.5,6.3C473.1,413.5,472.1,413,471.4,412.2z"/>
				<path class="st8" d="M481.3,411.9l1-1.3c0.7,0.7,1.5,1.2,2.7,1.2c1.3,0,2.2-0.8,2.2-2.2c0-1.4-0.9-2.1-2.1-2.1
					c-0.7,0-1.1,0.2-1.8,0.6l-1-0.6l0.3-5.7h6.1v1.8h-4.3l-0.2,2.8c0.5-0.2,0.9-0.4,1.5-0.4c2,0,3.6,1.1,3.6,3.6c0,2.5-1.9,4-4,4
					C483.4,413.5,482.2,412.8,481.3,411.9z"/>
			</g>
		</g>
		<g>
			<g class="st7">
				<path class="st8" d="M508.7,412.1c3.2-3.1,5.2-5.1,5.2-6.9c0-1.2-0.7-2-1.9-2c-0.9,0-1.6,0.6-2.2,1.3l-1.2-1.1
					c1-1.1,2.1-1.8,3.7-1.8c2.2,0,3.6,1.4,3.6,3.5c0,2-1.9,4.1-4.2,6.5c0.6-0.1,1.4-0.1,1.9-0.1h2.8v1.8h-7.8V412.1z"/>
				<path class="st8" d="M519.1,407.5c0-3.9,1.5-5.9,3.9-5.9s3.9,2,3.9,5.9c0,3.9-1.5,6-3.9,6S519.1,411.4,519.1,407.5z
					 M524.9,407.5c0-3.3-0.8-4.3-1.9-4.3c-1.1,0-1.9,1-1.9,4.3s0.8,4.4,1.9,4.4C524.1,411.9,524.9,410.8,524.9,407.5z"/>
				<path class="st8" d="M529.4,407.5c0-3.9,1.5-5.9,3.9-5.9s3.9,2,3.9,5.9c0,3.9-1.5,6-3.9,6S529.4,411.4,529.4,407.5z
					 M535.2,407.5c0-3.3-0.8-4.3-1.9-4.3c-1.1,0-1.9,1-1.9,4.3s0.8,4.4,1.9,4.4C534.4,411.9,535.2,410.8,535.2,407.5z"/>
				<path class="st8" d="M539.7,407.5c0-3.9,1.5-5.9,3.9-5.9s3.9,2,3.9,5.9c0,3.9-1.5,6-3.9,6S539.7,411.4,539.7,407.5z
					 M545.5,407.5c0-3.3-0.8-4.3-1.9-4.3c-1.1,0-1.9,1-1.9,4.3s0.8,4.4,1.9,4.4C544.7,411.9,545.5,410.8,545.5,407.5z"/>
			</g>
		</g>
		<g>
			<g class="st7">
				<path class="st8" d="M566.8,412.1c3.2-3.1,5.2-5.1,5.2-6.9c0-1.2-0.7-2-1.9-2c-0.9,0-1.6,0.6-2.2,1.3l-1.2-1.1
					c1-1.1,2.1-1.8,3.7-1.8c2.2,0,3.6,1.4,3.6,3.5c0,2-1.9,4.1-4.2,6.5c0.6-0.1,1.4-0.1,1.9-0.1h2.8v1.8h-7.8V412.1z"/>
				<path class="st8" d="M577.2,407.5c0-3.9,1.5-5.9,3.9-5.9s3.9,2,3.9,5.9c0,3.9-1.5,6-3.9,6S577.2,411.4,577.2,407.5z M583,407.5
					c0-3.3-0.8-4.3-1.9-4.3c-1.1,0-1.9,1-1.9,4.3s0.8,4.4,1.9,4.4C582.2,411.9,583,410.8,583,407.5z"/>
				<path class="st8" d="M587.5,407.5c0-3.9,1.5-5.9,3.9-5.9s3.9,2,3.9,5.9c0,3.9-1.5,6-3.9,6S587.5,411.4,587.5,407.5z
					 M593.3,407.5c0-3.3-0.8-4.3-1.9-4.3c-1.1,0-1.9,1-1.9,4.3s0.8,4.4,1.9,4.4C592.5,411.9,593.3,410.8,593.3,407.5z"/>
				<path class="st8" d="M597.5,411.9l1-1.3c0.7,0.7,1.5,1.2,2.7,1.2c1.3,0,2.2-0.8,2.2-2.2c0-1.4-0.9-2.1-2.1-2.1
					c-0.7,0-1.1,0.2-1.8,0.6l-1-0.6l0.3-5.7h6.1v1.8h-4.3l-0.2,2.8c0.5-0.2,0.9-0.4,1.5-0.4c2,0,3.6,1.1,3.6,3.6c0,2.5-1.9,4-4,4
					C599.5,413.5,598.3,412.8,597.5,411.9z"/>
			</g>
		</g>
		<g>
			<g class="st7">
				<path class="st8" d="M624.9,412.1c3.2-3.1,5.2-5.1,5.2-6.9c0-1.2-0.7-2-1.9-2c-0.9,0-1.6,0.6-2.2,1.3l-1.2-1.1
					c1-1.1,2.1-1.8,3.7-1.8c2.2,0,3.6,1.4,3.6,3.5c0,2-1.9,4.1-4.2,6.5c0.6-0.1,1.4-0.1,1.9-0.1h2.8v1.8h-7.8V412.1z"/>
				<path class="st8" d="M635.3,407.5c0-3.9,1.5-5.9,3.9-5.9s3.9,2,3.9,5.9c0,3.9-1.5,6-3.9,6S635.3,411.4,635.3,407.5z
					 M641.1,407.5c0-3.3-0.8-4.3-1.9-4.3c-1.1,0-1.9,1-1.9,4.3s0.8,4.4,1.9,4.4C640.3,411.9,641.1,410.8,641.1,407.5z"/>
				<path class="st8" d="M646.2,411.6h2.6v-7.5h-2.1v-1.3c1.1-0.2,1.9-0.5,2.7-0.9h1.6v9.8h2.3v1.7h-6.9V411.6z"/>
				<path class="st8" d="M655.9,407.5c0-3.9,1.5-5.9,3.9-5.9s3.9,2,3.9,5.9c0,3.9-1.5,6-3.9,6S655.9,411.4,655.9,407.5z
					 M661.7,407.5c0-3.3-0.8-4.3-1.9-4.3c-1.1,0-1.9,1-1.9,4.3s0.8,4.4,1.9,4.4C660.9,411.9,661.7,410.8,661.7,407.5z"/>
			</g>
		</g>
		<g>
			<g class="st7">
				<path class="st8" d="M683,412.1c3.2-3.1,5.2-5.1,5.2-6.9c0-1.2-0.7-2-1.9-2c-0.9,0-1.6,0.6-2.2,1.3l-1.2-1.1
					c1-1.1,2.1-1.8,3.7-1.8c2.2,0,3.6,1.4,3.6,3.5c0,2-1.9,4.1-4.2,6.5c0.6-0.1,1.4-0.1,1.9-0.1h2.8v1.8H683V412.1z"/>
				<path class="st8" d="M693.4,407.5c0-3.9,1.5-5.9,3.9-5.9s3.9,2,3.9,5.9c0,3.9-1.5,6-3.9,6S693.4,411.4,693.4,407.5z
					 M699.2,407.5c0-3.3-0.8-4.3-1.9-4.3c-1.1,0-1.9,1-1.9,4.3s0.8,4.4,1.9,4.4C698.4,411.9,699.2,410.8,699.2,407.5z"/>
				<path class="st8" d="M704.3,411.6h2.6v-7.5h-2.1v-1.3c1.1-0.2,1.9-0.5,2.7-0.9h1.6v9.8h2.3v1.7h-6.9V411.6z"/>
				<path class="st8" d="M713.7,411.9l1-1.3c0.7,0.7,1.5,1.2,2.7,1.2c1.3,0,2.2-0.8,2.2-2.2c0-1.4-0.9-2.1-2.1-2.1
					c-0.7,0-1.1,0.2-1.8,0.6l-1-0.6l0.3-5.7h6.1v1.8h-4.3l-0.2,2.8c0.5-0.2,0.9-0.4,1.5-0.4c2,0,3.6,1.1,3.6,3.6c0,2.5-1.9,4-4,4
					C715.7,413.5,714.5,412.8,713.7,411.9z"/>
			</g>
		</g>
	</g>
</g>
<rect x="1002.2" y="-27.2" class="st0" width="350" height="350"/>
<g>
	<defs>
		<rect id="SVGID_00000165198702670790601770000007392255298630132910_" x="1002.2" y="-27.2" width="350" height="350"/>
	</defs>
	<clipPath id="SVGID_00000162349169642210576470000004409680383463101078_">
		<use xlink:href="#SVGID_00000165198702670790601770000007392255298630132910_"  style="overflow:visible;"/>
	</clipPath>
</g>
<g>
	<defs>
		<rect id="SVGID_00000034785680106743200900000008242446355842223005_" x="1043.5" y="-21.7" width="303.2" height="306"/>
	</defs>
	<clipPath id="SVGID_00000014602203237102441220000017270087297228464796_">
		<use xlink:href="#SVGID_00000034785680106743200900000008242446355842223005_"  style="overflow:visible;"/>
	</clipPath>
	<g style="clip-path:url(#SVGID_00000014602203237102441220000017270087297228464796_);">
		<line class="st2" x1="1043.5" y1="238" x2="1346.8" y2="238"/>
		<line class="st2" x1="1043.5" y1="173.3" x2="1346.8" y2="173.3"/>
		<line class="st2" x1="1043.5" y1="108.6" x2="1346.8" y2="108.6"/>
		<line class="st2" x1="1043.5" y1="43.9" x2="1346.8" y2="43.9"/>
		<line class="st2" x1="1043.5" y1="-20.8" x2="1346.8" y2="-20.8"/>
		<line class="st2" x1="1048.7" y1="284.3" x2="1048.7" y2="-21.7"/>
		<line class="st2" x1="1093.1" y1="284.3" x2="1093.1" y2="-21.7"/>
		<line class="st2" x1="1137.4" y1="284.3" x2="1137.4" y2="-21.7"/>
		<line class="st2" x1="1181.8" y1="284.3" x2="1181.8" y2="-21.7"/>
		<line class="st2" x1="1226.2" y1="284.3" x2="1226.2" y2="-21.7"/>
		<line class="st2" x1="1270.6" y1="284.3" x2="1270.6" y2="-21.7"/>
		<line class="st2" x1="1314.9" y1="284.3" x2="1314.9" y2="-21.7"/>
		<line class="st2" x1="1337.1" y1="284.3" x2="1337.1" y2="-21.7"/>
		<line class="st3" x1="1043.5" y1="270.4" x2="1346.8" y2="270.4"/>
		<line class="st3" x1="1043.5" y1="205.7" x2="1346.8" y2="205.7"/>
		<line class="st3" x1="1043.5" y1="141" x2="1346.8" y2="141"/>
		<line class="st3" x1="1043.5" y1="76.3" x2="1346.8" y2="76.3"/>
		<line class="st3" x1="1043.5" y1="11.6" x2="1346.8" y2="11.6"/>
		<line class="st3" x1="1070.9" y1="284.3" x2="1070.9" y2="-21.7"/>
		<line class="st3" x1="1115.3" y1="284.3" x2="1115.3" y2="-21.7"/>
		<line class="st3" x1="1159.6" y1="284.3" x2="1159.6" y2="-21.7"/>
		<line class="st3" x1="1204" y1="284.3" x2="1204" y2="-21.7"/>
		<line class="st3" x1="1248.4" y1="284.3" x2="1248.4" y2="-21.7"/>
		<line class="st3" x1="1292.8" y1="284.3" x2="1292.8" y2="-21.7"/>
		<polygon class="st4" points="1057.6,205.7 1057.8,205.7 1061.7,205.7 1062,205.7 1062.3,205.3 1066.2,199.6 1066.4,199.2 
			1066.7,198.4 1070.6,187.1 1070.9,186.3 1071.2,185.1 1075,168.1 1075.3,166.9 1075.6,166.9 1079.5,166.9 1079.8,166.9 
			1080,166.9 1083.9,166.9 1084.2,166.9 1084.5,166.9 1088.4,166.9 1088.6,166.9 1088.9,166.1 1092.8,154.7 1093.1,153.9 
			1093.3,153.9 1097.2,153.9 1097.5,153.9 1097.8,154.3 1101.7,160 1101.9,160.4 1102.2,160.4 1106.1,160.4 1106.4,160.4 
			1106.7,160.8 1110.5,166.5 1110.8,166.9 1111.1,168.5 1115,191.2 1115.3,192.8 1115.5,190.3 1119.4,156.3 1119.7,153.9 
			1120,153.9 1123.9,153.9 1124.1,153.9 1124.4,154.3 1128.3,160 1128.6,160.4 1128.8,160.4 1132.7,160.4 1133,160.4 1133.3,159.6 
			1137.2,148.3 1137.4,147.5 1137.7,147.9 1141.6,153.5 1141.9,153.9 1142.2,153.9 1146,153.9 1146.3,153.9 1146.6,153.1 
			1150.5,141.8 1150.8,141 1151,141.4 1154.9,147.1 1155.2,147.5 1155.5,147.5 1159.4,147.5 1159.6,147.5 1159.9,147.1 
			1163.8,141.4 1164.1,141 1164.3,141.8 1168.2,153.1 1168.5,153.9 1168.8,153.1 1172.7,141.8 1172.9,141 1173.2,141.4 
			1177.1,147.1 1177.4,147.5 1177.7,147.5 1181.5,147.5 1181.8,147.5 1182.1,147.1 1186,141.4 1186.3,141 1186.5,140.2 
			1190.4,128.9 1190.7,128.1 1191,128.5 1194.9,134.1 1195.1,134.5 1195.4,134.1 1199.3,128.5 1199.6,128.1 1199.8,128.1 
			1203.7,128.1 1204,128.1 1204.3,128.1 1208.2,128.1 1208.4,128.1 1208.7,127.7 1212.6,122 1212.9,121.6 1213.2,120.8 1217,109.4 
			1217.3,108.6 1217.6,108.6 1221.5,108.6 1221.8,108.6 1222,109.4 1225.9,120.8 1226.2,121.6 1226.5,121.6 1230.4,121.6 
			1230.6,121.6 1230.9,120.8 1234.8,109.4 1235.1,108.6 1235.3,108.6 1239.2,108.6 1239.5,108.6 1239.8,109.4 1243.7,120.8 
			1243.9,121.6 1244.2,121.2 1248.1,115.5 1248.4,115.1 1248.7,115.5 1252.5,121.2 1252.8,121.6 1253.1,121.2 1257,115.5 
			1257.3,115.1 1257.5,114.3 1261.4,103 1261.7,102.2 1262,98.2 1265.9,41.5 1266.1,37.5 1266.4,36.3 1270.3,19.3 1270.6,18.1 
			1270.8,18.5 1274.7,24.1 1275,24.5 1275.3,22.9 1279.2,0.3 1279.4,-1.3 1279.7,-1.7 1283.6,-7.4 1283.9,-7.8 1284.2,-7.4 
			1288,-1.7 1288.3,-1.3 1288.6,-0.1 1292.5,16.9 1292.8,18.1 1293,16.5 1296.9,-6.2 1297.2,-7.8 1297.5,-7.4 1301.4,-1.7 
			1301.6,-1.3 1301.9,-0.1 1305.8,16.9 1306.1,18.1 1306.3,18.9 1310.2,30.2 1310.5,31 1310.8,29.8 1314.7,12.8 1314.9,11.6 
			1315.2,10.8 1319.1,-0.5 1319.4,-1.3 1319.7,-1.3 1323.5,-1.3 1323.8,-1.3 1324.1,-1.7 1328,-7.4 1328.3,-7.8 1328.5,-7 
			1332.4,4.3 1332.7,5.1 1333,270.4 1332.7,270.4 1332.4,270.4 1328.5,270.4 1328.3,270.4 1328,270.4 1324.1,270.4 1323.8,270.4 
			1323.5,270.4 1319.7,270.4 1319.4,270.4 1319.1,270.4 1315.2,270.4 1314.9,270.4 1314.7,270.4 1310.8,270.4 1310.5,270.4 
			1310.2,270.4 1306.3,270.4 1306.1,270.4 1305.8,270.4 1301.9,270.4 1301.6,270.4 1301.4,270.4 1297.5,270.4 1297.2,270.4 
			1296.9,270.4 1293,270.4 1292.8,270.4 1292.5,270.4 1288.6,270.4 1288.3,270.4 1288,270.4 1284.2,270.4 1283.9,270.4 
			1283.6,270.4 1279.7,270.4 1279.4,270.4 1279.2,270.4 1275.3,270.4 1275,270.4 1274.7,270.4 1270.8,270.4 1270.6,270.4 
			1270.3,270.4 1266.4,270.4 1266.1,270.4 1265.9,270.4 1262,270.4 1261.7,270.4 1261.4,270.4 1257.5,270.4 1257.3,270.4 
			1257,270.4 1253.1,270.4 1252.8,270.4 1252.5,270.4 1248.7,270.4 1248.4,270.4 1248.1,270.4 1244.2,270.4 1243.9,270.4 
			1243.7,270.4 1239.8,270.4 1239.5,270.4 1239.2,270.4 1235.3,270.4 1235.1,270.4 1234.8,270.4 1230.9,270.4 1230.6,270.4 
			1230.4,270.4 1226.5,270.4 1226.2,270.4 1225.9,270.4 1222,270.4 1221.8,270.4 1221.5,270.4 1217.6,270.4 1217.3,270.4 
			1217,270.4 1213.2,270.4 1212.9,270.4 1212.6,270.4 1208.7,270.4 1208.4,270.4 1208.2,270.4 1204.3,270.4 1204,270.4 
			1203.7,270.4 1199.8,270.4 1199.6,270.4 1199.3,270.4 1195.4,270.4 1195.1,270.4 1194.9,270.4 1191,270.4 1190.7,270.4 
			1190.4,270.4 1186.5,270.4 1186.3,270.4 1186,270.4 1182.1,270.4 1181.8,270.4 1181.5,270.4 1177.7,270.4 1177.4,270.4 
			1177.1,270.4 1173.2,270.4 1172.9,270.4 1172.7,270.4 1168.8,270.4 1168.5,270.4 1168.2,270.4 1164.3,270.4 1164.1,270.4 
			1163.8,270.4 1159.9,270.4 1159.6,270.4 1159.4,270.4 1155.5,270.4 1155.2,270.4 1154.9,270.4 1151,270.4 1150.8,270.4 
			1150.5,270.4 1146.6,270.4 1146.3,270.4 1146,270.4 1142.2,270.4 1141.9,270.4 1141.6,270.4 1137.7,270.4 1137.4,270.4 
			1137.2,270.4 1133.3,270.4 1133,270.4 1132.7,270.4 1128.8,270.4 1128.6,270.4 1128.3,270.4 1124.4,270.4 1124.1,270.4 
			1123.9,270.4 1120,270.4 1119.7,270.4 1119.4,270.4 1115.5,270.4 1115.3,270.4 1115,270.4 1111.1,270.4 1110.8,270.4 
			1110.5,270.4 1106.7,270.4 1106.4,270.4 1106.1,270.4 1102.2,270.4 1101.9,270.4 1101.7,270.4 1097.8,270.4 1097.5,270.4 
			1097.2,270.4 1093.3,270.4 1093.1,270.4 1092.8,270.4 1088.9,270.4 1088.6,270.4 1088.4,270.4 1084.5,270.4 1084.2,270.4 
			1083.9,270.4 1080,270.4 1079.8,270.4 1079.5,270.4 1075.6,270.4 1075.3,270.4 1075,270.4 1071.2,270.4 1070.9,270.4 
			1070.6,270.4 1066.7,270.4 1066.4,270.4 1066.2,270.4 1062.3,270.4 1062,270.4 1061.7,270.4 1057.8,270.4 1057.6,270.4 
			1057.3,270.4 		"/>
		<polyline class="st5" points="1057.6,205.7 1057.8,205.7 1061.7,205.7 1062,205.7 1062.3,205.3 1066.2,199.6 1066.4,199.2 
			1066.7,198.4 1070.6,187.1 1070.9,186.3 1071.2,185.1 1075,168.1 1075.3,166.9 1075.6,166.9 1079.5,166.9 1079.8,166.9 
			1080,166.9 1083.9,166.9 1084.2,166.9 1084.5,166.9 1088.4,166.9 1088.6,166.9 1088.9,166.1 1092.8,154.7 1093.1,153.9 
			1093.3,153.9 1097.2,153.9 1097.5,153.9 1097.8,154.3 1101.7,160 1101.9,160.4 1102.2,160.4 1106.1,160.4 1106.4,160.4 
			1106.7,160.8 1110.5,166.5 1110.8,166.9 1111.1,168.5 1115,191.2 1115.3,192.8 1115.5,190.3 1119.4,156.3 1119.7,153.9 
			1120,153.9 1123.9,153.9 1124.1,153.9 1124.4,154.3 1128.3,160 1128.6,160.4 1128.8,160.4 1132.7,160.4 1133,160.4 1133.3,159.6 
			1137.2,148.3 1137.4,147.5 1137.7,147.9 1141.6,153.5 1141.9,153.9 1142.2,153.9 1146,153.9 1146.3,153.9 1146.6,153.1 
			1150.5,141.8 1150.8,141 1151,141.4 1154.9,147.1 1155.2,147.5 1155.5,147.5 1159.4,147.5 1159.6,147.5 1159.9,147.1 
			1163.8,141.4 1164.1,141 1164.3,141.8 1168.2,153.1 1168.5,153.9 1168.8,153.1 1172.7,141.8 1172.9,141 1173.2,141.4 
			1177.1,147.1 1177.4,147.5 1177.7,147.5 1181.5,147.5 1181.8,147.5 1182.1,147.1 1186,141.4 1186.3,141 1186.5,140.2 
			1190.4,128.9 1190.7,128.1 1191,128.5 1194.9,134.1 1195.1,134.5 1195.4,134.1 1199.3,128.5 1199.6,128.1 1199.8,128.1 
			1203.7,128.1 1204,128.1 1204.3,128.1 1208.2,128.1 1208.4,128.1 1208.7,127.7 1212.6,122 1212.9,121.6 1213.2,120.8 1217,109.4 
			1217.3,108.6 1217.6,108.6 1221.5,108.6 1221.8,108.6 1222,109.4 1225.9,120.8 1226.2,121.6 1226.5,121.6 1230.4,121.6 
			1230.6,121.6 1230.9,120.8 1234.8,109.4 1235.1,108.6 1235.3,108.6 1239.2,108.6 1239.5,108.6 1239.8,109.4 1243.7,120.8 
			1243.9,121.6 1244.2,121.2 1248.1,115.5 1248.4,115.1 1248.7,115.5 1252.5,121.2 1252.8,121.6 1253.1,121.2 1257,115.5 
			1257.3,115.1 1257.5,114.3 1261.4,103 1261.7,102.2 1262,98.2 1265.9,41.5 1266.1,37.5 1266.4,36.3 1270.3,19.3 1270.6,18.1 
			1270.8,18.5 1274.7,24.1 1275,24.5 1275.3,22.9 1279.2,0.3 1279.4,-1.3 1279.7,-1.7 1283.6,-7.4 1283.9,-7.8 1284.2,-7.4 
			1288,-1.7 1288.3,-1.3 1288.6,-0.1 1292.5,16.9 1292.8,18.1 1293,16.5 1296.9,-6.2 1297.2,-7.8 1297.5,-7.4 1301.4,-1.7 
			1301.6,-1.3 1301.9,-0.1 1305.8,16.9 1306.1,18.1 1306.3,18.9 1310.2,30.2 1310.5,31 1310.8,29.8 1314.7,12.8 1314.9,11.6 
			1315.2,10.8 1319.1,-0.5 1319.4,-1.3 1319.7,-1.3 1323.5,-1.3 1323.8,-1.3 1324.1,-1.7 1328,-7.4 1328.3,-7.8 1328.5,-7 
			1332.4,4.3 1332.7,5.1 		"/>
	</g>
</g>
<g>
	<defs>
		<rect id="SVGID_00000172429743865117776830000016016980355047524496_" x="1002.2" y="-27.2" width="350" height="350"/>
	</defs>
	<clipPath id="SVGID_00000080888251813196003960000007286401882388052865_">
		<use xlink:href="#SVGID_00000172429743865117776830000016016980355047524496_"  style="overflow:visible;"/>
	</clipPath>
	<g style="clip-path:url(#SVGID_00000080888251813196003960000007286401882388052865_);">
		<rect x="1029.7" y="262.4" class="st0" width="8.9" height="18.9"/>
		<text transform="matrix(1 0 0 1 1029.676 276.1398)" class="st8" style="font-family:'ArialMT'; font-size:16px;">0</text>
		<rect x="1020.8" y="197.7" class="st0" width="17.8" height="18.9"/>
		<text transform="matrix(1 0 0 1 1020.7776 211.4401)" class="st8" style="font-family:'ArialMT'; font-size:16px;">10</text>
		<rect x="1020.8" y="133" class="st0" width="17.8" height="18.9"/>
		<text transform="matrix(1 0 0 1 1020.7776 146.7399)" class="st8" style="font-family:'ArialMT'; font-size:16px;">20</text>
		<rect x="1020.8" y="68.3" class="st0" width="17.8" height="18.9"/>
		<text transform="matrix(1 0 0 1 1020.7776 82.0402)" class="st8" style="font-family:'ArialMT'; font-size:16px;">30</text>
		<rect x="1020.8" y="3.6" class="st0" width="17.8" height="18.9"/>
		<text transform="matrix(1 0 0 1 1020.7776 17.34)" class="st8" style="font-family:'ArialMT'; font-size:16px;">40</text>
		<rect x="1053.1" y="287" class="st0" width="35.6" height="18.9"/>
		<text transform="matrix(1 0 0 1 1053.0876 300.7198)" class="st8" style="font-family:'ArialMT'; font-size:16px;">1960</text>
		<rect x="1097.5" y="287" class="st0" width="35.6" height="18.9"/>
		<text transform="matrix(1 0 0 1 1097.4578 300.7198)" class="st8" style="font-family:'ArialMT'; font-size:16px;">1970</text>
		<rect x="1141.8" y="287" class="st0" width="35.6" height="18.9"/>
		<text transform="matrix(1 0 0 1 1141.8376 300.7198)" class="st8" style="font-family:'ArialMT'; font-size:16px;">1980</text>
		<rect x="1186.2" y="287" class="st0" width="35.6" height="18.9"/>
		<text transform="matrix(1 0 0 1 1186.2078 300.7198)" class="st8" style="font-family:'ArialMT'; font-size:16px;">1990</text>
		<rect x="1230.6" y="287" class="st0" width="35.6" height="18.9"/>
		<text transform="matrix(1 0 0 1 1230.5876 300.7198)" class="st8" style="font-family:'ArialMT'; font-size:16px;">2000</text>
		<rect x="1275" y="287" class="st0" width="35.6" height="18.9"/>
		<text transform="matrix(1 0 0 1 1274.9578 300.7198)" class="st8" style="font-family:'ArialMT'; font-size:16px;">2010</text>
	</g>
</g>
</svg>
